<?xml version="1.0" encoding="UTF-8"?>
<svg width="296.99mm" height="95.19mm" version="1.1" viewBox="0 0 1122.5 359.77" xmlns="http://www.w3.org/2000/svg" xmlns:cc="http://creativecommons.org/ns#" xmlns:dc="http://purl.org/dc/elements/1.1/" xmlns:rdf="http://www.w3.org/1999/02/22-rdf-syntax-ns#">
 <!-- Generator: Sketch 61.2 (89653) - https://sketch.com -->
 <title>logo_gitee_light_cn</title>
 <desc>Created with Sketch.</desc>
 <polygon id="Rectangle-7-Copy" transform="matrix(3.5977 0 0 3.5977 -1565 -366.97)" points="435 202 435 102 747 102 747 202" fill="none"/>
 <path d="m512.28 311.65c26.042 0 46.831-5.0796 62.369-15.239s23.307-23.314 23.307-39.465c0-26.049-19.444-39.074-58.333-39.074h-23.958c-7.9861 0-13.715-0.78148-17.187-2.3444-3.4722-1.563-5.2083-4.1679-5.2083-7.8148s1.1285-6.686 3.3854-9.1172c0.86807-1.042 1.9965-1.3893 3.3854-1.042 5.5556 1.563 10.851 2.3444 15.885 2.3444 17.882 0 32.422-4.2981 43.62-12.894 11.198-8.5962 16.797-21.317 16.797-38.162 0-6.2518-1.1285-11.809-3.3854-16.671-0.17382-0.34731-0.13036-0.73806 0.13035-1.1722 0.26072-0.43416 0.65106-0.65123 1.1719-0.65123h5.9895c4.3402 0 7.9861-1.4761 10.937-4.4284 2.9514-2.9522 4.4271-6.5991 4.4271-10.941v-3.6469c0-4.1679-1.4757-7.7714-4.4271-10.81-2.9514-3.0391-6.5972-4.5586-10.937-4.5586h-38.281c-1.2153 0-2.5173-0.17363-3.9062-0.521-6.7708-2.0839-14.149-3.1259-22.135-3.1259-11.285 0-21.614 1.9537-30.989 5.8611-9.3749 3.9074-17.144 10.159-23.307 18.755-6.1632 8.5962-9.2448 18.799-9.2448 30.608 0 8.1621 1.9097 15.63 5.7292 22.402 3.8194 6.7728 8.5937 12.243 14.323 16.411 0.347 0.17369 0.52082 0.43416 0.52082 0.78148 0 0.34731-0.17382 0.69464-0.52082 1.042-4.8611 3.4732-8.7673 7.6845-11.719 12.634-2.9514 4.9493-4.427 10.029-4.427 15.239 0 11.114 4.427 19.711 13.281 25.789 0.34701 0.17369 0.52082 0.47755 0.52082 0.91172 0 0.43416-0.17381 0.82489-0.52082 1.1722-6.9444 3.4732-12.196 7.7279-15.755 12.764-3.559 5.0362-5.3385 10.593-5.3385 16.671 0 8.6831 2.9514 15.977 8.8541 21.881 5.9028 5.9045 13.498 10.116 22.786 12.634 9.2881 2.5181 20.009 3.7771 32.161 3.7771zm3.6458-140.41c-5.7291 0-10.373-2.0405-13.932-6.1216-3.559-4.081-5.3386-9.9421-5.3386-17.583 0-7.4674 1.7795-13.242 5.3386-17.323 3.559-4.081 8.2031-6.1216 13.932-6.1216s10.373 1.9971 13.932 5.9913c3.559 3.9942 5.3385 9.8119 5.3385 17.453s-1.7795 13.502-5.3385 17.583c-3.559 4.081-8.2031 6.1216-13.932 6.1216zm3.6458 110.71c-9.8958 0-17.752-1.3459-23.568-4.0376-5.8159-2.6918-8.7239-6.7294-8.7239-12.113 0-4.3415 1.9965-8.4226 5.9895-12.243 0.52082-0.52101 1.302-0.78148 2.3438-0.78148h0.78123c4.3402 0.86831 10.937 1.3025 19.792 1.3025h14.323c7.6388 0 13.238 0.78147 16.797 2.3444 3.559 1.563 5.3385 4.4284 5.3385 8.5962 0 4.8625-3.0816 8.9002-9.2447 12.113-6.1632 3.2127-14.106 4.8191-23.828 4.8191z"/>
 <g id="Group" transform="matrix(6.2076 0 0 6.2076 11.39 4.9239)" fill="#c71d23" fill-rule="evenodd">
  <path id="Combined-Shape" d="m27.909 0c15.414 0 27.909 12.495 27.909 27.909s-12.495 27.909-27.909 27.909-27.909-12.495-27.909-27.909 12.495-27.909 27.909-27.909zm14.128 12.404c-2.84e-4 0-5.7e-4 0-8.54e-4 8.54e-4h-19.295c-5.7088 0-10.337 4.6279-10.337 10.337v19.295c0 0.76118 0.61706 1.3782 1.3782 1.3782h20.329c5.1378 0 9.3029-4.165 9.3029-9.3029v-7.9247c0-0.76118-0.61706-1.3782-1.3782-1.3782h-15.85c-0.76104 3.61e-4 -1.378 0.6172-1.3786 1.3782l-9.02e-4 3.4455c-5.38e-4 0.7164 0.54588 1.3053 1.2448 1.3723l0.13273 0.0063c1.25e-4 0 2.49e-4 0 3.73e-4 -3.73e-4l9.6493-8e-5c0.7164-1.7e-5 1.3051 0.54658 1.3719 1.2455l0.0063 0.13274v0.68908c0 2.2835-1.8512 4.1347-4.1347 4.1347h-13.094c-0.76107-3.8e-5 -1.378-0.617-1.3781-1.3781l-3.61e-4 -13.093c-1.72e-4 -2.2143 1.7405-4.0222 3.9281-4.1298l0.20648-5e-3h19.293c0.76084-8.55e-4 1.3778-0.61739 1.3791-1.3782l0.0021-3.4455c0.0013-0.76118-0.61535-1.3786-1.3765-1.3791z"/>
 </g>
 <path d="m645.61 74.085c7.8125 0 14.236-2.2576 19.271-6.7728 5.0348-4.5152 7.5521-10.333 7.5521-17.453 0-7.1201-2.5173-12.981-7.5521-17.583-5.0347-4.602-11.458-6.903-19.271-6.903-7.986 0-14.54 2.301-19.661 6.903-5.1215 4.602-7.6823 10.463-7.6823 17.583 0 7.1201 2.5608 12.938 7.6823 17.453 5.1215 4.5152 11.675 6.7728 19.661 6.7728zm8.0729 172.97c4.1667 0 7.7691-1.5195 10.807-4.5586 3.0382-3.0391 4.5573-6.6425 4.5573-10.81v-121.13c0-4.1679-1.5191-7.7714-4.5573-10.81-3.0382-3.0391-6.6406-4.5586-10.807-4.5586h-16.406c-4.3402 0-7.986 1.5195-10.937 4.5586-2.9514 3.0391-4.427 6.6425-4.427 10.81v121.13c0 4.1679 1.4757 7.7713 4.427 10.81 2.9514 3.0391 6.5972 4.5586 10.937 4.5586z"/>
 <metadata>
  <rdf:RDF>
   <cc:Work rdf:about="">
    <dc:title>logo_gitee_light_cn</dc:title>
   </cc:Work>
  </rdf:RDF>
 </metadata>
 <g stroke-width="6.2076">
  <path d="m1053.2 250.7c13.889 0 27.604-3.2127 41.146-9.6382 3.8194-1.7366 6.2499-4.7757 7.2916-9.1172 0.5208-1.3893 0.7812-2.7786 0.7812-4.1679 0-2.6049-0.7812-5.2098-2.3437-7.8148l-0.7812-1.563c-2.0834-3.6469-5.1216-6.0782-9.1146-7.2938-1.9097-0.521-3.8194-0.78148-5.7291-0.78148-2.257 0-4.4271 0.34732-6.5104 1.042-5.9028 2.0839-11.979 3.1259-18.229 3.1259-20.486 0-32.899-9.1172-37.239-27.352-0.1738-0.52101-0.087-0.99855 0.2607-1.4327 0.347-0.43416 0.7813-0.65123 1.3021-0.65123h71.614c4.5139 0 8.5069-1.4327 11.979-4.2981 3.4721-2.8654 5.2951-6.4689 5.4687-10.81v-4.9493c0-21.881-5.5556-39.595-16.667-53.14-11.111-13.546-27.257-20.318-48.437-20.318-9.2013 0-18.099 1.8669-26.693 5.6006-8.5937 3.7337-16.232 8.9436-22.917 15.63-6.684 6.686-12.066 15.109-16.146 25.268-4.0799 10.159-6.1198 21.23-6.1198 33.213 0 24.486 7.2482 43.849 21.745 58.09 14.497 14.24 32.943 21.36 55.338 21.36zm17.708-96.382h-47.656c-1.2152 0-1.8229-0.43416-1.8229-1.3025 0-7.1201 3.3855-13.459 10.156-19.016 4.8611-4.1679 10.677-6.2518 17.448-6.2518 7.8125 0 13.672 2.2142 17.578 6.6426 3.9063 4.4284 6.033 10.376 6.3802 17.844v0.26047c0 1.2156-0.6945 1.8234-2.0834 1.8234z"/>
  <path d="m895.87 248.61c13.889 0 27.604-3.2127 41.146-9.6382 3.8194-1.7366 6.25-4.7757 7.2916-9.1172 0.52082-1.3893 0.78123-2.7786 0.78123-4.1679 0-2.6049-0.78123-5.2098-2.3438-7.8148l-0.78123-1.563c-2.0833-3.6469-5.1215-6.0781-9.1146-7.2938-1.9097-0.52101-3.8194-0.78148-5.7292-0.78148-2.2569 0-4.427 0.34732-6.5104 1.042-5.9028 2.0839-11.979 3.1259-18.229 3.1259-20.486 0-32.899-9.1172-37.239-27.352-0.17382-0.521-0.0869-0.99855 0.26072-1.4327 0.347-0.43416 0.78122-0.65123 1.302-0.65123h71.614c4.5139 0 8.5069-1.4327 11.979-4.2981 3.4722-2.8654 5.2951-6.4689 5.4687-10.81v-4.9494c0-21.881-5.5556-39.595-16.667-53.14-11.111-13.546-27.257-20.318-48.437-20.318-9.2014 0-18.099 1.8669-26.693 5.6006-8.5937 3.7337-16.233 8.9436-22.917 15.63-6.684 6.686-12.066 15.109-16.146 25.268-4.0799 10.159-6.1198 21.23-6.1198 33.213 0 24.486 7.2482 43.849 21.745 58.09 14.496 14.24 32.943 21.36 55.338 21.36zm17.708-96.382h-47.656c-1.2153 0-1.8229-0.43416-1.8229-1.3025 0-7.1201 3.3854-13.459 10.156-19.016 4.861-4.1679 10.677-6.2518 17.448-6.2518 7.8125 0 13.672 2.2142 17.578 6.6425 3.9062 4.4284 6.033 10.376 6.3802 17.844v0.26048c0 1.2156-0.69444 1.8234-2.0833 1.8234z"/>
  <path d="m766.97 250.7c6.5972 0 13.108-0.60785 19.531-1.8234 4.1666-0.69464 7.3784-2.9522 9.6353-6.7728 1.5625-2.6049 2.3438-5.2967 2.3438-8.0752 0-1.2156-0.0869-2.5181-0.2601-3.9074l-1.0416-4.1679c-0.86807-3.6469-3.0382-6.5557-6.5104-8.7265-3.4722-2.1708-7.3784-3.343-11.719-3.5166-11.979-0.521-17.969-8.3357-17.969-23.444v-56.006c0-1.2156 0.60772-1.8234 1.8229-1.8234h18.49c4.1666 0 7.7691-1.5195 10.807-4.5586 3.0382-3.0391 4.5573-6.6426 4.5573-10.81v-6.5123c0-4.1679-1.5191-7.7714-4.5573-10.81-3.0381-3.0391-6.6406-4.5586-10.807-4.5586h-18.49c-1.2153 0-1.8229-0.60779-1.8229-1.8234v-22.663c0-4.3415-1.5191-7.9884-4.5573-10.941-3.0381-2.9522-6.6406-4.4284-10.807-4.4284h-8.8541c-4.3403 0-8.1597 1.4327-11.458 4.2981-3.2986 2.8654-5.2951 6.4689-5.9895 10.81l-2.8646 22.923c-0.17381 1.2156-0.95485 1.9103-2.3438 2.0839l-5.9895 0.52101c-4.3402 0.34732-7.986 2.1274-10.937 5.3401-2.9514 3.2127-4.4271 6.9899-4.4271 11.331v4.4284c0 4.1679 1.5191 7.7713 4.5573 10.81 3.0382 3.0391 6.6406 4.5586 10.807 4.5586h3.3854c1.2153 0 1.8229 0.60779 1.8229 1.8234v56.527c0 18.929 4.3402 33.647 13.021 44.153 8.6805 10.507 22.222 15.76 40.625 15.76z"/>
 </g>
</svg>
