<?xml version="1.0" encoding="UTF-8" standalone="no"?>
<svg
   xmlns:dc="http://purl.org/dc/elements/1.1/"
   xmlns:cc="http://creativecommons.org/ns#"
   xmlns:rdf="http://www.w3.org/1999/02/22-rdf-syntax-ns#"
   xmlns:svg="http://www.w3.org/2000/svg"
   xmlns="http://www.w3.org/2000/svg"
   viewBox="0 0 1246.3224 1247.5725"
   height="1247.5725"
   width="1246.3224"
   xml:space="preserve"
   id="svg2"
   version="1.1"><metadata
     id="metadata8"><rdf:RDF><cc:Work
         rdf:about=""><dc:format>image/svg+xml</dc:format><dc:type
           rdf:resource="http://purl.org/dc/dcmitype/StillImage" /><dc:title></dc:title></cc:Work></rdf:RDF></metadata><defs
     id="defs6"><clipPath
       id="clipPath18"
       clipPathUnits="userSpaceOnUse"><path
         id="path16"
         d="M 0,841.89 H 595.28 V 0 H 0 Z" /></clipPath><clipPath
       id="clipPath26"
       clipPathUnits="userSpaceOnUse"><path
         id="path24"
         d="M 207.991,790.648 H 374.668 V 623.471 H 207.991 Z" /></clipPath><clipPath
       id="clipPath58"
       clipPathUnits="userSpaceOnUse"><path
         id="path56"
         d="M 223.328,775.473 H 361.507 V 636.881 H 223.328 Z" /></clipPath><clipPath
       id="clipPath78"
       clipPathUnits="userSpaceOnUse"><path
         id="path76"
         d="M 227.871,771.164 H 357.843 V 641.428 H 227.871 Z" /></clipPath><clipPath
       id="clipPath82"
       clipPathUnits="userSpaceOnUse"><path
         id="path80"
         d="M 227.871,771.164 H 357.843 V 641.428 H 227.871 Z" /></clipPath><clipPath
       id="clipPath86"
       clipPathUnits="userSpaceOnUse"><path
         id="path84"
         d="m 357.843,653.832 c 0,-6.85 -5.538,-12.404 -12.367,-12.404 H 239.327 c -6.831,0 -11.456,5.554 -11.456,12.404 l 0.008,106.037 c 0,6.851 4.58,11.185 12.168,11.185 l 105.181,0.11 c 6.829,0 12.615,-4.444 12.615,-11.295 z" /></clipPath><linearGradient
       id="linearGradient96"
       spreadMethod="pad"
       gradientTransform="matrix(4.5731207,-11.846039,-11.846039,-4.5731207,256.87499,776.33273)"
       gradientUnits="userSpaceOnUse"
       y2="0"
       x2="1"
       y1="0"
       x1="0"><stop
         id="stop88"
         offset="0"
         style="stop-opacity:1;stop-color:#ffffff" /><stop
         id="stop90"
         offset="0.09555188"
         style="stop-opacity:1;stop-color:#ffffff" /><stop
         id="stop92"
         offset="0.567413"
         style="stop-opacity:1;stop-color:#adadae" /><stop
         id="stop94"
         offset="1"
         style="stop-opacity:1;stop-color:#eeefef" /></linearGradient><clipPath
       id="clipPath126"
       clipPathUnits="userSpaceOnUse"><path
         id="path124"
         d="m 223.542,690.355 h 137.754 v -53.18 H 223.542 Z" /></clipPath><clipPath
       id="clipPath130"
       clipPathUnits="userSpaceOnUse"><path
         id="path128"
         d="m 361.294,689.253 v 1.1 h -38.64 c -0.273,0.012 -2.406,0.012 -3.679,-0.682 -1.107,-0.605 -14.018,-6.102 -20.686,-8.93 l -0.051,-0.02 -0.062,-0.037 c -0.006,-0.003 -1.436,-0.722 -2.571,-0.722 h -37.18 c -1.133,0 -2.564,0.719 -2.57,0.722 l -0.061,0.037 -0.051,0.02 c -6.669,2.828 -19.58,8.325 -20.689,8.93 -1.273,0.694 -3.404,0.694 -3.678,0.682 h -7.834 v -1.1 -39.844 c 0,0 0.542,-12.234 13.08,-12.234 l 113.674,0.02 c 0,0 10.963,0.812 10.984,13.852 0.025,13.043 0.014,38.206 0.014,38.206" /></clipPath><linearGradient
       id="linearGradient138"
       spreadMethod="pad"
       gradientTransform="matrix(20.327354,0,0,-20.327354,248.15104,758.60975)"
       gradientUnits="userSpaceOnUse"
       y2="0"
       x2="1"
       y1="0"
       x1="0"><stop
         id="stop132"
         offset="0"
         style="stop-opacity:1;stop-color:#fcc800" /><stop
         id="stop134"
         offset="0.69101"
         style="stop-opacity:1;stop-color:#e60013" /><stop
         id="stop136"
         offset="1"
         style="stop-opacity:1;stop-color:#e60013" /></linearGradient><clipPath
       id="clipPath160"
       clipPathUnits="userSpaceOnUse"><path
         id="path158"
         d="M 227.873,690.51 H 357.834 V 640.939 H 227.873 Z" /></clipPath><clipPath
       id="clipPath164"
       clipPathUnits="userSpaceOnUse"><path
         id="path162"
         d="M 227.873,690.778 H 357.834 V 640.939 H 227.873 Z" /></clipPath><clipPath
       id="clipPath168"
       clipPathUnits="userSpaceOnUse"><path
         id="path166"
         d="m 237.911,641.098 h 109.05 c 10.98,0.283 11.555,9.811 11.555,9.811 v 38.387 c 0,0 -34.37,-0.05 -34.397,-0.05 -0.213,0.011 -1.232,0.224 -2.623,-0.518 -1.087,-0.577 -19.946,-8.532 -20.094,-8.606 0,0 -2.264,-1.189 -3.132,-1.189 l -42.194,-0.023 c -0.867,0 -2.643,0.9 -2.647,0.904 0,0 -18.764,8.274 -19.854,8.853 -1.388,0.744 -4.261,0.709 -4.471,0.696 h -1.162 v -40.185 c 0,0 0.906,-8.08 9.969,-8.08" /></clipPath><linearGradient
       id="linearGradient174"
       spreadMethod="pad"
       gradientTransform="matrix(185.17145,174.27904,174.27904,-185.17145,133.16504,517.63965)"
       gradientUnits="userSpaceOnUse"
       y2="0"
       x2="1"
       y1="0"
       x1="0"><stop
         id="stop170"
         offset="0"
         style="stop-opacity:1;stop-color:#ffffff" /><stop
         id="stop172"
         offset="1"
         style="stop-opacity:1;stop-color:#231916" /></linearGradient><mask
       id="mask176"
       height="1"
       width="1"
       y="0"
       x="0"
       maskUnits="userSpaceOnUse"><g
         id="g200"><g
           id="g198"
           clip-path="url(#clipPath160)"><path
             id="path178"
             style="fill:#000000;fill-opacity:1;fill-rule:nonzero;stroke:none"
             d="M 227.873,690.778 H 357.834 V 640.939 H 227.873 Z" /><g
             id="g196"><g
               id="g180" /><g
               id="g194"><g
                 id="g192"
                 clip-path="url(#clipPath164)"><g
                   id="g190"><g
                     id="g188"
                     clip-path="url(#clipPath168)"><g
                       id="g186"><g
                         id="g184"><path
                           id="path182"
                           style="fill:url(#linearGradient174);stroke:none"
                           d="m 237.911,641.098 h 109.05 c 10.98,0.283 11.555,9.811 11.555,9.811 v 38.387 c 0,0 -34.37,-0.05 -34.397,-0.05 -0.213,0.011 -1.232,0.224 -2.623,-0.518 -1.087,-0.577 -19.946,-8.532 -20.094,-8.606 0,0 -2.264,-1.189 -3.132,-1.189 l -42.194,-0.023 c -0.867,0 -2.643,0.9 -2.647,0.904 0,0 -18.764,8.274 -19.854,8.853 -1.388,0.744 -4.261,0.709 -4.471,0.696 h -1.162 v -40.185 c 0,0 0.906,-8.08 9.969,-8.08" /></g></g></g></g></g></g></g></g></g></mask><clipPath
       id="clipPath208"
       clipPathUnits="userSpaceOnUse"><path
         id="path206"
         d="M 227.873,690.51 H 357.834 V 640.939 H 227.873 Z" /></clipPath><clipPath
       id="clipPath224"
       clipPathUnits="userSpaceOnUse"><path
         id="path222"
         d="M 228.107,771.054 H 358.01 V 713.303 H 228.107 Z" /></clipPath><clipPath
       id="clipPath228"
       clipPathUnits="userSpaceOnUse"><path
         id="path226"
         d="M 228.107,771.054 H 366.224 V 698.468 H 228.107 Z" /></clipPath><clipPath
       id="clipPath232"
       clipPathUnits="userSpaceOnUse"><path
         id="path230"
         d="m 353.372,752.331 c 6.048,8.095 4.622,14.017 0.178,17.357 -2.711,2.033 -6.146,2.479 -6.146,2.479 H 239 c 0,0 -10.893,-1.368 -10.893,-12.298 v -35.47 c 0,0 13.9,-25.072 84.52,2.347 10.276,3.988 34.589,17.344 40.745,25.585" /></clipPath><linearGradient
       id="linearGradient238"
       spreadMethod="pad"
       gradientTransform="matrix(41.524963,-58.590759,-58.590759,-41.524963,271.22363,775.13428)"
       gradientUnits="userSpaceOnUse"
       y2="0"
       x2="1"
       y1="0"
       x1="0"><stop
         id="stop234"
         offset="0"
         style="stop-opacity:1;stop-color:#ffffff" /><stop
         id="stop236"
         offset="1"
         style="stop-opacity:1;stop-color:#231916" /></linearGradient><mask
       id="mask240"
       height="1"
       width="1"
       y="0"
       x="0"
       maskUnits="userSpaceOnUse"><g
         id="g264"><g
           id="g262"
           clip-path="url(#clipPath224)"><path
             id="path242"
             style="fill:#000000;fill-opacity:1;fill-rule:nonzero;stroke:none"
             d="M 228.107,771.054 H 366.223 V 698.468 H 228.107 Z" /><g
             id="g260"><g
               id="g244" /><g
               id="g258"><g
                 id="g256"
                 clip-path="url(#clipPath228)"><g
                   id="g254"><g
                     id="g252"
                     clip-path="url(#clipPath232)"><g
                       id="g250"><g
                         id="g248"><path
                           id="path246"
                           style="fill:url(#linearGradient238);stroke:none"
                           d="m 353.372,752.331 c 6.048,8.095 4.622,14.017 0.178,17.357 -2.711,2.033 -6.146,2.479 -6.146,2.479 H 239 c 0,0 -10.893,-1.368 -10.893,-12.298 v -35.47 c 0,0 13.9,-25.072 84.52,2.347 10.276,3.988 34.589,17.344 40.745,25.585" /></g></g></g></g></g></g></g></g></g></mask><clipPath
       id="clipPath272"
       clipPathUnits="userSpaceOnUse"><path
         id="path270"
         d="M 228.107,771.054 H 358.01 V 713.303 H 228.107 Z" /></clipPath><clipPath
       id="clipPath292"
       clipPathUnits="userSpaceOnUse"><path
         id="path290"
         d="M 227.888,690.431 H 361.296 V 637.175 H 227.888 Z" /></clipPath><clipPath
       id="clipPath296"
       clipPathUnits="userSpaceOnUse"><path
         id="path294"
         d="m 357.836,690.431 -0.244,-39.34 c 0,0 -0.151,-9.639 -8.951,-10.044 l -15.551,0.027 h -87.114 -9.836 c 0,0 -5.149,0.384 -8.252,-1.027 0,0 3.39,-2.872 7.119,-2.872 h 114.54 c 0,0 7.08,0.366 9.916,6.03 0,0 1.781,2.115 1.759,7.346 l 0.074,39.866 z" /></clipPath><linearGradient
       id="linearGradient304"
       spreadMethod="pad"
       gradientTransform="matrix(24.07357,0,0,-24.07357,249.01197,758.61654)"
       gradientUnits="userSpaceOnUse"
       y2="0"
       x2="1"
       y1="0"
       x1="0"><stop
         id="stop298"
         offset="0"
         style="stop-opacity:1;stop-color:#fff100" /><stop
         id="stop300"
         offset="0.69101"
         style="stop-opacity:1;stop-color:#c7000c" /><stop
         id="stop302"
         offset="1"
         style="stop-opacity:1;stop-color:#c7000c" /></linearGradient><clipPath
       id="clipPath326"
       clipPathUnits="userSpaceOnUse"><path
         id="path324"
         d="M 223.328,775.473 H 361.352 V 692.845 H 223.328 Z" /></clipPath><clipPath
       id="clipPath330"
       clipPathUnits="userSpaceOnUse"><path
         id="path328"
         d="m 315.118,771.054 h 27.273 c 12.742,0.944 15.621,-9.189 15.621,-9.189 l 0.024,-11.731 c 0,-17.214 -0.35,-39.784 0.241,-45.572 0.834,-8.174 3.028,-11.717 3.028,-11.717 l 0.047,69.844 c 0,12.044 -12.75,12.784 -12.75,12.784 h -33.457 -45.614 -33.453 c 0,0 -12.75,-0.74 -12.75,-12.784 v -32.972 c 0,0 4.732,-6.149 4.732,20.417 l -0.189,10.166 c 0,0 -0.726,10.346 12.176,10.754 h 27.974 z" /></clipPath><linearGradient
       id="linearGradient338"
       spreadMethod="pad"
       gradientTransform="matrix(2.7426114,9.3934283,9.3934283,-2.7426114,260.98122,771.52611)"
       gradientUnits="userSpaceOnUse"
       y2="0"
       x2="1"
       y1="0"
       x1="0"><stop
         id="stop332"
         offset="0"
         style="stop-opacity:1;stop-color:#ededee" /><stop
         id="stop334"
         offset="0.0786591"
         style="stop-opacity:1;stop-color:#ededee" /><stop
         id="stop336"
         offset="1"
         style="stop-opacity:1;stop-color:#828182" /></linearGradient><clipPath
       id="clipPath360"
       clipPathUnits="userSpaceOnUse"><path
         id="path358"
         d="m 296.454,668.865 h -38.877 c -1.455,0 -2.336,0.046 -2.607,-0.099 v 0 c -1.169,-0.495 -19.301,-7.475 -20.793,-8.159 v 0 c -0.694,-0.318 -1.392,-0.604 -1.865,-0.779 v 0 c -1.335,-0.497 -2.403,-0.46 -2.403,-0.46 v 0 h -6.367 v -1.1 h 7.834 c 0.274,-0.012 2.405,-0.012 3.678,0.682 v 0 c 1.109,0.602 14.02,5.279 20.689,8.108 v 0 l 0.051,0.02 0.062,0.038 c 0.005,0.002 1.435,0.724 2.569,0.724 v 0 h 37.181 c 1.134,0 2.564,-0.722 2.569,-0.724 v 0 l 0.063,-0.038 0.051,-0.02 c 6.668,-2.829 19.579,-7.506 20.685,-8.108 v 0 c 1.274,-0.694 3.407,-0.694 3.68,-0.682 v 0 h 38.64 v 1.1 h -37.173 c 0,0 -1.07,-0.037 -2.398,0.46 v 0 c -0.473,0.175 -1.176,0.461 -1.869,0.779 v 0 c -1.493,0.684 -19.624,7.664 -20.792,8.159 v 0 c -0.165,0.088 -0.56,0.106 -1.175,0.106 v 0 c -0.39,0 -0.869,-0.007 -1.433,-0.007" /></clipPath><linearGradient
       id="linearGradient376"
       spreadMethod="pad"
       gradientTransform="matrix(-24.857582,2.7609021e-6,2.7609021e-6,24.857582,273.12748,758.57425)"
       gradientUnits="userSpaceOnUse"
       y2="0"
       x2="1"
       y1="0"
       x1="0"><stop
         id="stop366"
         offset="0"
         style="stop-opacity:1;stop-color:#ffffff" /><stop
         id="stop368"
         offset="0.162918"
         style="stop-opacity:1;stop-color:#ffffff" /><stop
         id="stop370"
         offset="0.460678"
         style="stop-opacity:1;stop-color:#99999a" /><stop
         id="stop372"
         offset="0.662918"
         style="stop-opacity:1;stop-color:#ededee" /><stop
         id="stop374"
         offset="1"
         style="stop-opacity:1;stop-color:#828182" /></linearGradient><clipPath
       id="clipPath386"
       clipPathUnits="userSpaceOnUse"><path
         id="path384"
         d="m 318.974,689.735 c -1.106,-0.606 -14.017,-6.1 -20.685,-8.928 v 0 l -0.051,-0.02 -0.063,-0.038 c -0.005,-0.003 -1.435,-0.724 -2.569,-0.724 v 0 h -37.181 c -1.134,0 -2.564,0.721 -2.569,0.724 v 0 l -0.062,0.038 -0.051,0.02 c -6.669,2.828 -19.58,8.322 -20.689,8.928 v 0 c -1.273,0.695 -3.404,0.695 -3.678,0.683 v 0 h -7.834 v -1.101 h 6.367 c 0,0 1.068,0.034 2.403,-0.458 v 0 c 0.473,-0.177 1.171,-0.46 1.865,-0.778 v 0 c 1.492,-0.684 19.624,-8.487 20.793,-8.981 v 0 c 0.271,-0.146 1.152,-0.099 2.607,-0.099 v 0 h 38.877 c 1.456,0 2.338,-0.047 2.608,0.099 v 0 c 1.168,0.494 19.299,8.297 20.792,8.981 v 0 c 0.693,0.318 1.396,0.601 1.869,0.778 v 0 c 1.328,0.492 2.398,0.458 2.398,0.458 v 0 h 37.173 v 1.101 h -38.64 c -0.031,10e-4 -0.087,0.002 -0.163,0.002 v 0 c -0.589,0 -2.389,-0.07 -3.517,-0.685" /></clipPath><linearGradient
       id="linearGradient402"
       spreadMethod="pad"
       gradientTransform="matrix(-24.857582,2.7609021e-6,2.7609021e-6,24.857582,273.12748,762.38865)"
       gradientUnits="userSpaceOnUse"
       y2="0"
       x2="1"
       y1="0"
       x1="0"><stop
         id="stop392"
         offset="0"
         style="stop-opacity:1;stop-color:#ffffff" /><stop
         id="stop394"
         offset="0.162918"
         style="stop-opacity:1;stop-color:#ffffff" /><stop
         id="stop396"
         offset="0.460678"
         style="stop-opacity:1;stop-color:#99999a" /><stop
         id="stop398"
         offset="0.662918"
         style="stop-opacity:1;stop-color:#ededee" /><stop
         id="stop400"
         offset="1"
         style="stop-opacity:1;stop-color:#828182" /></linearGradient><clipPath
       id="clipPath412"
       clipPathUnits="userSpaceOnUse"><path
         id="path410"
         d="m 296.454,662.868 h -38.877 c -1.455,0 -2.336,0.049 -2.607,-0.098 v 0 c -1.169,-0.495 -19.301,-8.297 -20.793,-8.98 v 0 c -0.694,-0.316 -1.392,-0.6 -1.865,-0.777 v 0 c -2.113,-0.787 -4.214,-0.751 -4.214,-0.751 v 0 h -4.549 l -0.007,-0.806 h 7.834 c 0.274,-0.015 2.405,-0.015 3.678,0.678 v 0 c 1.109,0.604 14.02,6.1 20.689,8.929 v 0 l 0.051,0.023 0.062,0.036 c 0.005,0.003 1.435,0.724 2.569,0.724 v 0 h 37.181 c 1.134,0 2.564,-0.721 2.569,-0.724 v 0 l 0.063,-0.036 0.051,-0.023 c 6.668,-2.829 19.579,-8.325 20.685,-8.929 v 0 c 1.274,-0.693 3.407,-0.693 3.68,-0.678 v 0 h 38.64 l 0.011,0.687 h -35.943 c 0,0 -1.57,0.069 -2.899,0.568 v 0 c -0.473,0.175 -1.916,0.763 -2.609,1.079 v 0 c -1.493,0.683 -19.624,8.485 -20.792,8.98 v 0 c -0.163,0.088 -0.546,0.106 -1.143,0.106 v 0 c -0.396,0 -0.885,-0.008 -1.465,-0.008" /></clipPath><linearGradient
       id="linearGradient428"
       spreadMethod="pad"
       gradientTransform="matrix(-24.85952,2.7609021e-6,2.7609021e-6,24.85952,273.12784,757.41841)"
       gradientUnits="userSpaceOnUse"
       y2="0"
       x2="1"
       y1="0"
       x1="0"><stop
         id="stop418"
         offset="0"
         style="stop-opacity:1;stop-color:#ffffff" /><stop
         id="stop420"
         offset="0.162918"
         style="stop-opacity:1;stop-color:#ffffff" /><stop
         id="stop422"
         offset="0.460678"
         style="stop-opacity:1;stop-color:#99999a" /><stop
         id="stop424"
         offset="0.662918"
         style="stop-opacity:1;stop-color:#ededee" /><stop
         id="stop426"
         offset="1"
         style="stop-opacity:1;stop-color:#828182" /></linearGradient><clipPath
       id="clipPath438"
       clipPathUnits="userSpaceOnUse"><path
         id="path436"
         d="M 0,841.89 H 595.28 V 0 H 0 Z" /></clipPath><clipPath
       id="clipPath516"
       clipPathUnits="userSpaceOnUse"><path
         id="path514"
         d="M 0,841.89 H 595.28 V 0 H 0 Z" /></clipPath></defs><g
     transform="matrix(1.3333333,0,0,-1.3333333,233.52536,1565.56)"
     id="g10"><g
       style="stroke-width:0.18045111"
       transform="matrix(5.541667,0,0,5.541667,-1327.1973,-3207.917)"
       id="g12"><g
         style="stroke-width:0.18045111"
         clip-path="url(#clipPath18)"
         id="g14"><g
           style="stroke-width:0.18045111"
           id="g20"><g
             style="stroke-width:0.18045111"
             id="g22" /><g
             style="stroke-width:0.18045111"
             id="g34"><g
               style="stroke-width:0.18045111"
               id="g32"
               clip-path="url(#clipPath26)"><g
                 style="stroke-width:0.18045111"
                 id="g30"
                 transform="translate(374.668,637.4985)"><path
                   id="path28"
                   style="fill:#ffffff;fill-opacity:1;fill-rule:nonzero;stroke:none;stroke-width:0.18045111"
                   d="m 0,0 c 0,-7.748 -6.262,-14.027 -13.984,-14.027 h -138.708 c -7.723,0 -13.985,6.279 -13.985,14.027 v 139.124 c 0,7.746 6.262,14.025 13.985,14.025 H -13.984 C -6.262,153.149 0,146.87 0,139.124 Z" /></g></g></g></g><g
           style="stroke-width:0.18045111"
           transform="translate(208.0933,637.4985)"
           id="g36"><path
             id="path38"
             style="fill:#666565;fill-opacity:1;fill-rule:nonzero;stroke:none;stroke-width:0.18045111"
             d="m 0,0 v 139.124 c 0,7.678 6.229,13.924 13.883,13.924 H 152.59 c 7.655,0 13.883,-6.246 13.883,-13.924 V 0 c 0,-7.679 -6.228,-13.927 -13.883,-13.927 H 13.883 C 6.229,-13.927 0,-7.679 0,0 m 13.883,153.254 c -7.769,0 -14.087,-6.34 -14.087,-14.13 L -0.204,0 c 0,-7.793 6.318,-14.132 14.087,-14.132 H 152.59 c 7.768,0 14.089,6.339 14.089,14.132 v 139.124 c 0,7.79 -6.321,14.13 -14.089,14.13 z" /></g><g
           style="stroke-width:0.18045111"
           transform="translate(376.5645,635.9321)"
           id="g40"><path
             id="path42"
             style="fill:#7d7d7d;fill-opacity:1;fill-rule:nonzero;stroke:none;stroke-width:0.18045111"
             d="m 0,0 c 0,-7.746 -6.264,-14.024 -13.986,-14.024 h -138.707 c -7.724,0 -13.986,6.278 -13.986,14.024 v 139.126 c 0,7.747 6.262,14.027 13.986,14.027 H -13.986 C -6.264,153.153 0,146.873 0,139.126 Z" /></g><g
           style="stroke-width:0.18045111"
           transform="translate(375.8457,636.7876)"
           id="g44"><path
             id="path46"
             style="fill:#efeff0;fill-opacity:1;fill-rule:nonzero;stroke:none;stroke-width:0.18045111"
             d="m 0,0 c 0,-7.744 -6.261,-14.028 -13.984,-14.028 h -138.708 c -7.723,0 -13.986,6.284 -13.986,14.028 v 139.124 c 0,7.747 6.263,14.028 13.986,14.028 H -13.984 C -6.261,153.152 0,146.871 0,139.124 Z" /></g><g
           style="stroke-width:0.18045111"
           transform="translate(274.0303,779.7974)"
           id="g48"><path
             id="path50"
             style="fill:#dcdddd;fill-opacity:1;fill-rule:nonzero;stroke:none;stroke-width:0.18045111"
             d="m 0,0 0.107,-0.241 12.417,-28.671 0.098,-0.23 0.237,-0.084 15.943,-5.711 7.405,-15.999 0.096,-0.205 0.208,-0.087 9.6,-3.963 3.272,-7.658 -8.968,-19.672 c -2.034,0 -3.687,-1.66 -3.687,-3.7 0,-2.041 1.653,-3.699 3.687,-3.699 2.035,0 3.685,1.658 3.685,3.699 0,1.626 -1.048,3.009 -2.504,3.5 l 8.94,19.624 0.108,0.234 -0.1,0.236 -3.465,8.108 -0.095,0.217 -0.214,0.092 -9.611,3.967 -7.411,16.013 -0.101,0.221 -0.23,0.081 -15.934,5.706 L 1.27,-0.02 6.039,10.143 H 4.76 L 0.114,0.239 Z m 87.189,-47.345 c 2.035,0 3.689,1.657 3.689,3.699 0,2.039 -1.654,3.7 -3.689,3.7 -2.03,0 -3.686,-1.661 -3.686,-3.7 0,-2.042 1.656,-3.699 3.686,-3.699 m -39.618,24.285 0.223,-0.083 44.244,-16.135 1.805,-3.888 -24.432,-53.916 -0.117,-0.261 0.133,-0.252 2.308,-4.343 0.104,-0.192 0.203,-0.077 9.507,-3.589 3.074,-6.34 c -0.966,-0.67 -1.601,-1.784 -1.601,-3.049 0,-2.038 1.655,-3.698 3.688,-3.698 2.035,0 3.688,1.66 3.688,3.698 0,2.04 -1.653,3.701 -3.688,3.701 -0.365,0 -0.709,-0.055 -1.043,-0.153 l -3.18,6.556 -0.098,0.208 -0.219,0.082 -9.513,3.589 -2.077,3.904 24.425,53.897 0.109,0.242 -0.111,0.243 -2.02,4.342 -0.102,0.219 -0.227,0.082 -44.239,16.137 -15.118,32.279 h -1.276 l 15.447,-32.989 z m 2.948,31.226 c 1.409,0 2.623,0.807 3.246,1.977 h -6.489 c 0.621,-1.17 1.833,-1.977 3.243,-1.977 M 42.825,2.989 c -1.006,-0.662 -1.673,-1.801 -1.673,-3.094 0,-2.042 1.656,-3.702 3.687,-3.702 2.034,0 3.691,1.66 3.691,3.702 0,2.037 -1.657,3.7 -3.691,3.7 -0.331,0 -0.651,-0.053 -0.959,-0.136 l -1.752,4.193 1.148,2.491 H 41.999 L 40.968,7.908 40.865,7.678 40.961,7.44 Z m 11.672,-79.942 c 0,2.039 -1.656,3.697 -3.687,3.697 -2.037,0 -3.688,-1.658 -3.688,-3.697 0,-2.039 1.651,-3.699 3.688,-3.699 2.031,0 3.687,1.66 3.687,3.699 M 16.446,-14.27 c -2.036,0 -3.69,-1.66 -3.69,-3.699 0,-2.039 1.654,-3.698 3.69,-3.698 2.03,0 3.691,1.659 3.691,3.698 0,2.039 -1.661,3.699 -3.691,3.699 m 5.868,-15.216 c 2.036,0 3.691,1.657 3.691,3.698 0,2.039 -1.655,3.699 -3.691,3.699 -2.03,0 -3.684,-1.66 -3.684,-3.699 0,-2.041 1.654,-3.698 3.684,-3.698 m 25.765,21.082 0.106,-0.239 2.289,-5.198 c -0.978,-0.666 -1.62,-1.791 -1.62,-3.062 0,-2.039 1.653,-3.7 3.686,-3.7 2.034,0 3.688,1.661 3.688,3.7 0,2.038 -1.654,3.698 -3.688,3.698 -0.353,0 -0.695,-0.055 -1.017,-0.148 l -2.176,4.942 8.506,18.554 H 56.581 L 48.188,-8.165 Z m 9.87,-120.891 -9.903,22.704 12.891,29.31 0.101,0.236 -0.101,0.236 -10.977,24.33 -0.09,0.203 -0.208,0.088 -9.899,4.256 -15.211,33.682 -0.098,0.213 -0.219,0.086 -15.943,6.285 -3.268,7.645 4.814,10.164 H 8.561 L 3.869,0.239 3.758,0.004 3.86,-0.235 l 3.466,-8.112 0.095,-0.221 0.221,-0.088 15.957,-6.287 15.206,-33.668 0.091,-0.208 0.204,-0.089 9.903,-4.255 10.772,-23.886 -12.888,-29.307 -0.104,-0.228 0.101,-0.237 10.107,-23.169 0.1,-0.227 0.232,-0.085 36.672,-13.325 0.19,-0.068 0.191,0.067 7.439,2.526 v 1.225 l -7.617,-2.59 z m -12.532,38.664 c -2.032,0 -3.686,-1.66 -3.686,-3.7 0,-2.04 1.654,-3.697 3.686,-3.697 2.033,0 3.689,1.657 3.689,3.697 0,2.04 -1.656,3.7 -3.689,3.7 m 32.697,34.82 c 0,-2.04 1.655,-3.698 3.685,-3.698 2.036,0 3.69,1.658 3.69,3.698 0,2.041 -1.654,3.698 -3.69,3.698 -2.03,0 -3.685,-1.657 -3.685,-3.698 M -44.964,-99.127 c -2.034,0 -3.684,-1.659 -3.684,-3.697 0,-2.04 1.65,-3.699 3.684,-3.699 2.035,0 3.689,1.659 3.689,3.699 0,2.038 -1.654,3.697 -3.689,3.697 m 6.546,-17.051 c 2.032,0 3.689,1.657 3.689,3.698 0,2.042 -1.657,3.699 -3.689,3.699 -2.034,0 -3.686,-1.657 -3.686,-3.699 0,-2.041 1.652,-3.698 3.686,-3.698 m 16.482,-14.034 0.103,0.236 -0.101,0.235 -1.804,4.129 -0.098,0.217 -0.23,0.089 -40.796,15.425 v -1.239 l 40.162,-15.184 1.605,-3.669 -8.702,-19.532 -0.101,-0.226 0.093,-0.233 2.895,-7.069 h 1.247 l -2.98,7.282 z m -42.541,46.975 0.2,0.068 13.357,4.877 1.477,-0.236 c -0.047,-0.239 -0.071,-0.489 -0.071,-0.742 0,-2.041 1.652,-3.699 3.682,-3.699 2.036,0 3.691,1.658 3.691,3.699 0,2.041 -1.655,3.698 -3.691,3.698 -1.359,0 -2.547,-0.743 -3.185,-1.849 l -1.871,0.294 -0.148,0.021 -0.139,-0.049 -13.302,-4.853 -0.385,0.144 v -1.231 l 0.185,-0.069 z m 27.6,-63.451 c 2.033,0 3.688,1.662 3.688,3.703 0,2.038 -1.655,3.697 -3.688,3.697 -2.035,0 -3.686,-1.659 -3.686,-3.697 0,-1.406 0.784,-2.627 1.936,-3.256 l 4.416,-10.792 h 1.248 l -4.242,10.364 c 0.108,-0.01 0.217,-0.019 0.328,-0.019 m -23.269,76.494 c 0.625,-0.5 1.42,-0.804 2.285,-0.804 2.036,0 3.687,1.66 3.687,3.699 0,2.04 -1.651,3.699 -3.687,3.699 -1.771,0 -3.255,-1.261 -3.608,-2.938 l -0.049,0.132 -3.344,-1.184 v -4.709 l 4.862,1.695 z m 53.996,-58.169 -0.225,0.082 -9.304,3.607 -2.614,5.92 3.141,6.857 0.096,0.206 -0.073,0.213 -0.795,2.392 -0.088,0.266 -0.258,0.095 -12.548,4.765 -8.028,18.078 5.815,13.085 0.102,0.236 -0.102,0.234 -5.34,12.307 -0.095,0.223 -0.224,0.088 -18.774,7.239 -0.201,0.077 -0.201,-0.074 -8.996,-3.297 v -1.232 l 9.188,3.368 18.338,-7.076 5.146,-11.852 -5.816,-13.09 -0.106,-0.236 0.106,-0.232 8.229,-18.542 0.097,-0.217 0.227,-0.085 12.521,-4.754 0.634,-1.911 -3.153,-6.888 -0.108,-0.238 0.106,-0.237 2.815,-6.373 0.096,-0.221 0.223,-0.085 9.305,-3.605 12.259,-27.763 h 1.263 l -12.56,28.451 z m 3.268,10.523 0.112,0.242 -0.107,0.24 -3.612,8.109 -0.095,0.22 -0.226,0.085 -19.122,7.297 -7.158,16.192 6.097,13.086 0.112,0.239 -0.107,0.24 -6.355,14.336 -0.096,0.224 -0.228,0.084 -22.09,8.255 -0.199,0.074 -0.199,-0.074 -8.707,-3.191 v -1.232 l 8.904,3.263 21.658,-8.094 6.149,-13.871 -6.097,-13.086 -0.11,-0.24 0.106,-0.239 7.361,-16.653 0.098,-0.22 0.226,-0.086 19.122,-7.303 3.403,-7.647 -1.909,-4.101 -0.111,-0.239 0.106,-0.244 15.315,-34.859 h 1.26 l -15.412,35.088 z m -4.609,-0.43 c 0,2.04 -1.655,3.696 -3.687,3.696 -2.037,0 -3.691,-1.656 -3.691,-3.696 0,-2.041 1.654,-3.7 3.691,-3.7 2.032,0 3.687,1.659 3.687,3.7 m -1.542,-12.708 -0.214,0.089 -9.699,4.047 -1.923,3.654 -0.102,0.188 -0.198,0.077 -10.77,4.266 -0.854,1.655 2.625,5.682 0.107,0.234 -0.102,0.235 -10.727,24.962 5.959,13.09 0.108,0.236 -0.104,0.236 -4.331,9.99 -0.096,0.223 -0.226,0.091 -15.736,6.078 -0.207,0.08 -0.206,-0.077 -9.133,-3.459 v -1.238 l 9.334,3.535 15.308,-5.917 4.132,-9.53 -5.959,-13.091 -0.104,-0.234 0.102,-0.233 10.725,-24.961 -2.636,-5.701 -0.118,-0.256 0.13,-0.253 1.084,-2.101 0.097,-0.192 0.203,-0.08 10.774,-4.268 1.921,-3.647 0.095,-0.183 0.192,-0.082 9.68,-4.037 10.994,-25.163 h 1.262 l -11.294,25.844 z m -11.262,17.437 c 0,2.04 -1.652,3.699 -3.687,3.699 -2.031,0 -3.685,-1.659 -3.685,-3.699 0,-2.04 1.654,-3.701 3.685,-3.701 2.035,0 3.687,1.661 3.687,3.701 m 36.195,-9.173 6.627,14.631 0.113,0.238 -0.113,0.245 -3.849,8.398 -0.097,0.214 -0.22,0.088 -17.296,6.573 -2.493,5.634 2.983,7.204 0.093,0.223 -0.096,0.225 -1.73,4.149 -0.093,0.226 -0.232,0.09 -5.776,2.241 -1.001,1.779 9.403,20.101 0.111,0.239 -0.107,0.239 -1.057,2.412 -0.103,0.234 -0.239,0.083 -7.369,2.525 -18.841,42.102 5.976,12.764 h -1.276 l -5.863,-12.511 -0.109,-0.241 0.109,-0.244 19.054,-42.573 0.104,-0.229 0.24,-0.082 7.361,-2.526 0.852,-1.938 -9.42,-20.134 -0.126,-0.269 0.147,-0.259 1.25,-2.221 0.105,-0.182 0.191,-0.074 5.738,-2.225 1.544,-3.705 -2.988,-7.21 -0.094,-0.229 0.1,-0.228 2.697,-6.081 0.097,-0.223 0.226,-0.086 17.295,-6.575 3.642,-7.943 -6.628,-14.626 -0.106,-0.24 0.102,-0.236 13.186,-29.735 0.099,-0.221 0.228,-0.084 10.87,-4.046 h 3.321 l -13.562,5.045 z m -3.849,-0.38 5.863,13.373 0.103,0.241 -0.105,0.235 -3.658,8.108 -0.101,0.216 -0.217,0.084 -17.58,6.863 -2.506,5.859 -0.1,0.233 -0.241,0.084 -9.556,3.293 -0.692,1.924 9.428,20.154 0.112,0.239 -0.107,0.239 -1.732,3.958 -0.095,0.222 -0.225,0.086 -11.022,4.253 -1.457,3.781 6.444,14.164 0.106,0.233 -0.102,0.239 -14.042,32.289 6.163,12.867 h -1.283 l -6.037,-12.603 -0.117,-0.24 0.109,-0.243 14.046,-32.296 -6.44,-14.149 -0.099,-0.225 0.086,-0.228 1.637,-4.246 0.093,-0.239 0.238,-0.092 11.038,-4.261 1.53,-3.493 -9.418,-20.13 -0.102,-0.219 0.083,-0.226 0.864,-2.411 0.097,-0.265 0.258,-0.09 9.577,-3.297 2.496,-5.84 0.098,-0.224 0.228,-0.09 17.582,-6.866 3.456,-7.66 -5.864,-13.372 -0.103,-0.236 0.106,-0.238 14.051,-31.661 0.096,-0.219 0.224,-0.087 4.491,-1.73 h 3.211 l -7.065,2.724 z m -21.852,30.499 c 0,2.039 -1.654,3.702 -3.685,3.702 -2.035,0 -3.69,-1.663 -3.69,-3.702 0,-2.039 1.655,-3.693 3.69,-3.693 2.031,0 3.685,1.654 3.685,3.693 m 1.992,8.565 c 2.035,0 3.688,1.657 3.688,3.697 0,2.041 -1.653,3.699 -3.688,3.699 -2.035,0 -3.688,-1.658 -3.688,-3.699 0,-2.04 1.653,-3.697 3.688,-3.697 m 1.954,33.144 c 0,2.041 -1.654,3.695 -3.686,3.695 -2.034,0 -3.688,-1.654 -3.688,-3.695 0,-2.042 1.654,-3.699 3.688,-3.699 2.032,0 3.686,1.657 3.686,3.699 m -9.56,-15.863 c 2.033,0 3.691,1.656 3.691,3.698 0,2.037 -1.658,3.699 -3.691,3.699 -2.032,0 -3.686,-1.662 -3.686,-3.699 0,-2.042 1.654,-3.698 3.686,-3.698 m -0.376,-72.79 c 0.942,0.678 1.564,1.776 1.564,3.02 0,2.041 -1.658,3.7 -3.689,3.7 -2.035,0 -3.688,-1.659 -3.688,-3.7 0,-2.042 1.653,-3.7 3.688,-3.7 0.378,0 0.743,0.06 1.088,0.168 l 2.038,-5.115 -5.45,-11.867 h 1.27 l 5.331,11.61 0.107,0.226 -0.094,0.23 z m -23.855,5.353 5.37,2.337 c 0.616,-1.182 1.85,-1.997 3.272,-1.997 2.034,0 3.685,1.66 3.685,3.7 0,2.042 -1.651,3.7 -3.685,3.7 -2.036,0 -3.689,-1.658 -3.689,-3.7 0,-0.205 0.021,-0.405 0.053,-0.597 l -5.666,-2.468 -0.2,-0.086 -0.095,-0.195 -4.69,-9.994 -0.111,-0.236 0.102,-0.236 5.655,-13.075 h 1.26 l -5.75,13.29 z m 47.747,10.802 5.772,13.378 0.096,0.231 -0.096,0.223 -2.598,6.182 -0.098,0.232 -0.24,0.086 -16.17,5.796 -0.188,0.064 -0.188,-0.062 -6.743,-2.254 -7.566,2.745 -5.281,11.985 6.049,12.988 0.109,0.233 -0.098,0.243 -7.888,18.39 8.065,17.044 0.117,0.239 -0.108,0.245 -14.328,32.191 6.338,13.348 h -1.281 l -6.214,-13.089 -0.115,-0.244 0.108,-0.243 14.329,-32.192 -8.065,-17.039 -0.114,-0.237 0.104,-0.241 7.884,-18.393 -6.049,-12.99 -0.111,-0.241 0.107,-0.241 5.485,-12.455 0.1,-0.225 0.232,-0.08 7.99,-2.897 0.189,-0.069 0.191,0.065 6.738,2.253 15.744,-5.639 2.404,-5.717 -5.772,-13.385 -0.102,-0.237 0.104,-0.23 14.762,-33.41 h 1.55 l -0.34,0.125 z m -54.973,109.388 0.107,-0.244 5.196,-11.875 0.09,-0.204 0.209,-0.093 5.327,-2.345 c -0.123,-0.369 -0.194,-0.767 -0.194,-1.181 0,-2.041 1.654,-3.701 3.689,-3.701 2.031,0 3.687,1.66 3.687,3.701 0,2.04 -1.656,3.7 -3.687,3.7 -1.209,0 -2.281,-0.591 -2.953,-1.491 l -5.2,2.289 -5.001,11.421 11.456,24.162 h -1.279 L -46.759,-13.76 Z m 7.161,7.897 0.024,-0.177 0.352,-2.286 c -1.34,-0.554 -2.289,-1.877 -2.289,-3.418 0,-2.041 1.655,-3.701 3.686,-3.701 2.035,0 3.69,1.66 3.69,3.701 0,2.039 -1.655,3.698 -3.69,3.698 -0.088,0 -0.181,-0.01 -0.269,-0.017 l -0.311,2.023 7.853,16.419 h -1.282 l -7.688,-16.081 z m 1.839,-14.474 c 0,-2.038 1.658,-3.7 3.689,-3.7 2.036,0 3.688,1.662 3.688,3.7 0,2.038 -1.652,3.697 -3.688,3.697 -2.031,0 -3.689,-1.659 -3.689,-3.697 m 60.224,-50.975 5.953,12.791 0.11,0.237 -0.109,0.245 -7.508,16.797 -0.098,0.222 -0.228,0.085 -15.363,5.707 -15.387,34.289 5.431,11.318 h -1.282 l -5.305,-11.059 -0.117,-0.246 0.11,-0.242 15.594,-34.753 0.098,-0.222 0.229,-0.087 15.365,-5.708 7.3,-16.333 -5.953,-12.793 -0.111,-0.243 0.109,-0.243 28.297,-62.269 0.101,-0.216 0.224,-0.084 48.477,-17.945 c 0.269,0.304 0.523,0.621 0.767,0.95 l -48.619,17.996 z m -3.861,-0.048 -0.102,0.215 -0.222,0.088 -9.58,3.674 -1.543,3.872 8.26,17.148 0.132,0.264 -0.142,0.26 -2.308,4.343 -0.102,0.189 -0.198,0.077 -10.752,4.259 -15.967,35.744 5.408,11.606 H -9.9 l -5.289,-11.355 -0.114,-0.239 0.11,-0.242 16.17,-36.203 0.095,-0.213 0.219,-0.09 10.773,-4.265 2.074,-3.897 -8.247,-17.115 -0.113,-0.226 0.097,-0.237 1.735,-4.345 0.091,-0.236 0.237,-0.089 9.595,-3.68 29.067,-64.368 0.096,-0.221 0.226,-0.084 48.036,-18.101 c 0.408,0.246 0.803,0.51 1.188,0.792 l -48.594,18.309 z M -9.64,-149.231 c -2.03,0 -3.688,-1.658 -3.688,-3.701 0,-2.037 1.658,-3.695 3.688,-3.695 0.311,0 0.607,0.042 0.896,0.112 l 0.225,-0.518 h 1.26 l -0.425,0.972 c 1.037,0.657 1.731,1.812 1.731,3.129 0,2.043 -1.652,3.701 -3.687,3.701 m 22.884,88.399 c 0,-2.041 1.653,-3.699 3.684,-3.699 2.035,0 3.69,1.658 3.69,3.699 0,2.039 -1.655,3.698 -3.69,3.698 -2.031,0 -3.684,-1.659 -3.684,-3.698 m 13.144,-10.124 5.677,13.669 0.102,0.233 -0.107,0.228 -8.086,17.955 -0.102,0.23 -0.24,0.08 -15.924,5.422 -13.946,32.253 5.075,11.029 H -2.437 L -7.395,-0.634 -7.504,-0.871 -7.4,-1.109 6.748,-33.835 l 0.101,-0.237 0.243,-0.081 15.932,-5.423 7.881,-17.497 -5.677,-13.668 -0.099,-0.234 0.102,-0.23 27.142,-59.953 0.1,-0.215 0.219,-0.082 47.394,-18.307 c 0.187,0.339 0.352,0.691 0.509,1.044 l -47.268,18.257 z M 9.354,-85.158 c 0,2.04 -1.653,3.697 -3.689,3.697 -2.032,0 -3.687,-1.657 -3.687,-3.697 0,-2.044 1.655,-3.699 3.687,-3.699 2.036,0 3.689,1.655 3.689,3.699 m 28.075,17.539 c 2.035,0 3.69,1.66 3.69,3.7 0,2.037 -1.655,3.696 -3.69,3.696 -2.031,0 -3.686,-1.659 -3.686,-3.696 0,-2.04 1.655,-3.7 3.686,-3.7 m 32.631,-81.706 c -1.844,0 -3.368,-1.361 -3.645,-3.133 l -3.612,-0.087 h -0.091 l -0.088,-0.027 -11.643,-4.082 -19.119,7.178 -12.207,27.148 6.723,14.432 0.109,0.24 -0.107,0.241 -13.955,31.184 -0.101,0.221 -0.224,0.085 -12.371,4.641 -1.73,4.165 8.645,18.107 0.11,0.231 -0.096,0.237 -0.962,2.412 -0.092,0.235 -0.234,0.087 -9.115,3.583 -17.796,39.991 5.795,12.379 h -1.278 l -5.673,-12.125 -0.111,-0.242 0.105,-0.242 18,-40.448 0.096,-0.219 0.22,-0.087 9.105,-3.576 0.774,-1.945 -8.649,-18.112 -0.112,-0.234 0.102,-0.24 1.923,-4.634 0.095,-0.229 0.234,-0.09 12.384,-4.647 13.748,-30.72 -6.722,-14.432 -0.109,-0.242 0.107,-0.243 12.417,-27.61 0.1,-0.219 0.225,-0.084 17.467,-6.556 h 4.694 l 9.523,3.336 3.504,0.083 c 0.281,-1.762 1.802,-3.111 3.637,-3.111 2.033,0 3.688,1.659 3.688,3.7 0,2.041 -1.655,3.7 -3.688,3.7 m -31.315,6.438 c 0,-2.044 1.656,-3.701 3.688,-3.701 2.035,0 3.689,1.657 3.689,3.701 0,2.037 -1.654,3.697 -3.689,3.697 -2.032,0 -3.688,-1.66 -3.688,-3.697 m -7.349,23.264 c 0,2.039 -1.659,3.699 -3.686,3.699 -2.037,0 -3.691,-1.66 -3.691,-3.699 0,-2.041 1.654,-3.699 3.691,-3.699 2.027,0 3.686,1.658 3.686,3.699 m -1.858,-13.258 c 2.029,0 3.685,1.662 3.685,3.7 0,2.042 -1.656,3.699 -3.685,3.699 -2.036,0 -3.687,-1.657 -3.687,-3.699 0,-2.038 1.651,-3.7 3.687,-3.7 m -48.788,130.946 0.113,-0.241 17.322,-38.424 0.102,-0.222 0.225,-0.082 10.72,-3.962 0.695,-1.933 -9.236,-19.672 -0.115,-0.243 0.112,-0.246 1.156,-2.509 0.101,-0.218 0.222,-0.083 12.189,-4.549 24.916,-56.314 -5.668,-13.087 -0.105,-0.238 0.11,-0.237 2.022,-4.344 0.101,-0.221 0.227,-0.08 9.817,-3.476 0.193,-0.065 0.189,0.063 6.945,2.41 c 0.654,-1.02 1.794,-1.703 3.093,-1.703 2.035,0 3.69,1.66 3.69,3.704 0,2.042 -1.655,3.696 -3.69,3.696 -2.031,0 -3.687,-1.654 -3.687,-3.696 0,-0.323 0.048,-0.635 0.124,-0.933 l -6.661,-2.318 -9.397,3.33 -1.808,3.887 5.668,13.083 0.101,0.231 -0.101,0.236 -25.122,56.765 -0.098,0.224 -0.23,0.086 -12.191,4.548 -0.94,2.049 9.217,19.643 0.106,0.215 -0.085,0.226 -0.864,2.413 -0.092,0.254 -0.252,0.093 -10.745,3.971 -17.116,37.96 5.728,12.087 h -1.278 l -5.607,-11.834 z m 15.208,1.061 0.111,-0.243 13.571,-30.121 0.095,-0.21 0.216,-0.087 15.679,-6.289 7.698,-15.444 0.093,-0.192 0.194,-0.082 9.32,-3.966 2.589,-5.909 -5.177,-10.064 c -0.6,1.217 -1.853,2.062 -3.301,2.062 -2.033,0 -3.686,-1.661 -3.686,-3.698 0,-2.042 1.653,-3.702 3.686,-3.702 1.981,0 3.597,1.576 3.679,3.548 l 5.953,11.569 0.124,0.246 -0.111,0.252 -2.791,6.372 -0.092,0.212 -0.211,0.09 -9.334,3.968 -7.7,15.454 -0.097,0.192 -0.203,0.085 -15.67,6.283 L -2.77,-0.883 2.359,10.143 H 1.084 L -3.93,-0.631 Z m 91.977,-11.797 c -0.65,1.069 -1.815,1.783 -3.151,1.783 -2.035,0 -3.685,-1.657 -3.685,-3.699 0,-2.039 1.65,-3.698 3.685,-3.698 2.034,0 3.686,1.659 3.686,3.698 0,0.29 -0.035,0.571 -0.1,0.844 l 6.051,2.633 0.199,0.088 0.093,0.195 5.823,12.39 0.156,0.064 c -0.152,0.356 -0.324,0.704 -0.504,1.048 L 99.896,2.559 99.685,2.473 99.587,2.265 93.761,-10.134 Z m -13.176,4.941 0.058,-0.132 c -0.632,1.13 -1.838,1.899 -3.22,1.899 -2.032,0 -3.688,-1.662 -3.688,-3.701 0,-2.039 1.656,-3.697 3.688,-3.697 2.034,0 3.689,1.658 3.689,3.697 0,0.39 -0.06,0.765 -0.174,1.118 l 0.108,-0.248 6.643,2.896 0.196,0.087 0.093,0.194 7.441,15.637 c -0.406,0.05 -0.821,0.08 -1.237,0.095 L 81.204,-4.922 Z m 26.05,-94.1 0.058,0.207 -0.09,0.197 -1.589,3.48 -0.095,0.207 -0.211,0.086 -10.11,4.056 -0.193,0.078 -0.201,-0.069 -6.443,-2.152 c -0.656,1.034 -1.807,1.73 -3.116,1.73 -2.036,0 -3.687,-1.661 -3.687,-3.701 0,-2.039 1.651,-3.697 3.687,-3.697 2.034,0 3.686,1.658 3.686,3.697 0,0.315 -0.041,0.612 -0.112,0.902 l 6.151,2.057 9.695,-3.892 1.399,-3.068 -1.377,-4.714 -0.066,-0.212 0.094,-0.199 3.526,-7.489 v 2.714 l -2.388,5.07 z m -4.732,-1.092 c 0,2.038 -1.656,3.697 -3.688,3.697 -2.032,0 -3.689,-1.659 -3.689,-3.697 0,-2.041 1.657,-3.7 3.689,-3.7 0.394,0 0.777,0.066 1.132,0.18 l 8.294,-17.7 v 2.731 l -7.263,15.503 c 0.921,0.67 1.525,1.759 1.525,2.986 m -51.111,58.725 0.221,-0.087 9.594,-3.679 12.79,-28.218 -11.734,-26.406 -0.106,-0.242 0.114,-0.239 8.343,-17.87 c -0.324,-0.549 -0.511,-1.187 -0.511,-1.87 0,-2.042 1.655,-3.696 3.687,-3.696 2.035,0 3.688,1.654 3.688,3.696 0,2.037 -1.653,3.7 -3.688,3.7 -0.894,0 -1.716,-0.324 -2.355,-0.86 l -8.008,17.149 11.73,26.403 0.107,0.239 -0.107,0.24 -12.996,28.669 -0.097,0.218 -0.223,0.083 -9.596,3.68 -24.257,53.43 h -1.27 L 44.866,-43.98 Z m 2.888,2.316 0.221,-0.085 9.597,-3.678 13.654,-29.962 -11.45,-26.699 -0.101,-0.24 0.113,-0.237 6.061,-12.744 0.099,-0.205 0.213,-0.083 10.75,-4.257 2.061,-4.628 c -1.038,-0.657 -1.727,-1.812 -1.727,-3.129 0,-2.042 1.654,-3.7 3.689,-3.7 2.029,0 3.685,1.658 3.685,3.7 0,2.041 -1.656,3.698 -3.685,3.698 -0.314,0 -0.609,-0.04 -0.898,-0.116 l -2.162,4.859 -0.098,0.216 -0.221,0.089 -10.758,4.259 -5.853,12.301 11.441,26.693 0.104,0.238 -0.106,0.233 -13.863,30.408 -0.096,0.216 -0.218,0.085 -9.599,3.683 -23.378,51.109 H 24.06 l 23.693,-51.808 z m 6.677,36.947 c 0,-2.039 1.656,-3.697 3.689,-3.697 2.029,0 3.687,1.658 3.687,3.697 0,0.262 -0.027,0.519 -0.082,0.762 l 5.172,2.331 0.195,0.085 0.092,0.198 5.42,11.701 H 71.43 L 66.329,-0.874 61.407,-3.088 c -0.637,1.109 -1.824,1.854 -3.187,1.854 -2.033,0 -3.689,-1.66 -3.689,-3.7 m 22.554,3.737 c 2.031,0 3.686,1.659 3.686,3.698 0,1.011 -0.407,1.924 -1.061,2.591 l 2.388,5.051 H 80.819 L 78.76,5.792 c -0.503,0.259 -1.073,0.409 -1.675,0.409 -2.033,0 -3.689,-1.661 -3.689,-3.7 0,-2.039 1.656,-3.698 3.689,-3.698 M 99.96,-7.153 c 0,-1.368 0.754,-2.55 1.855,-3.191 v 6.395 C 100.709,-4.586 99.96,-5.783 99.96,-7.153 M 63.708,3.531 c 2.03,0 3.682,1.66 3.682,3.697 0,1.187 -0.557,2.239 -1.423,2.915 H 61.458 C 60.589,9.467 60.019,8.419 60.019,7.228 c 0,-2.037 1.654,-3.697 3.689,-3.697 m 22.969,-5.858 c 0,-2.04 1.656,-3.7 3.69,-3.7 2.03,0 3.685,1.66 3.685,3.7 0,1.186 -0.563,2.243 -1.43,2.921 l 2.862,6.045 1.046,0.446 C 96.177,7.367 95.813,7.631 95.437,7.879 L 94.832,7.617 94.63,7.533 94.534,7.336 91.608,1.15 c -0.388,0.141 -0.806,0.221 -1.241,0.221 -2.034,0 -3.69,-1.66 -3.69,-3.698 m -35.936,-37.244 0.231,-0.081 11.263,-4.057 0.187,-0.066 0.191,0.064 2.402,0.805 8.837,-3.324 1.801,-3.612 -5.674,-13.367 -0.097,-0.235 0.109,-0.237 5.377,-11.635 -9.714,-22.354 -0.104,-0.232 0.104,-0.233 4.331,-9.846 0.022,0.007 c -0.41,-0.594 -0.651,-1.315 -0.651,-2.089 0,-2.044 1.654,-3.703 3.689,-3.703 2.03,0 3.685,1.659 3.685,3.703 0,2.042 -1.655,3.694 -3.685,3.694 -0.821,0 -1.572,-0.273 -2.187,-0.724 l -4.045,9.195 9.717,22.357 0.102,0.237 -0.109,0.236 -5.379,11.64 5.675,13.377 0.108,0.245 -0.122,0.241 -2.021,4.056 -0.101,0.202 -0.213,0.083 -9.241,3.475 -0.19,0.07 -0.194,-0.066 -2.408,-0.806 -10.844,3.907 -21.99,48.787 h -1.272 l 22.313,-49.49 z m -46.18,-78.287 c 1.735,0.296 3.061,1.815 3.061,3.641 0,2.039 -1.653,3.697 -3.689,3.697 -2.033,0 -3.69,-1.658 -3.69,-3.697 0,-0.664 0.177,-1.28 0.483,-1.819 l -2.83,-6.626 15.166,-34.371 h 4.521 l -15.07,34.661 z M -50.928,-3.747 c -2.034,0 -3.691,-1.658 -3.691,-3.699 0,-2.037 1.657,-3.698 3.691,-3.698 2.032,0 3.686,1.661 3.686,3.698 0,2.041 -1.654,3.699 -3.686,3.699 m -8.657,-5.24 0.122,-0.251 1.153,-2.414 0.102,-0.21 0.214,-0.08 7.382,-2.813 9.719,-21.792 0.093,-0.212 0.22,-0.088 4.413,-1.751 c -0.042,-0.23 -0.069,-0.465 -0.069,-0.708 0,-2.035 1.658,-3.692 3.691,-3.692 2.033,0 3.686,1.657 3.686,3.692 0,2.04 -1.653,3.703 -3.686,3.703 -1.386,0 -2.593,-0.772 -3.225,-1.908 l -4.166,1.656 -9.722,21.796 -0.097,0.218 -0.224,0.086 -7.388,2.813 -0.934,1.954 9.301,19.131 h -1.287 l -9.174,-18.877 z m 14.429,9.717 c 2.034,0 3.69,1.66 3.69,3.699 0,2.039 -1.656,3.7 -3.69,3.7 -2.035,0 -3.685,-1.661 -3.685,-3.7 0,-2.039 1.65,-3.699 3.685,-3.699 m 25.538,-148.544 c 0,2.043 -1.653,3.7 -3.686,3.7 -2.035,0 -3.689,-1.657 -3.689,-3.7 0,-2.041 1.654,-3.697 3.689,-3.697 0.358,0 0.709,0.056 1.041,0.15 l 0.401,-1.04 -2.128,-4.632 h 1.272 l 2.005,4.37 0.104,0.226 -0.088,0.224 -0.522,1.353 c 0.967,0.664 1.601,1.783 1.601,3.046 M 70.22,-38.819 c 0,-2.038 1.654,-3.701 3.688,-3.701 2.034,0 3.689,1.663 3.689,3.701 0,2.039 -1.655,3.699 -3.689,3.699 -2.034,0 -3.688,-1.66 -3.688,-3.699 m -15.305,4.152 c 0,-2.042 1.656,-3.698 3.686,-3.698 2.036,0 3.689,1.656 3.689,3.698 0,2.039 -1.653,3.697 -3.689,3.697 -2.03,0 -3.686,-1.658 -3.686,-3.697 m 17.002,-16.219 c 0,2.041 -1.652,3.697 -3.688,3.697 -2.033,0 -3.687,-1.656 -3.687,-3.697 0,-2.042 1.654,-3.699 3.687,-3.699 2.036,0 3.688,1.657 3.688,3.699 m 25.35,2.218 c 0,-2.037 1.652,-3.697 3.687,-3.697 0.298,0 0.584,0.045 0.861,0.112 v 7.175 c -0.279,0.064 -0.563,0.111 -0.861,0.111 -2.035,0 -3.687,-1.66 -3.687,-3.701 M 12.882,-6.314 c 2.036,0 3.69,1.656 3.69,3.695 0,2.04 -1.654,3.698 -3.69,3.698 -2.033,0 -3.685,-1.658 -3.685,-3.698 0,-2.039 1.652,-3.695 3.685,-3.695 m 29.488,-40.205 0.227,-0.084 9.299,-3.39 11.636,-26.188 -12.892,-29.885 -0.104,-0.242 0.108,-0.234 9.529,-20.851 0.098,-0.216 0.22,-0.085 24.255,-9.268 0.198,-0.075 0.2,0.069 6.488,2.294 c 0.618,-1.17 1.846,-1.972 3.26,-1.972 2.031,0 3.686,1.663 3.686,3.701 0,2.041 -1.655,3.696 -3.686,3.696 -2.034,0 -3.686,-1.655 -3.686,-3.696 0,-0.218 0.02,-0.427 0.055,-0.633 l -6.301,-2.225 -23.838,9.108 -9.322,20.402 12.892,29.885 0.1,0.235 -0.1,0.232 -11.843,26.644 -0.096,0.223 -0.234,0.083 -9.299,3.396 -25.528,55.738 h -1.273 l 25.85,-56.441 z m -102.667,27.2 c 0,-2.039 1.655,-3.699 3.689,-3.699 2.035,0 3.688,1.66 3.688,3.699 0,2.04 -1.653,3.702 -3.688,3.702 -2.034,0 -3.689,-1.662 -3.689,-3.702 m -1.025,-77.181 0.193,-0.058 0.183,0.074 8.9,3.524 c 0.323,-0.094 0.666,-0.145 1.02,-0.145 2.032,0 3.688,1.659 3.688,3.699 0,2.038 -1.656,3.701 -3.688,3.701 -2.035,0 -3.685,-1.663 -3.685,-3.701 0,-1.142 0.513,-2.16 1.322,-2.839 l -7.793,-3.086 -2.91,0.881 -0.183,0.056 -0.182,-0.065 -0.405,-0.146 v -1.232 l 0.62,0.221 z m 6.063,-4.556 c -2.036,0 -3.691,-1.662 -3.691,-3.701 0,-2.037 1.655,-3.697 3.691,-3.697 2.033,0 3.687,1.66 3.687,3.697 0,2.039 -1.654,3.701 -3.687,3.701 m 5.634,28.326 0.099,0.197 1.207,2.364 c 0.334,-0.098 0.684,-0.153 1.048,-0.153 2.033,0 3.688,1.659 3.688,3.697 0,2.042 -1.655,3.701 -3.688,3.701 -2.034,0 -3.691,-1.659 -3.691,-3.701 0,-1.26 0.636,-2.377 1.603,-3.044 l -1.092,-2.139 -14.411,-5.531 v -1.242 l 15.03,5.77 z m -5.23,82.288 c -2.067,-0.614 -3.927,-1.7 -5.474,-3.127 0.535,-0.298 1.141,-0.486 1.795,-0.486 2.004,0 3.633,1.613 3.679,3.613 M -60.527,-2.33 c 0,1.916 -1.458,3.485 -3.32,3.671 -0.65,-1.617 -1.015,-3.377 -1.015,-5.227 v -2.076 c 0.209,-0.039 0.426,-0.065 0.648,-0.065 2.032,0 3.687,1.658 3.687,3.697 m -1.089,-90.391 c 2.033,0 3.69,1.66 3.69,3.701 0,2.039 -1.657,3.7 -3.69,3.7 -1.411,0 -2.624,-0.81 -3.246,-1.985 v -4.53 l 0.601,0.242 c 0.669,-0.69 1.608,-1.128 2.645,-1.128 m 8.112,-36.471 5.602,2.284 c 0.628,-1.141 1.84,-1.919 3.228,-1.919 2.034,0 3.69,1.659 3.69,3.7 0,2.038 -1.656,3.7 -3.69,3.7 -2.034,0 -3.688,-1.662 -3.688,-3.7 0,-0.232 0.027,-0.465 0.069,-0.689 l -5.862,-2.392 -0.214,-0.089 -0.095,-0.208 -4.113,-9.122 -0.106,-0.229 0.098,-0.238 7.912,-18.939 h 1.254 l -8.003,19.156 z m -4.452,5.581 c 2.033,0 3.687,1.657 3.687,3.698 0,2.038 -1.654,3.702 -3.687,3.702 -2.034,0 -3.687,-1.664 -3.687,-3.702 0,-0.317 0.043,-0.625 0.118,-0.914 L -64.862,-122 v -1.229 l 3.798,1.335 c 0.656,-1.033 1.801,-1.717 3.108,-1.717 m -3.569,-12.029 -0.025,0.009 c 0.911,0.672 1.507,1.756 1.507,2.974 0,2.041 -1.653,3.701 -3.688,3.701 -0.396,0 -0.775,-0.082 -1.131,-0.196 v -7.008 c 0.356,-0.115 0.735,-0.196 1.131,-0.196 0.329,0 0.647,0.049 0.953,0.129 l -0.538,-3.584 -0.023,-0.16 0.064,-0.152 6.672,-15.678 c 0.492,-0.218 0.992,-0.418 1.507,-0.581 l -7.052,16.566 z m 16.052,92.185 c 0,-2.038 1.656,-3.698 3.687,-3.698 2.032,0 3.689,1.66 3.689,3.698 0,2.04 -1.657,3.7 -3.689,3.7 -2.031,0 -3.687,-1.66 -3.687,-3.7 m -16.11,-59.081 c 0,1.899 -1.44,3.452 -3.279,3.656 v -7.313 c 1.839,0.208 3.279,1.759 3.279,3.657 m 140.978,79.58 c -2.035,0 -3.689,-1.658 -3.689,-3.696 0,-2.042 1.654,-3.702 3.689,-3.702 2.033,0 3.688,1.66 3.688,3.702 0,2.038 -1.655,3.696 -3.688,3.696 m 18.959,7.434 c -2.035,0 -3.686,-1.661 -3.686,-3.698 0,-2.04 1.651,-3.699 3.686,-3.699 1.602,0 2.953,1.033 3.461,2.462 v 3.129 l -0.242,-0.099 c -0.631,1.136 -1.834,1.905 -3.219,1.905 m 1.51,-62.686 c 0,-1.408 0.795,-2.619 1.951,-3.241 v 6.483 c -1.156,-0.625 -1.951,-1.836 -1.951,-3.242 m -2.389,14.413 c 0.901,0.677 1.489,1.753 1.489,2.963 0,2.039 -1.654,3.698 -3.689,3.698 -2.036,0 -3.688,-1.659 -3.688,-3.698 0,-2.041 1.652,-3.699 3.688,-3.699 0.412,0 0.81,0.074 1.179,0.199 l 2.275,-4.436 0.102,-0.193 0.203,-0.082 2.781,-1.083 v 1.24 l -2.16,0.842 z m 4.204,-25.934 c -0.342,1.687 -1.834,2.963 -3.613,2.963 -2.032,0 -3.688,-1.663 -3.688,-3.705 0,-2.04 1.656,-3.694 3.688,-3.694 1.589,0 2.939,1.009 3.458,2.42 l 0.291,-0.528 v 2.4 l -0.091,0.166 z m -35.761,71.504 c -2.032,0 -3.689,-1.661 -3.689,-3.7 0,-2.04 1.657,-3.7 3.689,-3.7 2.033,0 3.686,1.66 3.686,3.7 0,2.039 -1.653,3.7 -3.686,3.7 M -46.471,-137.868 c 0,2.039 -1.658,3.697 -3.688,3.697 -2.034,0 -3.688,-1.658 -3.688,-3.697 0,-1.601 1.018,-2.961 2.438,-3.478 l 6.366,-15.687 h 1.247 l -6.28,15.469 c 1.994,0.045 3.605,1.683 3.605,3.696 m -18.391,95.461 v -2.284 c 0.119,0.361 0.199,0.74 0.199,1.14 0,0.402 -0.08,0.782 -0.199,1.144 m 5.975,11.02 c 0,2.042 -1.655,3.699 -3.69,3.699 -0.868,0 -1.654,-0.313 -2.285,-0.817 v -5.772 c 0.63,-0.503 1.421,-0.809 2.285,-0.809 2.035,0 3.69,1.659 3.69,3.699 m 27.909,-24.592 6.823,-15.56 -6.053,-13.281 -0.107,-0.233 0.104,-0.237 6.254,-14.674 0.101,-0.233 0.237,-0.085 18.184,-6.459 c 0.375,-1.64 1.845,-2.874 3.594,-2.874 2.031,0 3.685,1.662 3.685,3.699 0,2.041 -1.654,3.7 -3.685,3.7 -1.889,0 -3.45,-1.435 -3.662,-3.272 l -17.492,6.214 -6.056,14.203 6.054,13.285 0.108,0.238 -0.105,0.236 -7.024,16.025 -0.099,0.226 -0.23,0.082 -25.314,9.369 -0.2,0.071 -0.197,-0.071 -8.804,-3.176 v -1.23 l 8.997,3.244 z M 83.53,-154.54 c -1.61,0 -2.968,-1.049 -3.467,-2.493 h 6.942 c -0.5,1.444 -1.859,2.493 -3.475,2.493 m -140.065,126.052 3.367,-7.143 0.152,0.172 c -0.038,-0.214 -0.062,-0.435 -0.062,-0.659 0,-2.038 1.654,-3.697 3.686,-3.697 2.036,0 3.691,1.659 3.691,3.697 0,2.04 -1.655,3.701 -3.691,3.701 -0.393,0 -0.769,-0.064 -1.126,-0.179 l 0.047,0.052 -3.275,6.471 -8.082,3.283 -1.156,2.797 2.598,5.696 -2.598,5.889 -1.878,0.707 v -5.001 l 0.818,-1.692 -0.818,-1.764 v -7.472 l 0.818,-1.673 z m 149.565,-52.765 -0.21,-0.085 -5.453,-2.184 c -0.621,1.168 -1.845,1.966 -3.257,1.966 -2.031,0 -3.685,-1.656 -3.685,-3.699 0,-2.043 1.654,-3.7 3.685,-3.7 2.036,0 3.689,1.657 3.689,3.7 0,0.215 -0.022,0.425 -0.057,0.631 l 5.299,2.127 8.774,-3.282 v 1.235 l -8.578,3.213 z" /></g><g
           style="stroke-width:0.18045111"
           id="g52"><g
             style="stroke-width:0.18045111"
             id="g54" /><g
             style="stroke-width:0.18045111"
             id="g66"><g
               style="stroke-width:0.18045111"
               id="g64"
               clip-path="url(#clipPath58)"><g
                 style="stroke-width:0.18045111"
                 id="g62"
                 transform="translate(223.3281,649.6675)"><path
                   id="path60"
                   style="fill:#efeff0;fill-opacity:1;fill-rule:nonzero;stroke:none;stroke-width:0.18045111"
                   d="m 0,0 v 113.021 c 0,3.414 1.327,6.626 3.734,9.042 2.408,2.414 5.611,3.743 9.016,3.743 h 112.68 c 7.029,0 12.749,-5.734 12.749,-12.785 V 0 c 0,-7.048 -5.72,-12.786 -12.749,-12.786 H 12.75 C 5.719,-12.786 0,-7.048 0,0" /></g></g></g></g><g
           style="stroke-width:0.18045111"
           transform="translate(223.6367,649.6675)"
           id="g68"><path
             id="path70"
             style="fill:#898989;fill-opacity:1;fill-rule:nonzero;stroke:none;stroke-width:0.18045111"
             d="m 0,0 v 113.021 c 0,3.333 1.294,6.465 3.645,8.821 2.349,2.358 5.472,3.657 8.796,3.657 h 112.68 c 6.861,0 12.442,-5.6 12.442,-12.478 L 137.563,0 c 0,-6.878 -5.581,-12.476 -12.442,-12.476 H 12.441 C 5.58,-12.476 0,-6.878 0,0 m 12.441,126.115 c -3.489,0 -6.765,-1.361 -9.232,-3.835 -2.466,-2.47 -3.825,-5.761 -3.825,-9.259 L -0.616,0 c 0,-7.22 5.856,-13.096 13.057,-13.096 h 112.68 c 7.2,0 13.057,5.876 13.057,13.096 v 113.021 c 0,7.222 -5.857,13.094 -13.057,13.094 z" /></g><g
           style="stroke-width:0.18045111"
           id="g72"><g
             style="stroke-width:0.18045111"
             id="g74" /><g
             style="stroke-width:0.18045111"
             id="g118"><g
               style="opacity:0.44999701;stroke-width:0.18045111"
               id="g116"
               clip-path="url(#clipPath78)"><g
                 style="stroke-width:0.18045111"
                 id="g114"><g
                   style="stroke-width:0.18045111"
                   id="g98" /><g
                   style="stroke-width:0.18045111"
                   id="g112"><g
                     style="opacity:0.69999701;stroke-width:0.18045111"
                     id="g110"
                     clip-path="url(#clipPath82)"><g
                       style="stroke-width:0.18045111"
                       id="g108"><g
                         style="stroke-width:0.18045111"
                         id="g106"
                         clip-path="url(#clipPath86)"><g
                           style="stroke-width:0.18045111"
                           id="g104"><g
                             style="stroke-width:0.18045111"
                             id="g102"><path
                               id="path100"
                               style="fill:url(#linearGradient96);stroke:none;stroke-width:0.18045111"
                               d="m 357.843,653.832 c 0,-6.85 -5.538,-12.404 -12.367,-12.404 H 239.327 c -6.831,0 -11.456,5.554 -11.456,12.404 l 0.008,106.037 c 0,6.851 4.58,11.185 12.168,11.185 l 105.181,0.11 c 6.829,0 12.615,-4.444 12.615,-11.295 z" /></g></g></g></g></g></g></g></g></g></g><g
           style="stroke-width:0.18045111"
           id="g120"><g
             style="stroke-width:0.18045111"
             id="g122" /><g
             style="stroke-width:0.18045111"
             id="g152"><g
               style="stroke-width:0.18045111"
               id="g150"
               clip-path="url(#clipPath126)"><g
                 style="stroke-width:0.18045111"
                 id="g148"><g
                   style="stroke-width:0.18045111"
                   id="g146"
                   clip-path="url(#clipPath130)"><g
                     style="stroke-width:0.18045111"
                     id="g144"><g
                       style="stroke-width:0.18045111"
                       id="g142"><path
                         id="path140"
                         style="fill:url(#linearGradient138);stroke:none;stroke-width:0.18045111"
                         d="m 361.294,689.253 v 1.1 h -38.64 c -0.273,0.012 -2.406,0.012 -3.679,-0.682 -1.107,-0.605 -14.018,-6.102 -20.686,-8.93 l -0.051,-0.02 -0.062,-0.037 c -0.006,-0.003 -1.436,-0.722 -2.571,-0.722 h -37.18 c -1.133,0 -2.564,0.719 -2.57,0.722 l -0.061,0.037 -0.051,0.02 c -6.669,2.828 -19.58,8.325 -20.689,8.93 -1.273,0.694 -3.404,0.694 -3.678,0.682 h -7.834 v -1.1 -39.844 c 0,0 0.542,-12.234 13.08,-12.234 l 113.674,0.02 c 0,0 10.963,0.812 10.984,13.852 0.025,13.043 0.014,38.206 0.014,38.206" /></g></g></g></g></g></g></g><g
           style="stroke-width:0.18045111"
           id="g154"><g
             style="stroke-width:0.18045111"
             id="g156" /><g
             style="stroke-width:0.18045111"
             mask="url(#mask176)"
             id="g202"><g
               style="stroke-width:0.18045111"
               id="g204" /><g
               style="stroke-width:0.18045111"
               id="g216"><g
                 style="stroke-width:0.18045111"
                 id="g214"
                 clip-path="url(#clipPath208)"><g
                   style="stroke-width:0.18045111"
                   id="g212"
                   transform="translate(237.0664,641.0474)"><path
                     id="path210"
                     style="fill:#ffffff;fill-opacity:1;fill-rule:nonzero;stroke:none;stroke-width:0.18045111"
                     d="m 0,0 113.204,-0.108 c 6.087,0 7.321,8.063 7.321,8.063 l 0.243,41.429 c 0,0 -36.137,-0.11 -36.166,-0.11 -0.209,0.012 -2.202,-0.271 -3.591,-1.015 -1.087,-0.573 -19.751,-8.484 -19.9,-8.557 0,0 -1.701,-0.724 -2.568,-0.724 H 21.361 c -0.867,0 -1.577,0.314 -1.581,0.318 0,0 -21.422,9.114 -22.509,9.693 -1.391,0.741 -6.167,0.393 -6.374,0.381 -0.032,0 -0.091,0.014 -0.091,0.014 l 0.242,-39.34 c 0,0 0.514,-9.757 8.952,-10.044" /></g></g></g></g></g><g
           style="stroke-width:0.18045111"
           id="g218"><g
             style="stroke-width:0.18045111"
             id="g220" /><g
             style="stroke-width:0.18045111"
             mask="url(#mask240)"
             id="g266"><g
               style="stroke-width:0.18045111"
               id="g268" /><g
               style="stroke-width:0.18045111"
               id="g280"><g
                 style="stroke-width:0.18045111"
                 id="g278"
                 clip-path="url(#clipPath272)"><g
                   style="stroke-width:0.18045111"
                   id="g276"
                   transform="translate(353.6064,752.8481)"><path
                     id="path274"
                     style="fill:#ffffff;fill-opacity:1;fill-rule:nonzero;stroke:none;stroke-width:0.18045111"
                     d="m 0,0 c 12.617,15.076 -5.89,18.206 -5.89,18.206 h -108.716 c 0,0 -10.893,-1.366 -10.893,-12.297 v -34.358 c 0,0 13.23,-25.931 83.851,1.487 C -31.372,-22.974 -7.331,-8.758 0,0" /></g></g></g></g></g><g
           style="stroke-width:0.18045111"
           transform="translate(272.9897,745.0552)"
           id="g282"><path
             id="path284"
             style="fill:#e60013;fill-opacity:1;fill-rule:nonzero;stroke:none;stroke-width:0.18045111"
             d="m 0,0 c -0.513,-1.299 -1.452,-1.806 -2.304,-1.806 -0.136,0 -0.756,0.023 -0.756,0.023 l 1.184,2.971 c 0,0 0.633,0.009 0.789,0.009 C -0.169,1.197 0.432,1.087 0,0 m -0.637,4.3 c 0,0 0.675,0.02 0.828,0.02 C 0.84,4.32 1.375,4.124 1.059,3.331 0.671,2.364 -0.082,1.968 -0.73,1.968 c -0.173,0 -0.83,0.011 -0.83,0.011 z M 1.63,0.032 C 2.168,1.373 0.997,1.563 0.743,1.604 0.617,1.628 0.467,1.637 0.264,1.637 0.582,1.673 0.711,1.704 0.828,1.739 1.356,1.9 2.195,2.386 2.656,3.542 3.163,4.817 1.785,5.116 0.422,5.116 h -1.688 c -0.355,0 -0.489,-0.076 -0.541,-0.213 l -2.988,-7.488 h 2.146 c 1.774,0 3.543,0.767 4.279,2.617 m -18.069,2.267 c 0.732,0 0.822,-0.331 0.525,-1.123 -0.088,-0.212 -0.213,-0.484 -0.358,-0.681 -0.642,-0.111 -1.707,-0.134 -2.364,-0.123 0.709,1.528 1.496,1.927 2.197,1.927 m 1.142,-2.473 c 0.297,0.394 0.567,0.951 0.767,1.449 0.469,1.178 -0.013,1.802 -1.445,1.802 -1.515,0 -3.149,-0.338 -4.29,-3.2 -0.896,-2.241 0.09,-2.626 1.675,-2.626 1.279,0 2.457,0.263 2.519,0.415 0.094,0.241 0.216,0.627 0.198,0.792 -0.665,-0.21 -1.399,-0.342 -2.219,-0.342 -0.918,0 -1.316,0.2 -0.835,1.53 0.815,0 2.394,0.022 3.63,0.18 m -4.445,2.263 c 0.194,0.187 0.325,0.427 0.387,0.582 0.107,0.276 -0.161,0.406 -1.034,0.406 -0.834,0 -1.584,-0.13 -2.511,-0.494 l -2.059,-5.168 c 1.409,0 1.395,0 1.469,0.189 l 1.742,4.32 c 0.407,0.212 0.867,0.298 1.245,0.298 0.32,0 0.542,-0.046 0.761,-0.133 m -13.371,-3.851 c -1.058,0 -1.552,0.517 -0.657,2.763 1.156,2.894 2.451,3.411 3.579,3.411 0.474,0 0.813,-0.18 0.944,-0.275 0.194,0.14 0.352,0.329 0.469,0.613 0.066,0.178 -0.132,0.534 -1.393,0.534 -1.514,0 -3.586,-0.577 -5.085,-4.34 -1.366,-3.43 -0.093,-3.693 1.593,-3.693 1.026,0 2.046,0.428 2.148,0.68 0.111,0.286 0.098,0.505 0.051,0.647 -0.356,-0.177 -1.055,-0.34 -1.649,-0.34 M 6.815,2.647 5.113,0.307 C 4.496,-0.595 3.997,-1.517 3.997,-1.517 c 0,0 0.218,0.933 0.279,1.813 l 0.105,2.62 c -1.444,0 -1.444,0 -1.443,-0.245 L 2.819,-2.764 C 2.203,-3.664 1.7,-3.897 1.224,-3.897 c -0.444,0 -0.871,0.079 -1.071,0.176 -0.167,-0.119 -0.344,-0.351 -0.41,-0.517 -0.093,-0.229 0.223,-0.415 1.383,-0.415 1.088,0 1.82,0.369 2.884,1.768 l 4.409,5.801 c -1.411,0 -1.411,0 -1.604,-0.269 M -26.362,0.185 c -0.682,-1.717 -1.405,-2.2 -2.138,-2.2 -0.781,0 -1.069,0.341 -0.349,2.157 0.688,1.715 1.39,2.157 2.138,2.157 0.8,0 1.049,-0.361 0.349,-2.114 m -0.004,2.884 c -1.773,0 -3.168,-0.893 -3.976,-2.906 -0.986,-2.474 -0.248,-2.936 1.539,-2.936 1.791,0 3.129,0.922 3.947,2.97 0.89,2.232 0.277,2.872 -1.51,2.872 m 15.265,-4.852 c -0.321,-0.122 -0.694,-0.166 -1.071,-0.166 -0.8,0 -1.181,0.242 -0.474,2.012 0.722,1.806 1.64,2.236 2.392,2.236 0.357,0 0.547,-0.034 0.723,-0.142 z m 2.742,6.876 -0.894,-2.231 c -0.232,0.128 -0.591,0.215 -1.119,0.215 -1.462,0 -2.993,-0.931 -3.861,-3.11 -0.953,-2.387 0.073,-2.716 1.689,-2.716 1.057,0 1.903,0.108 2.569,0.329 l 3.16,7.92 c -1.126,0 -1.381,0 -1.544,-0.407" /></g><g
           style="stroke-width:0.18045111"
           id="g286"><g
             style="stroke-width:0.18045111"
             id="g288" /><g
             style="stroke-width:0.18045111"
             id="g318"><g
               style="stroke-width:0.18045111"
               id="g316"
               clip-path="url(#clipPath292)"><g
                 style="stroke-width:0.18045111"
                 id="g314"><g
                   style="stroke-width:0.18045111"
                   id="g312"
                   clip-path="url(#clipPath296)"><g
                     style="stroke-width:0.18045111"
                     id="g310"><g
                       style="stroke-width:0.18045111"
                       id="g308"><path
                         id="path306"
                         style="fill:url(#linearGradient304);stroke:none;stroke-width:0.18045111"
                         d="m 357.836,690.431 -0.244,-39.34 c 0,0 -0.151,-9.639 -8.951,-10.044 l -15.551,0.027 h -87.114 -9.836 c 0,0 -5.149,0.384 -8.252,-1.027 0,0 3.39,-2.872 7.119,-2.872 h 114.54 c 0,0 7.08,0.366 9.916,6.03 0,0 1.781,2.115 1.759,7.346 l 0.074,39.866 z" /></g></g></g></g></g></g></g><g
           style="stroke-width:0.18045111"
           id="g320"><g
             style="stroke-width:0.18045111"
             id="g322" /><g
             style="stroke-width:0.18045111"
             id="g352"><g
               style="opacity:0.42999303;stroke-width:0.18045111"
               id="g350"
               clip-path="url(#clipPath326)"><g
                 style="stroke-width:0.18045111"
                 id="g348"><g
                   style="stroke-width:0.18045111"
                   id="g346"
                   clip-path="url(#clipPath330)"><g
                     style="stroke-width:0.18045111"
                     id="g344"><g
                       style="stroke-width:0.18045111"
                       id="g342"><path
                         id="path340"
                         style="fill:url(#linearGradient338);stroke:none;stroke-width:0.18045111"
                         d="m 315.118,771.054 h 27.273 c 12.742,0.944 15.621,-9.189 15.621,-9.189 l 0.024,-11.731 c 0,-17.214 -0.35,-39.784 0.241,-45.572 0.834,-8.174 3.028,-11.717 3.028,-11.717 l 0.047,69.844 c 0,12.044 -12.75,12.784 -12.75,12.784 h -33.457 -45.614 -33.453 c 0,0 -12.75,-0.74 -12.75,-12.784 v -32.972 c 0,0 4.732,-6.149 4.732,20.417 l -0.189,10.166 c 0,0 -0.726,10.346 12.176,10.754 h 27.974 z" /></g></g></g></g></g></g></g></g></g><g
       style="stroke-width:0.18045111"
       transform="matrix(5.541667,0,0,5.541667,-1327.1973,-3207.917)"
       id="g354"><g
         style="stroke-width:0.18045111"
         clip-path="url(#clipPath360)"
         id="g356"><g
           style="stroke-width:0.18045111"
           id="g362"><g
             style="stroke-width:0.18045111"
             id="g364"><path
               id="path378"
               style="fill:url(#linearGradient376);stroke:none;stroke-width:0.18045111"
               d="m 296.454,668.865 h -38.877 c -1.455,0 -2.336,0.046 -2.607,-0.099 v 0 c -1.169,-0.495 -19.301,-7.475 -20.793,-8.159 v 0 c -0.694,-0.318 -1.392,-0.604 -1.865,-0.779 v 0 c -1.335,-0.497 -2.403,-0.46 -2.403,-0.46 v 0 h -6.367 v -1.1 h 7.834 c 0.274,-0.012 2.405,-0.012 3.678,0.682 v 0 c 1.109,0.602 14.02,5.279 20.689,8.108 v 0 l 0.051,0.02 0.062,0.038 c 0.005,0.002 1.435,0.724 2.569,0.724 v 0 h 37.181 c 1.134,0 2.564,-0.722 2.569,-0.724 v 0 l 0.063,-0.038 0.051,-0.02 c 6.668,-2.829 19.579,-7.506 20.685,-8.108 v 0 c 1.274,-0.694 3.407,-0.694 3.68,-0.682 v 0 h 38.64 v 1.1 h -37.173 c 0,0 -1.07,-0.037 -2.398,0.46 v 0 c -0.473,0.175 -1.176,0.461 -1.869,0.779 v 0 c -1.493,0.684 -19.624,7.664 -20.792,8.159 v 0 c -0.165,0.088 -0.56,0.106 -1.175,0.106 v 0 c -0.39,0 -0.869,-0.007 -1.433,-0.007" /></g></g></g></g><g
       style="stroke-width:0.18045111"
       transform="matrix(5.541667,0,0,5.541667,-1327.1973,-3207.917)"
       id="g380"><g
         style="stroke-width:0.18045111"
         clip-path="url(#clipPath386)"
         id="g382"><g
           style="stroke-width:0.18045111"
           id="g388"><g
             style="stroke-width:0.18045111"
             id="g390"><path
               id="path404"
               style="fill:url(#linearGradient402);stroke:none;stroke-width:0.18045111"
               d="m 318.974,689.735 c -1.106,-0.606 -14.017,-6.1 -20.685,-8.928 v 0 l -0.051,-0.02 -0.063,-0.038 c -0.005,-0.003 -1.435,-0.724 -2.569,-0.724 v 0 h -37.181 c -1.134,0 -2.564,0.721 -2.569,0.724 v 0 l -0.062,0.038 -0.051,0.02 c -6.669,2.828 -19.58,8.322 -20.689,8.928 v 0 c -1.273,0.695 -3.404,0.695 -3.678,0.683 v 0 h -7.834 v -1.101 h 6.367 c 0,0 1.068,0.034 2.403,-0.458 v 0 c 0.473,-0.177 1.171,-0.46 1.865,-0.778 v 0 c 1.492,-0.684 19.624,-8.487 20.793,-8.981 v 0 c 0.271,-0.146 1.152,-0.099 2.607,-0.099 v 0 h 38.877 c 1.456,0 2.338,-0.047 2.608,0.099 v 0 c 1.168,0.494 19.299,8.297 20.792,8.981 v 0 c 0.693,0.318 1.396,0.601 1.869,0.778 v 0 c 1.328,0.492 2.398,0.458 2.398,0.458 v 0 h 37.173 v 1.101 h -38.64 c -0.031,10e-4 -0.087,0.002 -0.163,0.002 v 0 c -0.589,0 -2.389,-0.07 -3.517,-0.685" /></g></g></g></g><g
       style="stroke-width:0.18045111"
       transform="matrix(5.541667,0,0,5.541667,-1327.1973,-3207.917)"
       id="g406"><g
         style="stroke-width:0.18045111"
         clip-path="url(#clipPath412)"
         id="g408"><g
           style="stroke-width:0.18045111"
           id="g414"><g
             style="stroke-width:0.18045111"
             id="g416"><path
               id="path430"
               style="fill:url(#linearGradient428);stroke:none;stroke-width:0.18045111"
               d="m 296.454,662.868 h -38.877 c -1.455,0 -2.336,0.049 -2.607,-0.098 v 0 c -1.169,-0.495 -19.301,-8.297 -20.793,-8.98 v 0 c -0.694,-0.316 -1.392,-0.6 -1.865,-0.777 v 0 c -2.113,-0.787 -4.214,-0.751 -4.214,-0.751 v 0 h -4.549 l -0.007,-0.806 h 7.834 c 0.274,-0.015 2.405,-0.015 3.678,0.678 v 0 c 1.109,0.604 14.02,6.1 20.689,8.929 v 0 l 0.051,0.023 0.062,0.036 c 0.005,0.003 1.435,0.724 2.569,0.724 v 0 h 37.181 c 1.134,0 2.564,-0.721 2.569,-0.724 v 0 l 0.063,-0.036 0.051,-0.023 c 6.668,-2.829 19.579,-8.325 20.685,-8.929 v 0 c 1.274,-0.693 3.407,-0.693 3.68,-0.678 v 0 h 38.64 l 0.011,0.687 h -35.943 c 0,0 -1.57,0.069 -2.899,0.568 v 0 c -0.473,0.175 -1.916,0.763 -2.609,1.079 v 0 c -1.493,0.683 -19.624,8.485 -20.792,8.98 v 0 c -0.163,0.088 -0.546,0.106 -1.143,0.106 v 0 c -0.396,0 -0.885,-0.008 -1.465,-0.008" /></g></g></g></g><g
       style="stroke-width:0.18045111"
       transform="matrix(5.541667,0,0,5.541667,-1327.1973,-3207.917)"
       id="g432"><g
         style="stroke-width:0.18045111"
         clip-path="url(#clipPath438)"
         id="g434"><g
           style="stroke-width:0.18045111"
           transform="translate(289.4292,728.4956)"
           id="g440"><path
             id="path442"
             style="fill:#e60013;fill-opacity:1;fill-rule:nonzero;stroke:none;stroke-width:0.18045111"
             d="m 0,0 -1.748,-6.876 c -0.212,0.669 -0.421,1.347 -0.65,2.015 -0.351,1.035 -0.686,2.079 -1.009,3.122 -0.245,0.806 -0.799,1.447 -1.632,1.658 C -5.263,-0.027 -5.494,0 -5.717,0 H -9.631 L -12.5,-11.866 h 3.88 l 2.05,8.255 2.327,-6.905 c 0.361,-1.096 1.721,-1.35 2.776,-1.35 H 0.854 L 3.719,0 Z" /></g><g
           style="stroke-width:0.18045111"
           transform="translate(345.3223,728.4956)"
           id="g444"><path
             id="path446"
             style="fill:#e60013;fill-opacity:1;fill-rule:nonzero;stroke:none;stroke-width:0.18045111"
             d="m 0,0 -1.742,-6.876 c -0.219,0.669 -0.43,1.347 -0.656,2.015 -0.351,1.035 -0.691,2.079 -1.008,3.122 -0.25,0.806 -0.803,1.447 -1.635,1.658 C -5.261,-0.027 -5.497,0 -5.718,0 H -9.631 L -12.5,-11.866 h 3.882 l 2.046,8.255 2.328,-6.905 c 0.359,-1.096 1.722,-1.35 2.775,-1.35 H 0.848 L 3.717,0 Z" /></g><g
           style="stroke-width:0.18045111"
           transform="translate(259.0234,725.3237)"
           id="g448"><path
             id="path450"
             style="fill:#e60013;fill-opacity:1;fill-rule:nonzero;stroke:none;stroke-width:0.18045111"
             d="m 0,0 c -0.323,-1.823 -0.721,-3.638 -1.312,-5.392 -0.208,-0.665 -0.845,-0.973 -1.525,-1.086 -0.039,-0.023 -1.316,-0.08 -1.897,0.07 -0.69,0.197 -1.106,0.586 -0.995,1.222 0.282,1.643 0.647,3.271 1.177,4.85 0.25,0.807 0.691,1.208 1.684,1.319 0.031,0.016 0.571,0.058 0.78,0.058 0.194,0 0.414,0 0.677,-0.029 0.263,-0.013 0.498,-0.056 0.72,-0.124 C -0.47,0.818 -0.289,0.721 -0.146,0.58 -0.012,0.43 0.045,0.234 0,0 M 0.583,3.314 C -0.926,3.541 -2.51,3.495 -4.002,3.331 -4.509,3.273 -5.015,3.2 -5.507,3.066 -7.265,2.597 -8.222,1.499 -8.898,-0.615 -9.065,-1.183 -9.231,-1.754 -9.371,-2.336 -9.524,-2.918 -9.635,-3.517 -9.73,-4.098 c -0.097,-0.6 -0.153,-1.169 -0.153,-1.724 0,-0.475 0.081,-0.875 0.262,-1.207 0.508,-0.937 1.516,-1.439 2.504,-1.642 1.198,-0.247 2.457,-0.339 3.678,-0.31 1.133,0.022 2.276,0.14 3.364,0.471 0.511,0.154 1.023,0.379 1.463,0.684 0.84,0.577 1.344,1.458 1.673,2.401 0.192,0.542 0.32,1.098 0.466,1.653 0.263,0.993 0.449,2.004 0.577,3.021 C 4.214,0.097 4.399,1.06 3.901,1.828 3.475,2.487 2.684,2.819 1.958,3.026 1.512,3.149 1.049,3.246 0.583,3.314" /></g><g
           style="stroke-width:0.18045111"
           transform="translate(273.4556,725.3237)"
           id="g452"><path
             id="path454"
             style="fill:#e60013;fill-opacity:1;fill-rule:nonzero;stroke:none;stroke-width:0.18045111"
             d="m 0,0 c -0.322,-1.823 -0.72,-3.638 -1.314,-5.392 -0.207,-0.665 -0.846,-0.973 -1.521,-1.086 -0.043,-0.023 -1.316,-0.08 -1.899,0.07 -0.693,0.197 -1.108,0.586 -0.995,1.222 0.283,1.643 0.648,3.271 1.175,4.85 0.249,0.807 0.692,1.208 1.689,1.319 0.03,0.016 0.566,0.058 0.775,0.058 0.195,0 0.416,0 0.68,-0.029 0.263,-0.013 0.5,-0.056 0.722,-0.124 C -0.469,0.818 -0.289,0.721 -0.151,0.58 -0.013,0.43 0.043,0.234 0,0 M 0.583,3.314 C -0.926,3.541 -2.51,3.495 -4.005,3.331 -4.508,3.273 -5.018,3.2 -5.51,3.066 -7.267,2.597 -8.221,1.499 -8.899,-0.615 -9.068,-1.183 -9.232,-1.754 -9.373,-2.336 -9.525,-2.918 -9.636,-3.517 -9.73,-4.098 c -0.098,-0.6 -0.153,-1.169 -0.153,-1.724 0,-0.475 0.082,-0.875 0.262,-1.207 0.504,-0.937 1.511,-1.439 2.503,-1.642 1.2,-0.247 2.459,-0.339 3.68,-0.31 1.135,0.022 2.273,0.14 3.364,0.471 0.511,0.154 1.02,0.379 1.46,0.684 0.843,0.577 1.349,1.458 1.673,2.401 0.19,0.542 0.323,1.098 0.466,1.653 0.261,0.993 0.453,2.004 0.58,3.021 C 4.21,0.097 4.398,1.06 3.902,1.828 3.474,2.487 2.683,2.819 1.958,3.026 1.509,3.149 1.05,3.246 0.583,3.314" /></g><g
           style="stroke-width:0.18045111"
           transform="translate(242.4258,719.9351)"
           id="g456"><path
             id="path458"
             style="fill:#e60013;fill-opacity:1;fill-rule:nonzero;stroke:none;stroke-width:0.18045111"
             d="m 0,0 c -0.196,0.054 -0.373,0.138 -0.516,0.272 -0.519,0.485 -0.223,1.5 -0.072,2.094 l 1.567,6.35 h -4.192 c 0,0 -1.647,-6.705 -1.904,-7.893 -0.529,-2.582 0.289,-4.087 3.113,-4.207 2.161,-0.085 4.517,-0.16 7.106,0.191 L 5.963,0.256 C 4.951,0.075 4.122,-0.048 3.107,-0.121 2.442,-0.166 1.77,-0.155 1.102,-0.114 0.761,-0.095 0.354,-0.103 0,0" /></g><g
           style="stroke-width:0.18045111"
           transform="translate(312.9004,725.731)"
           id="g460"><path
             id="path462"
             style="fill:#e60013;fill-opacity:1;fill-rule:nonzero;stroke:none;stroke-width:0.18045111"
             d="M 0,0 H 5.912 L 6.623,2.862 H 0 c -2.767,0 -4.596,-1.375 -5.109,-3.361 -0.429,-1.628 0.357,-3.265 2.588,-3.823 0.957,-0.232 1.536,-0.218 2.521,-0.218 1.453,0 1.109,-1.654 -0.4,-1.82 -0.335,-0.042 -0.764,-0.028 -1.139,-0.028 H -6.662 L -7.35,-9.197 h 5.245 c 1.895,0 3.823,0.056 5.287,0.877 1.052,0.596 1.94,1.668 2.091,3.096 0.196,1.932 -0.98,3.445 -3.752,3.474 H -0.127 C -1.605,-1.735 -1.271,-0.056 0,0" /></g><g
           style="stroke-width:0.18045111"
           transform="translate(300.2949,716.4985)"
           id="g464"><path
             id="path466"
             style="fill:#e60013;fill-opacity:1;fill-rule:nonzero;stroke:none;stroke-width:0.18045111"
             d="M 0,0 4.082,-0.005 5.941,7.688 -0.191,5.481 1.124,4.524 Z" /></g><g
           style="stroke-width:0.18045111"
           transform="translate(297.7148,719.4409)"
           id="g468"><path
             id="path470"
             style="fill:#e60013;fill-opacity:1;fill-rule:nonzero;stroke:none;stroke-width:0.18045111"
             d="m 0,0 c -0.193,0.026 -0.703,0.19 -0.703,0.842 0.015,0.887 0.135,1.713 0.369,2.573 0.232,0.85 0.572,1.663 0.995,2.429 0.183,0.304 0.514,0.503 0.891,0.503 H 1.558 1.564 8.906 L 9.591,9.223 H 0.182 C -0.207,9.223 -0.58,9.168 -0.941,9.056 -1.302,8.956 -1.634,8.805 -1.952,8.624 -2.27,8.445 -2.549,8.236 -2.797,7.986 -3.031,7.736 -3.227,7.475 -3.379,7.195 -3.848,6.263 -4.236,5.293 -4.541,4.293 c -0.32,-1 -0.525,-2.029 -0.638,-3.1 -0.055,-0.402 -0.025,-0.831 0.055,-1.291 0.083,-0.457 0.236,-0.888 0.457,-1.279 0.238,-0.402 0.54,-0.734 0.941,-1.013 0.39,-0.275 0.888,-0.443 1.464,-0.499 0.965,-0.096 2.545,-0.1 3.813,-0.071 l 0.722,2.915 C 2.1,-0.047 1.764,-0.056 1.446,-0.056 1.019,-0.068 0.43,-0.056 0,0" /></g><g
           style="stroke-width:0.18045111"
           transform="translate(329.3486,725.3237)"
           id="g472"><path
             id="path474"
             style="fill:#e60013;fill-opacity:1;fill-rule:nonzero;stroke:none;stroke-width:0.18045111"
             d="m 0,0 c -0.326,-1.823 -0.723,-3.638 -1.313,-5.392 -0.213,-0.665 -0.85,-0.973 -1.527,-1.086 -0.036,-0.023 -1.313,-0.08 -1.893,0.07 -0.694,0.197 -1.11,0.586 -1.001,1.222 0.286,1.643 0.653,3.271 1.182,4.85 0.248,0.807 0.689,1.208 1.684,1.319 0.028,0.016 0.568,0.058 0.777,0.058 0.195,0 0.416,0 0.682,-0.029 C -1.148,0.999 -0.913,0.956 -0.69,0.888 -0.47,0.818 -0.289,0.721 -0.148,0.58 -0.014,0.43 0.042,0.234 0,0 M 0.581,3.314 C -0.932,3.541 -2.513,3.495 -4.003,3.331 -4.511,3.273 -5.019,3.2 -5.511,3.066 -7.267,2.597 -8.224,1.499 -8.902,-0.615 c -0.164,-0.568 -0.331,-1.139 -0.473,-1.721 -0.151,-0.582 -0.261,-1.181 -0.356,-1.762 -0.1,-0.6 -0.157,-1.169 -0.157,-1.724 0,-0.475 0.084,-0.875 0.266,-1.207 0.505,-0.937 1.515,-1.439 2.504,-1.642 1.195,-0.247 2.461,-0.339 3.677,-0.31 1.135,0.022 2.274,0.14 3.364,0.471 0.508,0.154 1.019,0.379 1.465,0.684 0.837,0.577 1.345,1.458 1.674,2.401 0.185,0.542 0.318,1.098 0.46,1.653 0.264,0.993 0.452,2.004 0.582,3.021 C 4.211,0.097 4.398,1.06 3.899,1.828 3.472,2.487 2.683,2.819 1.961,3.026 1.509,3.149 1.05,3.246 0.581,3.314" /></g><path
           id="path476"
           style="fill:#aaabab;fill-opacity:1;fill-rule:nonzero;stroke:none;stroke-width:0.18045111"
           d="m 361.294,689.317 h -3.565 v 1.217 h 3.565 z" /><path
           id="path478"
           style="fill:#aaabab;fill-opacity:1;fill-rule:nonzero;stroke:none;stroke-width:0.18045111"
           d="m 361.294,658.268 h -3.618 v 1.103 h 3.618 z" /><path
           id="path480"
           style="fill:#aaabab;fill-opacity:1;fill-rule:nonzero;stroke:none;stroke-width:0.18045111"
           d="m 361.294,651.456 h -3.653 v 0.691 h 3.653 z" /><g
           style="stroke-width:0.18045111"
           transform="translate(348.6836,751.4009)"
           id="g482"><path
             id="path484"
             style="fill:#e60013;fill-opacity:1;fill-rule:nonzero;stroke:none;stroke-width:0.18045111"
             d="m 0,0 h -2.207 v 0.578 c 0,0.203 -0.17,0.369 -0.391,0.39 h -2.25 C -5.047,0.957 -5.213,0.826 -5.246,0.653 -5.248,0.646 -5.246,0 -5.246,0 h -4.822 v 0.641 c -0.03,0.171 -0.184,0.306 -0.381,0.327 h -2.244 C -12.891,0.957 -13.059,0.826 -13.1,0.653 V 0 c 0,0 -2.162,-0.005 -2.171,-0.005 -0.182,0 -0.334,-0.117 -0.37,-0.272 -0.004,-0.015 0,-1.079 0,-1.079 0.006,-0.178 0.159,-0.321 0.356,-0.329 h 2.185 v -0.416 c 0,-0.203 0.186,-0.381 0.403,-0.381 0,0 2.187,-0.002 2.195,-0.002 0.213,0 0.434,0.131 0.434,0.322 v 0.477 h 4.822 v -0.438 c 0.012,-0.195 0.182,-0.349 0.396,-0.359 h 2.209 c 0.213,0 0.397,0.138 0.434,0.321 0.004,0.019 0,0.476 0,0.476 h 2.184 0.003 c 0.209,0 0.375,0.151 0.375,0.335 v 1.015 C 0.355,-0.156 0.197,-0.01 0,0" /></g><g
           style="stroke-width:0.18045111"
           transform="translate(336.6602,747.4907)"
           id="g486"><path
             id="path488"
             style="fill:#e60013;fill-opacity:1;fill-rule:nonzero;stroke:none;stroke-width:0.18045111"
             d="m 0,0 c -0.005,0 -0.01,0.003 -0.017,0.008 h -2.195 c -0.159,-0.016 -0.292,-0.12 -0.328,-0.261 -0.114,-1.286 -0.956,-6.957 -1.079,-8.342 0.014,-0.159 0.152,-0.286 0.322,-0.305 0.569,0 1.668,0.005 2.233,0.005 0.003,0 0.003,0.003 0.005,0.003 0.211,0 0.373,0.153 0.373,0.336 0.125,1.416 0.935,6.829 1.06,8.234 C 0.366,-0.142 0.205,0 0,0" /></g><g
           style="stroke-width:0.18045111"
           transform="translate(345.0469,747.1685)"
           id="g490"><path
             id="path492"
             style="fill:#e60013;fill-opacity:1;fill-rule:nonzero;stroke:none;stroke-width:0.18045111"
             d="m 0,0 c 0.123,-1.404 0.93,-6.817 1.055,-8.233 0,-0.184 0.168,-0.336 0.377,-0.336 0.002,0 0.004,-0.003 0.007,-0.003 0.564,0 1.665,-0.006 2.229,-0.006 0.172,0.019 0.311,0.146 0.324,0.306 C 3.867,-6.888 3.026,-1.217 2.914,0.069 2.879,0.21 2.744,0.314 2.582,0.33 2.582,0.33 0.381,0.322 0.372,0.322 0.171,0.322 0.003,0.181 0,0" /></g><g
           style="stroke-width:0.18045111"
           transform="translate(344.1895,747.23)"
           id="g494"><path
             id="path496"
             style="fill:#e60013;fill-opacity:1;fill-rule:nonzero;stroke:none;stroke-width:0.18045111"
             d="m 0,0 c -0.033,0.148 -0.172,0.256 -0.338,0.269 h -1.993 c -0.183,0 -0.388,-0.179 -0.364,-0.351 0.002,-0.02 0.792,-5.866 0.808,-6.001 h 2.68 c 0,0 -0.604,4.612 -0.793,6.083" /></g><g
           style="stroke-width:0.18045111"
           transform="translate(345.0068,739.9038)"
           id="g498"><path
             id="path500"
             style="fill:#e60013;fill-opacity:1;fill-rule:nonzero;stroke:none;stroke-width:0.18045111"
             d="m 0,0 c 0,0.181 -0.165,0.329 -0.367,0.333 h -3.298 c -0.248,0 -0.445,0.065 -0.588,0.19 -0.139,0.123 -0.213,0.346 -0.213,0.665 0,0 0,4.77 0.006,6.081 -0.008,0.179 -0.172,0.326 -0.373,0.326 h -0.002 -2.176 -0.004 c -0.177,0 -0.338,-0.12 -0.369,-0.276 -0.004,-0.02 0,-6.361 0,-6.361 0,-0.854 0.358,-1.514 1.078,-1.956 0.326,-0.206 0.83,-0.307 1.537,-0.307 h 4.524 c 0.195,0.011 0.347,0.157 0.347,0.336 0,0 0.004,0.001 0.007,0.002 C 0.077,-0.686 0.033,-0.299 0.003,-0.021 0,-0.015 0,-0.01 0,0" /></g><g
           style="stroke-width:0.18045111"
           transform="translate(331.2266,750.4546)"
           id="g502"><path
             id="path504"
             style="fill:#e60013;fill-opacity:1;fill-rule:nonzero;stroke:none;stroke-width:0.18045111"
             d="m 0,0 h -1.092 c 0,0 0.324,1.361 0.363,1.521 0.043,0.221 -0.197,0.393 -0.435,0.393 H -3.568 C -3.781,1.914 -3.959,1.778 -3.998,1.6 -4.002,1.575 -4.367,0 -4.367,0 H -9.16 c 0,0 0.344,1.437 0.365,1.521 0.047,0.224 -0.193,0.393 -0.434,0.393 h -2.38 c -0.213,0 -0.387,-0.136 -0.424,-0.314 h -0.002 C -12.137,1.208 -12.428,0 -12.428,0 c 0,0 -2.845,-0.004 -2.849,-0.004 -0.184,0 -0.372,-0.121 -0.372,-0.272 v -1.099 c 0,-0.172 0.141,-0.333 0.321,-0.333 h 2.491 c 0,0 -1.649,-6.82 -2.364,-9.763 -0.028,-0.211 0.197,-0.387 0.437,-0.387 0.01,0 2.385,0.004 2.395,0.004 0.242,0 0.355,0.123 0.435,0.391 0.004,0.016 2.36,9.755 2.36,9.755 h 1.847 v -3.955 c 0,0 -1.168,-0.345 -1.82,-0.588 -0.121,-0.043 -0.211,-0.137 -0.234,-0.254 -0.069,-0.353 -0.431,-1.771 -0.434,-1.782 -0.045,-0.19 0.18,-0.399 0.375,-0.337 0.145,0.046 2.113,0.693 2.113,0.693 v -1.806 c 0,-0.653 0.245,-1.19 0.727,-1.592 0.445,-0.372 1.324,-0.538 1.953,-0.538 h 5.02 c 0.003,0 0.007,0.003 0.015,0.003 0.191,0 0.343,0.123 0.368,0.291 v 1.036 c -0.008,0.165 -0.146,0.294 -0.323,0.315 h -3.635 c -0.515,0 -0.761,0.213 -0.761,0.649 v 2.838 L 0.101,-5.2 c 0,0 0.248,0.096 0.248,0.269 v 1.673 c 0,0.218 -0.232,0.349 -0.419,0.278 -0.005,-0.004 -4.293,-1.47 -4.293,-1.47 v 2.742 c 0,0 4.343,10e-4 4.351,10e-4 0.191,0 0.368,0.134 0.368,0.3 V -0.3 C 0.356,-0.131 0.192,0 0,0" /></g></g></g><text
       y="-482.65976"
       x="504.75372"
       id="text508"
       style="font-style:italic;font-variant:normal;font-weight:normal;font-stretch:normal;font-size:110.83334351px;font-family:Arial;-inkscape-font-specification:Arial-ItalicMT;writing-mode:lr-tb;fill:#ffffff;fill-opacity:1;fill-rule:nonzero;stroke:none;stroke-width:0.99999994"
       transform="scale(1,-1)"><tspan
         style="stroke-width:0.99999994"
         id="tspan506"
         y="-482.65976"
         x="504.75372"></tspan></text>
</g></svg>