<?xml version="1.0" standalone="no"?><!DOCTYPE svg PUBLIC "-//W3C//DTD SVG 1.1//EN" "http://www.w3.org/Graphics/SVG/1.1/DTD/svg11.dtd"><svg t="1696935060689" class="icon" viewBox="0 0 1024 1024" version="1.1" xmlns="http://www.w3.org/2000/svg" p-id="2496" width="200" height="200" xmlns:xlink="http://www.w3.org/1999/xlink"><path d="M948.14208 665.02656c-6.66282667 72.41728-12.74311111 117.49148445-81.66513778 145.63555555-35.46225778 14.63637333-48.13255111 20.02488889-46.53056-25.59544888 2.40298667-69.97788445-1.09226667-140.17422222 1.45635556-210.07928889 1.27431111-32.768-10.55857778-50.71758222-38.70264889-66.08213333-73.87363555-40.26823111-145.52632889-83.5584-219.90968889-126.44807112 2.43939555-3.64088889 5.09724445-7.17255111 7.93713778-10.55857778 70.56042667-61.82229333 130.81713778-58.14499555 217.25184-6.8448711 51.99189333 30.87473778 126.59370667 58.18140445 153.39064889 102.96433777" fill="#B1D847" p-id="2497"></path><path d="M386.78983111 940.16853333c80.60928-46.78542222 155.75722667-91.56835555 232.14307556-133.94830222 22.57351111-9.97603555 36.11761778-33.42336 33.45976888-57.92654222-1.82044445-84.28657778-0.65536-167.84497778-0.65536-256.79189334 43.90912 12.74311111 76.20380445 39.10314667 111.95733334 58.61831112 17.73112889 9.64835555 12.45184 27.37948445 12.56106666 42.12508444 0 77.0048-1.05585778 154.15523555 0.94663112 231.05080889 0.72817778 28.87224889-10.55857778 44.16398222-34.69767112 57.41681778-59.85621333 32.58595555-119.78524445 65.536-176.87438222 102.74588444-36.80938667 24.24832-68.44871111 28.76302222-104.23864888 1.05585778a757.85102222 757.85102222 0 0 0-74.60181334-44.34602667z" fill="#449642" p-id="2498"></path><path d="M948.14208 407.32444445c-80.60928-45.62033778-154.26446222-84.28657778-224.86129778-128.52337778-29.85528889-18.67776-50.97244445-18.24085333-80.39082667 0-69.86865778 42.63480889-142.03107555 81.41027555-222.64035555 127.13984v-125.24657778c0-19.62439111 13.18001778-26.97898667 26.90616889-34.91612444 69.32252445-40.55950222 139.264-80.39082667 208.25884444-121.46005334 21.11715555-12.45184 37.39192889-10.55857778 57.85372445 1.78403556 61.31256889 37.20988445 122.47950222 75.00231111 186.55914667 107.04213333 39.03032889 19.58798222 48.64227555 44.78293333 48.64227555 86.50752 0.18204445 24.97649778 1.05585778 46.23928889-0.36408889 87.67260445z" fill="#9FD146" p-id="2499"></path><path d="M637.71989333 83.64942222c-79.77187555 46.34851555-149.93180445 89.63868445-222.64035555 128.23210667-31.67573333 16.74808889-40.30464 36.88220445-39.13955556 70.59683556 2.40298667 71.83473778 0 143.81511111 1.16508445 215.64984888 0.50972445 34.58844445-9.8304 41.32408889-38.62983112 21.11715556a312.02417778 312.02417778 0 0 0-50.13504-28.90865778c-29.30915555-13.07079111-39.68568889-33.38695111-38.59342222-65.93649778a3363.23470222 3363.23470222 0 0 0 0-221.29322666c-1.16508445-32.95004445 11.17752889-50.13504 39.54005334-65.09909334a1762.29944889 1762.29944889 0 0 0 168.09984-96.48355555c38.73905778-25.85031111 71.43424-30.18296889 109.29948444 0 18.78698667 14.81841778 41.50613333 24.94008889 70.99733334 42.12508444z" fill="#8BC643" p-id="2500"></path><path d="M604.58780445 706.13219555c-2.33016889 46.34851555-13.28924445 68.37589333-55.4143289 90.00277334-59.16444445 30.43783111-116.79971555 64.26168889-173.45194666 99.35985778-23.66577778 14.63637333-41.36049778 17.03936-66.26417778 1.56558222-60.98488889-38.04728889-124.19072-72.49009778-186.44992-108.49848889-34.95253333-20.02488889-61.42179555-118.69297778-40.52309333-151.97070222 12.74311111-20.31616 25.34058667-1.67480889 34.84330667 3.60448 64.33450667 35.68071111 128.30492445 72.05319111 191.14666666 110.31893333a55.34151111 55.34151111 0 0 0 66.62826667 0c59.49212445-37.13706667 122.07900445-69.46816 181.57112889-106.13191111 36.62734222-22.42787555 45.69315555-17.07576889 48.02332444 27.30666667 0.40049778 8.62890667-0.10922667 17.47626667-0.10922666 34.44280888z" fill="#57A73F" p-id="2501"></path><path d="M202.45162667 192.25713778c0 91.56835555 1.71121778 173.85244445-0.72817778 256.06371555-1.05585778 32.768 10.55857778 50.97244445 38.52060444 66.15495112 73.83722667 40.66872889 145.92682667 83.5584 222.64035556 127.68597333-32.73159111 30.80192-71.36142222 45.94801778-106.16832 66.81031111-16.56604445 9.90321778-30.07374222 0-43.76348444-7.68227556-68.37589333-39.39441778-136.24206222-79.66264889-205.34613334-117.78275555-21.95456-12.01493333-27.74357333-27.41589333-27.30666666-50.68117333 1.01944889-69.90506667 3.78652445-140.46549333-0.98304-210.22492445-3.2768-47.33155555 11.61443555-76.38584889 54.46769777-94.18979555 20.68024889-8.62890667 39.75850667-20.75306667 68.66716445-36.15402667z" fill="#73BA40" p-id="2502"></path></svg>