<svg id="SvgjsSvg1722" width="2377.472742271423" height="698.907430013021" xmlns="http://www.w3.org/2000/svg" version="1.1" xmlns:xlink="http://www.w3.org/1999/xlink" xmlns:svgjs="http://svgjs.com/svgjs"><defs id="SvgjsDefs1723"><pattern patternUnits="userSpaceOnUse" id="pattern_mark_0" width="300" height="300"><text x="150" y="100" fill="rgba(229,229,229,0.8)" font-size="18" transform="rotate(-45, 150, 150)" style="dominant-baseline: middle; text-anchor: middle;"></text></pattern><pattern patternUnits="userSpaceOnUse" id="pattern_mark_1" width="300" height="300"><text x="150" y="200" fill="rgba(229,229,229,0.8)" font-size="18" transform="rotate(-45, 150, 150)" style="dominant-baseline: middle; text-anchor: middle;"></text></pattern><marker id="SvgjsMarker1753" markerWidth="13" markerHeight="9" refX="9.5" refY="4.5" viewBox="0 0 13 9" orient="auto" markerUnits="userSpaceOnUse" stroke-dasharray="0,0"><path id="SvgjsPath1754" d="M0,0 L13,4.5 L0,9 L0,0" fill="#323232" stroke="#323232" stroke-width="1"></path></marker><marker id="SvgjsMarker1777" markerWidth="13" markerHeight="9" refX="9.5" refY="4.5" viewBox="0 0 13 9" orient="auto" markerUnits="userSpaceOnUse" stroke-dasharray="0,0"><path id="SvgjsPath1778" d="M0,0 L13,4.5 L0,9 L0,0" fill="#323232" stroke="#323232" stroke-width="1"></path></marker><marker id="SvgjsMarker1795" markerWidth="13" markerHeight="9" refX="9.5" refY="4.5" viewBox="0 0 13 9" orient="auto" markerUnits="userSpaceOnUse" stroke-dasharray="0,0"><path id="SvgjsPath1796" d="M0,0 L13,4.5 L0,9 L0,0" fill="#5b79e8" stroke="#5b79e8" stroke-width="1"></path></marker><marker id="SvgjsMarker1815" markerWidth="13" markerHeight="9" refX="9.5" refY="4.5" viewBox="0 0 13 9" orient="auto" markerUnits="userSpaceOnUse" stroke-dasharray="0,0"><path id="SvgjsPath1816" d="M0,0 L13,4.5 L0,9 L0,0" fill="#323232" stroke="#323232" stroke-width="1"></path></marker><marker id="SvgjsMarker1823" markerWidth="13" markerHeight="9" refX="9.5" refY="4.5" viewBox="0 0 13 9" orient="auto" markerUnits="userSpaceOnUse" stroke-dasharray="0,0"><path id="SvgjsPath1824" d="M0,0 L13,4.5 L0,9 L0,0" fill="#5b79e8" stroke="#5b79e8" stroke-width="1"></path></marker><marker id="SvgjsMarker1837" markerWidth="13" markerHeight="9" refX="9.5" refY="4.5" viewBox="0 0 13 9" orient="auto" markerUnits="userSpaceOnUse" stroke-dasharray="0,0"><path id="SvgjsPath1838" d="M0,0 L13,4.5 L0,9 L0,0" fill="#323232" stroke="#323232" stroke-width="1"></path></marker><marker id="SvgjsMarker1875" markerWidth="13" markerHeight="9" refX="9.5" refY="4.5" viewBox="0 0 13 9" orient="auto" markerUnits="userSpaceOnUse" stroke-dasharray="0,0"><path id="SvgjsPath1876" d="M0,0 L13,4.5 L0,9 L0,0" fill="#323232" stroke="#323232" stroke-width="1"></path></marker><marker id="SvgjsMarker1891" markerWidth="13" markerHeight="9" refX="9.5" refY="4.5" viewBox="0 0 13 9" orient="auto" markerUnits="userSpaceOnUse" stroke-dasharray="0,0"><path id="SvgjsPath1892" d="M0,0 L13,4.5 L0,9 L0,0" fill="#323232" stroke="#323232" stroke-width="1"></path></marker><marker id="SvgjsMarker1903" markerWidth="13" markerHeight="9" refX="9.5" refY="4.5" viewBox="0 0 13 9" orient="auto" markerUnits="userSpaceOnUse" stroke-dasharray="0,0"><path id="SvgjsPath1904" d="M0,0 L13,4.5 L0,9 L0,0" fill="#323232" stroke="#323232" stroke-width="1"></path></marker><marker id="SvgjsMarker1907" markerWidth="13" markerHeight="9" refX="9.5" refY="4.5" viewBox="0 0 13 9" orient="auto" markerUnits="userSpaceOnUse" stroke-dasharray="0,0"><path id="SvgjsPath1908" d="M0,0 L13,4.5 L0,9 L0,0" fill="#323232" stroke="#323232" stroke-width="1"></path></marker><marker id="SvgjsMarker1923" markerWidth="13" markerHeight="9" refX="9.5" refY="4.5" viewBox="0 0 13 9" orient="auto" markerUnits="userSpaceOnUse" stroke-dasharray="0,0"><path id="SvgjsPath1924" d="M0,0 L13,4.5 L0,9 L0,0" fill="#323232" stroke="#323232" stroke-width="1"></path></marker><marker id="SvgjsMarker1931" markerWidth="13" markerHeight="9" refX="9.5" refY="4.5" viewBox="0 0 13 9" orient="auto" markerUnits="userSpaceOnUse" stroke-dasharray="0,0"><path id="SvgjsPath1932" d="M0,0 L13,4.5 L0,9 L0,0" fill="#323232" stroke="#323232" stroke-width="1"></path></marker><marker id="SvgjsMarker1935" markerWidth="13" markerHeight="9" refX="9.5" refY="4.5" viewBox="0 0 13 9" orient="auto" markerUnits="userSpaceOnUse" stroke-dasharray="0,0"><path id="SvgjsPath1936" d="M0,0 L13,4.5 L0,9 L0,0" fill="#323232" stroke="#323232" stroke-width="1"></path></marker><marker id="SvgjsMarker1939" markerWidth="13" markerHeight="9" refX="9.5" refY="4.5" viewBox="0 0 13 9" orient="auto" markerUnits="userSpaceOnUse" stroke-dasharray="0,0"><path id="SvgjsPath1940" d="M0,0 L13,4.5 L0,9 L0,0" fill="#323232" stroke="#323232" stroke-width="1"></path></marker><marker id="SvgjsMarker1993" markerWidth="13" markerHeight="9" refX="9.5" refY="4.5" viewBox="0 0 13 9" orient="auto" markerUnits="userSpaceOnUse" stroke-dasharray="0,0"><path id="SvgjsPath1994" d="M0,0 L13,4.5 L0,9 L0,0" fill="#5b79e8" stroke="#5b79e8" stroke-width="1"></path></marker><marker id="SvgjsMarker1997" markerWidth="13" markerHeight="9" refX="9.5" refY="4.5" viewBox="0 0 13 9" orient="auto" markerUnits="userSpaceOnUse" stroke-dasharray="0,0"><path id="SvgjsPath1998" d="M0,0 L13,4.5 L0,9 L0,0" fill="#871fbf" stroke="#871fbf" stroke-width="1"></path></marker><marker id="SvgjsMarker2015" markerWidth="13" markerHeight="9" refX="9.5" refY="4.5" viewBox="0 0 13 9" orient="auto" markerUnits="userSpaceOnUse" stroke-dasharray="0,0"><path id="SvgjsPath2016" d="M0,0 L13,4.5 L0,9 L0,0" fill="#871fbf" stroke="#871fbf" stroke-width="1"></path></marker><marker id="SvgjsMarker2023" markerWidth="13" markerHeight="9" refX="9.5" refY="4.5" viewBox="0 0 13 9" orient="auto" markerUnits="userSpaceOnUse" stroke-dasharray="0,0"><path id="SvgjsPath2024" d="M0,0 L13,4.5 L0,9 L0,0" fill="#5b79e8" stroke="#5b79e8" stroke-width="1"></path></marker><marker id="SvgjsMarker2031" markerWidth="13" markerHeight="9" refX="9.5" refY="4.5" viewBox="0 0 13 9" orient="auto" markerUnits="userSpaceOnUse" stroke-dasharray="0,0"><path id="SvgjsPath2032" d="M0,0 L13,4.5 L0,9 L0,0" fill="#323232" stroke="#323232" stroke-width="1"></path></marker><marker id="SvgjsMarker2061" markerWidth="13" markerHeight="9" refX="9.5" refY="4.5" viewBox="0 0 13 9" orient="auto" markerUnits="userSpaceOnUse" stroke-dasharray="0,0"><path id="SvgjsPath2062" d="M0,0 L13,4.5 L0,9 L0,0" fill="#323232" stroke="#323232" stroke-width="1"></path></marker><marker id="SvgjsMarker2071" markerWidth="13" markerHeight="9" refX="9.5" refY="4.5" viewBox="0 0 13 9" orient="auto" markerUnits="userSpaceOnUse" stroke-dasharray="0,0"><path id="SvgjsPath2072" d="M0,0 L13,4.5 L0,9 L0,0" fill="#323232" stroke="#323232" stroke-width="1"></path></marker><marker id="SvgjsMarker2075" markerWidth="13" markerHeight="9" refX="9.5" refY="4.5" viewBox="0 0 13 9" orient="auto" markerUnits="userSpaceOnUse" stroke-dasharray="0,0"><path id="SvgjsPath2076" d="M0,0 L13,4.5 L0,9 L0,0" fill="#323232" stroke="#323232" stroke-width="1"></path></marker><marker id="SvgjsMarker2083" markerWidth="13" markerHeight="9" refX="9.5" refY="4.5" viewBox="0 0 13 9" orient="auto" markerUnits="userSpaceOnUse" stroke-dasharray="0,0"><path id="SvgjsPath2084" d="M0,0 L13,4.5 L0,9 L0,0" fill="#323232" stroke="#323232" stroke-width="1"></path></marker><marker id="SvgjsMarker2091" markerWidth="13" markerHeight="9" refX="9.5" refY="4.5" viewBox="0 0 13 9" orient="auto" markerUnits="userSpaceOnUse" stroke-dasharray="0,0"><path id="SvgjsPath2092" d="M0,0 L13,4.5 L0,9 L0,0" fill="#323232" stroke="#323232" stroke-width="1"></path></marker><marker id="SvgjsMarker2099" markerWidth="13" markerHeight="9" refX="9.5" refY="4.5" viewBox="0 0 13 9" orient="auto" markerUnits="userSpaceOnUse" stroke-dasharray="0,0"><path id="SvgjsPath2100" d="M0,0 L13,4.5 L0,9 L0,0" fill="#323232" stroke="#323232" stroke-width="1"></path></marker><marker id="SvgjsMarker2107" markerWidth="13" markerHeight="9" refX="9.5" refY="4.5" viewBox="0 0 13 9" orient="auto" markerUnits="userSpaceOnUse" stroke-dasharray="0,0"><path id="SvgjsPath2108" d="M0,0 L13,4.5 L0,9 L0,0" fill="#323232" stroke="#323232" stroke-width="1"></path></marker></defs><rect id="svgbackgroundid" width="2377.472742271423" height="698.907430013021" fill="transparent"></rect><rect id="SvgjsRect1725" width="2377.472742271423" height="698.907430013021" fill="url(#pattern_mark_0)"></rect><rect id="SvgjsRect1726" width="2377.472742271423" height="698.907430013021" fill="url(#pattern_mark_1)"></rect><g id="SvgjsG1727" transform="translate(25,398.00004069010424)"><path id="SvgjsPath1728" d="M 0 4Q 0 0 4 0L 2323.472742271423 0Q 2327.472742271423 0 2327.472742271423 4L 2327.472742271423 271.90738932291674Q 2327.472742271423 275.90738932291674 2323.472742271423 275.90738932291674L 4 275.90738932291674Q 0 275.90738932291674 0 271.90738932291674Z" stroke="rgba(33,41,48,1)" stroke-width="1.5" fill-opacity="1" fill="#ffffff"></path><g id="SvgjsG1729"><text id="SvgjsText1730" font-family="微软雅黑" text-anchor="middle" font-size="13px" width="2308px" fill="#323232" font-weight="400" align="middle" lineHeight="125%" anchor="middle" family="微软雅黑" size="13px" weight="400" font-style="" opacity="1" y="127.32869466145837" transform="rotate(0)"></text></g></g><g id="SvgjsG1731" transform="translate(329.04168955484965,488.4444240993922)"><path id="SvgjsPath1732" d="M 0 4Q 0 0 4 0L 347.29166412353516 0Q 351.29166412353516 0 351.29166412353516 4L 351.29166412353516 55.3333740234375Q 351.29166412353516 59.3333740234375 347.29166412353516 59.3333740234375L 4 59.3333740234375Q 0 59.3333740234375 0 55.3333740234375Z" stroke="rgba(33,41,48,1)" stroke-width="1.5" fill-opacity="1" fill="#ffffff"></path><g id="SvgjsG1733"><text id="SvgjsText1734" font-family="微软雅黑" text-anchor="middle" font-size="13px" width="332px" fill="#323232" font-weight="400" align="middle" lineHeight="125%" anchor="middle" family="微软雅黑" size="13px" weight="400" font-style="" opacity="1" y="19.04168701171875" transform="rotate(0)"><tspan id="SvgjsTspan1735" dy="16.25" x="176"><tspan id="SvgjsTspan1736" style="">上传公开的对象存储服务中，提供 Https 直链下载</tspan></tspan></text></g></g><g id="SvgjsG1737" transform="translate(72.54677113427033,175.5)"><path id="SvgjsPath1738" d="M 16.666666666666668 0L 83.33333333333333 0C 105.55555555555556 0 105.55555555555556 50 83.33333333333333 50L 16.666666666666668 50C -5.555555555555556 50 -5.555555555555556 0 16.666666666666668 0Z" stroke="rgba(33,41,48,1)" stroke-width="1.5" fill-opacity="1" fill="#ffffff"></path><g id="SvgjsG1739"><text id="SvgjsText1740" font-family="微软雅黑" text-anchor="middle" font-size="13px" width="80px" fill="#323232" font-weight="400" align="middle" lineHeight="125%" anchor="middle" family="微软雅黑" size="13px" weight="400" font-style="" opacity="1" y="5.875" transform="rotate(0)"><tspan id="SvgjsTspan1741" dy="16.25" x="50"><tspan id="SvgjsTspan1742" style="">准备上架 </tspan></tspan><tspan id="SvgjsTspan1743" dy="16.25" x="50"><tspan id="SvgjsTspan1744" style="">App Store</tspan></tspan></text></g></g><g id="SvgjsG1745" transform="translate(249.54677113427033,173.5)"><path id="SvgjsPath1746" d="M 0 4Q 0 0 4 0L 140 0Q 144 0 144 4L 144 50Q 144 54 140 54L 4 54Q 0 54 0 50Z" stroke="rgba(33,41,48,1)" stroke-width="1.5" fill-opacity="1" fill="#ffffff"></path><g id="SvgjsG1747"><text id="SvgjsText1748" font-family="微软雅黑" text-anchor="middle" font-size="13px" width="124px" fill="#323232" font-weight="400" align="middle" lineHeight="125%" anchor="middle" family="微软雅黑" size="13px" weight="400" font-style="" opacity="1" y="16.375" transform="rotate(0)"><tspan id="SvgjsTspan1749" dy="16.25" x="72"><tspan id="SvgjsTspan1750" style="">protable.exe + .dll </tspan></tspan></text></g></g><g id="SvgjsG1751"><path id="SvgjsPath1752" d="M173.29677113427033 200.5L211.04677113427033 200.5L211.04677113427033 200.5L246.84677113427028 200.5" stroke="#323232" stroke-width="1.5" fill="none" marker-end="url(#SvgjsMarker1753)"></path><rect id="SvgjsRect1755" width="31" height="16" x="192.21007388656386" y="180" fill="#ffffff"></rect><text id="SvgjsText1756" font-family="微软雅黑" text-anchor="middle" font-size="13px" width="31px" fill="#323232" font-weight="400" align="top" lineHeight="16px" anchor="middle" family="微软雅黑" size="13px" weight="400" font-style="" opacity="1" y="177.375" transform="rotate(0)"><tspan id="SvgjsTspan1757" dy="16.25" x="207.71007388656386"><tspan id="SvgjsTspan1758" style="">msvc</tspan></tspan></text><rect id="SvgjsRect1759" width="32" height="16" x="189.58701503670932" y="205" fill="#ffffff"></rect><text id="SvgjsText1760" font-family="微软雅黑" text-anchor="middle" font-size="13px" width="32px" fill="#323232" font-weight="400" align="top" lineHeight="16px" anchor="middle" family="微软雅黑" size="13px" weight="400" font-style="" opacity="1" y="202.375" transform="rotate(0)"><tspan id="SvgjsTspan1761" dy="16.25" x="205.58701503670932"><tspan id="SvgjsTspan1762" style="">build</tspan></tspan></text></g><g id="SvgjsG1763" transform="translate(508.04677113427033,173.5)"><path id="SvgjsPath1764" d="M 0 4Q 0 0 4 0L 135.5 0Q 139.5 0 139.5 4L 139.5 50Q 139.5 54 135.5 54L 4 54Q 0 54 0 50Z" stroke="rgba(33,41,48,1)" stroke-width="1.5" fill-opacity="1" fill="#ffffff"></path><g id="SvgjsG1765"><text id="SvgjsText1766" font-family="微软雅黑" text-anchor="middle" font-size="13px" width="120px" fill="#323232" font-weight="400" align="middle" lineHeight="125%" anchor="middle" family="微软雅黑" size="13px" weight="400" font-style="" opacity="1" y="16.375" transform="rotate(0)"><tspan id="SvgjsTspan1767" dy="16.25" x="70"><tspan id="SvgjsTspan1768" style="">setup.exe</tspan></tspan></text></g></g><g id="SvgjsG1769" transform="translate(996.5467711342703,113.5)"><path id="SvgjsPath1770" d="M 0 4Q 0 0 4 0L 110 0Q 114 0 114 4L 114 50Q 114 54 110 54L 4 54Q 0 54 0 50Z" stroke="rgba(33,41,48,1)" stroke-width="1.5" fill-opacity="1" fill="#ffffff"></path><g id="SvgjsG1771"><text id="SvgjsText1772" font-family="微软雅黑" text-anchor="middle" font-size="13px" width="94px" fill="#323232" font-weight="400" align="middle" lineHeight="125%" anchor="middle" family="微软雅黑" size="13px" weight="400" font-style="" opacity="1" y="16.375" transform="rotate(0)"><tspan id="SvgjsTspan1773" dy="16.25" x="57"><tspan id="SvgjsTspan1774" style="">new setup.exe</tspan></tspan></text></g></g><g id="SvgjsG1775"><path id="SvgjsPath1776" d="M394.29677113427033 200.5L450.79677113427033 200.5L450.79677113427033 200.5L505.3467711342703 200.5" stroke="#323232" stroke-width="1.5" fill="none" marker-end="url(#SvgjsMarker1777)"></path><rect id="SvgjsRect1779" width="68" height="16" x="414.6698001799134" y="180" fill="#ffffff"></rect><text id="SvgjsText1780" font-family="微软雅黑" text-anchor="middle" font-size="13px" width="68px" fill="#323232" font-weight="400" align="top" lineHeight="16px" anchor="middle" family="微软雅黑" size="13px" weight="400" font-style="" opacity="1" y="177.375" transform="rotate(0)"><tspan id="SvgjsTspan1781" dy="16.25" x="448.6698001799134"><tspan id="SvgjsTspan1782" style="">Inno Setup</tspan></tspan></text><rect id="SvgjsRect1783" width="25" height="16" x="440.6107084165003" y="205" fill="#ffffff"></rect><text id="SvgjsText1784" font-family="微软雅黑" text-anchor="middle" font-size="13px" width="25px" fill="#323232" font-weight="400" align="top" lineHeight="16px" anchor="middle" family="微软雅黑" size="13px" weight="400" font-style="" opacity="1" y="202.375" transform="rotate(0)"><tspan id="SvgjsTspan1785" dy="16.25" x="453.1107084165003"><tspan id="SvgjsTspan1786" style="">*.iss</tspan></tspan></text></g><g id="SvgjsG1787" transform="translate(1709.7977016660902,100.5)"><path id="SvgjsPath1788" d="M 41.16666793823242 77C -13.722222646077476 77 -13.722222646077476 0 41.16666793823242 0C 96.05555852254233 0 96.05555852254233 77 41.16666793823242 77L 82.33333587646484 77Z" stroke="rgba(33,41,48,1)" stroke-width="1.5" fill-opacity="1" fill="#ffffff"></path><g id="SvgjsG1789"><text id="SvgjsText1790" font-family="微软雅黑" text-anchor="middle" font-size="13px" width="63px" fill="#323232" font-weight="400" align="middle" lineHeight="125%" anchor="middle" family="微软雅黑" size="13px" weight="400" font-style="" opacity="1" y="27.875" transform="rotate(0)"><tspan id="SvgjsTspan1791" dy="16.25" x="41.5"><tspan id="SvgjsTspan1792" style="">Users</tspan></tspan></text></g></g><g id="SvgjsG1793"><path id="SvgjsPath1794" d="M1792.881037542555 139L1832.3389043384127 139L1832.3389043384127 139L1869.8467711342705 139" stroke-dasharray="3,3" stroke="#5b79e8" stroke-width="1.5" fill="none" marker-end="url(#SvgjsMarker1795)"></path><rect id="SvgjsRect1797" width="37" height="16" x="1816.588052738012" y="118.5" fill="#ffffff"></rect><text id="SvgjsText1798" font-family="微软雅黑" text-anchor="middle" font-size="13px" width="37px" fill="#323232" font-weight="400" align="top" lineHeight="16px" anchor="middle" family="微软雅黑" size="13px" weight="400" font-style="" opacity="1" y="115.875" transform="rotate(0)"><tspan id="SvgjsTspan1799" dy="16.25" x="1835.088052738012"><tspan id="SvgjsTspan1800" style="">Install</tspan></tspan></text></g><g id="SvgjsG1801" transform="translate(1872.5467711342703,96.5)"><path id="SvgjsPath1802" d="M 0 42.5L 116.5 0L 233 42.5L 116.5 85L 0 42.5Z" stroke="rgba(33,41,48,1)" stroke-width="1.5" fill-opacity="1" fill="#ffffff"></path><g id="SvgjsG1803"><text id="SvgjsText1804" font-family="微软雅黑" text-anchor="middle" font-size="13px" width="213px" fill="#323232" font-weight="400" align="middle" lineHeight="125%" anchor="middle" family="微软雅黑" size="13px" weight="400" font-style="" opacity="1" y="31.875" transform="rotate(0)"><tspan id="SvgjsTspan1805" dy="16.25" x="116.5"><tspan id="SvgjsTspan1806" style="">MS中信誉值积累足够？</tspan></tspan></text></g></g><g id="SvgjsG1807" transform="translate(2154.029176860385,202.5)"><path id="SvgjsPath1808" d="M 0 4Q 0 0 4 0L 152 0Q 156 0 156 4L 156 50Q 156 54 152 54L 4 54Q 0 54 0 50Z" stroke="rgba(33,41,48,1)" stroke-width="1.5" fill-opacity="1" fill="#ffffff"></path><g id="SvgjsG1809"><text id="SvgjsText1810" font-family="微软雅黑" text-anchor="middle" font-size="13px" width="136px" fill="#323232" font-weight="400" align="middle" lineHeight="125%" anchor="middle" family="微软雅黑" size="13px" weight="400" font-style="" opacity="1" y="16.375" transform="rotate(0)"><tspan id="SvgjsTspan1811" dy="16.25" x="78"><tspan id="SvgjsTspan1812" style="">MS Store上架成功</tspan></tspan></text></g></g><g id="SvgjsG1813"><path id="SvgjsPath1814" d="M1989.0467711342703 182.25L1989.0467711342703 192L1989.0467711342703 192L1989.0467711342703 199.79999999999995" stroke="#323232" stroke-width="1.5" fill="none" marker-end="url(#SvgjsMarker1815)"></path><rect id="SvgjsRect1817" width="13" height="16" x="1993.5467711342703" y="186.46187499999996" fill="#ffffff"></rect><text id="SvgjsText1818" font-family="微软雅黑" text-anchor="middle" font-size="13px" width="13px" fill="#323232" font-weight="400" align="top" lineHeight="16px" anchor="middle" family="微软雅黑" size="13px" weight="400" font-style="" opacity="1" y="183.83687499999996" transform="rotate(0)"><tspan id="SvgjsTspan1819" dy="16.25" x="2000.0467711342703"><tspan id="SvgjsTspan1820" style="">是</tspan></tspan></text></g><g id="SvgjsG1821"><path id="SvgjsPath1822" d="M1989.0467711342703 95.75L1989.0467711342703 48L1053.5467711342703 48L1053.5467711342703 110.79999999999995" stroke-dasharray="3,3" stroke="#5b79e8" stroke-width="1.5" fill="none" marker-end="url(#SvgjsMarker1823)"></path><rect id="SvgjsRect1825" width="108" height="16" x="1458.3466348944885" y="27.5" fill="#ffffff"></rect><text id="SvgjsText1826" font-family="微软雅黑" text-anchor="middle" font-size="13px" width="108px" fill="#323232" font-weight="400" align="top" lineHeight="16px" anchor="middle" family="微软雅黑" size="13px" weight="400" font-style="" opacity="1" y="24.875" transform="rotate(0)"><tspan id="SvgjsTspan1827" dy="16.25" x="1512.3466348944885"><tspan id="SvgjsTspan1828" style="">否， 需要持续积累</tspan></tspan></text></g><g id="SvgjsG1829" transform="translate(653.5467711342703,173.5)"><path id="SvgjsPath1830" d="M 0 0L 163 0L 163 32L 0 32Z" stroke="none" fill="none"></path><g id="SvgjsG1831"><text id="SvgjsText1832" font-family="微软雅黑" text-anchor="middle" font-size="13px" width="163px" fill="#323232" font-weight="400" align="middle" lineHeight="125%" anchor="middle" family="微软雅黑" size="13px" weight="400" font-style="" opacity="1" y="5.375" transform="rotate(0)"><tspan id="SvgjsTspan1833" dy="16.25" x="81.5"><tspan id="SvgjsTspan1834" style="">Code Signing Certificate</tspan></tspan></text></g></g><g id="SvgjsG1835"><path id="SvgjsPath1836" d="M648.2967680817922 200.50213979157638L822.7967711342703 201L822.7967711342703 238.5L993.8467711342705 238.5" stroke="#323232" stroke-width="1.5" fill="none" marker-end="url(#SvgjsMarker1837)"></path><rect id="SvgjsRect1839" width="17" height="16" x="916.526208632507" y="243" fill="#ffffff"></rect><text id="SvgjsText1840" font-family="微软雅黑" text-anchor="middle" font-size="13px" width="17px" fill="#e74f4c" font-weight="700" align="top" lineHeight="16px" anchor="middle" family="微软雅黑" size="13px" weight="700" font-style="" opacity="1" y="240.375" transform="rotate(0)"><tspan id="SvgjsTspan1841" dy="16.25" x="925.026208632507"><tspan id="SvgjsTspan1842" style="">EV</tspan></tspan></text></g><g id="SvgjsG1843" transform="translate(996.5467711342703,211.5)"><path id="SvgjsPath1844" d="M 0 4Q 0 0 4 0L 110 0Q 114 0 114 4L 114 50Q 114 54 110 54L 4 54Q 0 54 0 50Z" stroke="rgba(33,41,48,1)" stroke-width="1.5" fill-opacity="1" fill="#ffffff"></path><g id="SvgjsG1845"><text id="SvgjsText1846" font-family="微软雅黑" text-anchor="middle" font-size="13px" width="94px" fill="#323232" font-weight="400" align="middle" lineHeight="125%" anchor="middle" family="微软雅黑" size="13px" weight="400" font-style="" opacity="1" y="16.375" transform="rotate(0)"><tspan id="SvgjsTspan1847" dy="16.25" x="57"><tspan id="SvgjsTspan1848" style="">new setup.exe</tspan></tspan></text></g></g><g id="SvgjsG1849" transform="translate(1431.9166819254551,479.6111111111112)"><path id="SvgjsPath1850" d="M 0 38.5L 100 0L 200 38.5L 100 77L 0 38.5Z" stroke="rgba(33,41,48,1)" stroke-width="1.5" fill-opacity="1" fill="#ffffff"></path><g id="SvgjsG1851"><text id="SvgjsText1852" font-family="微软雅黑" text-anchor="middle" font-size="13px" width="180px" fill="#323232" font-weight="400" align="middle" lineHeight="125%" anchor="middle" family="微软雅黑" size="13px" weight="400" font-style="" opacity="1" y="19.375" transform="rotate(0)"><tspan id="SvgjsTspan1853" dy="16.25" x="100"><tspan id="SvgjsTspan1854" style="">(无任何依赖的)</tspan></tspan><tspan id="SvgjsTspan1855" dy="16.25" x="100"><tspan id="SvgjsTspan1856" style="">纯净系统也能安装成功？</tspan></tspan></text></g></g><g id="SvgjsG1857" transform="translate(1939.9166819254551,479.6111111111112)"><path id="SvgjsPath1858" d="M 0 38.5L 99.61136350631705 0L 199.2227270126341 38.5L 99.61136350631705 77L 0 38.5Z" stroke="rgba(33,41,48,1)" stroke-width="1.5" fill-opacity="1" fill="#ffffff"></path><g id="SvgjsG1859"><text id="SvgjsText1860" font-family="微软雅黑" text-anchor="middle" font-size="13px" width="180px" fill="#323232" font-weight="400" align="middle" lineHeight="125%" anchor="middle" family="微软雅黑" size="13px" weight="400" font-style="" opacity="1" y="19.375" transform="rotate(0)"><tspan id="SvgjsTspan1861" dy="16.25" x="100"><tspan id="SvgjsTspan1862" style="">能够通过 MS Teams </tspan></tspan><tspan id="SvgjsTspan1863" dy="16.25" x="100"><tspan id="SvgjsTspan1864" style="">的功能测试？</tspan></tspan></text></g></g><g id="SvgjsG1865" transform="translate(1690.9166819254551,479.6111111111112)"><path id="SvgjsPath1866" d="M 0 38.5L 99.20833587646484 0L 198.4166717529297 38.5L 99.20833587646484 77L 0 38.5Z" stroke="rgba(33,41,48,1)" stroke-width="1.5" fill-opacity="1" fill="#ffffff"></path><g id="SvgjsG1867"><text id="SvgjsText1868" font-family="微软雅黑" text-anchor="middle" font-size="13px" width="179px" fill="#323232" font-weight="400" align="middle" lineHeight="125%" anchor="middle" family="微软雅黑" size="13px" weight="400" font-style="" opacity="1" y="19.375" transform="rotate(0)"><tspan id="SvgjsTspan1869" dy="16.25" x="99.5"><tspan id="SvgjsTspan1870" style="">有提供详细使用说明，作为审</tspan></tspan><tspan id="SvgjsTspan1871" dy="16.25" x="99.5"><tspan id="SvgjsTspan1872" style="">核人员的提示？</tspan></tspan></text></g></g><g id="SvgjsG1873"><path id="SvgjsPath1874" d="M1632.6666819254551 518.111111111112L1661.4166819254551 518.111111111112L1661.4166819254551 518.111111111112L1688.2166819254553 518.111111111112" stroke="#323232" stroke-width="1.5" fill="none" marker-end="url(#SvgjsMarker1875)"></path></g><g id="SvgjsG1877" transform="translate(949.8333536783848,479.6111111111112)"><path id="SvgjsPath1878" d="M 0 38.5L 100 0L 200 38.5L 100 77L 0 38.5Z" stroke="rgba(33,41,48,1)" stroke-width="1.5" fill-opacity="1" fill="#ffffff"></path><g id="SvgjsG1879"><text id="SvgjsText1880" font-family="微软雅黑" text-anchor="middle" font-size="13px" width="180px" fill="#323232" font-weight="400" align="middle" lineHeight="125%" anchor="middle" family="微软雅黑" size="13px" weight="400" font-style="" opacity="1" y="27.875" transform="rotate(0)"><tspan id="SvgjsTspan1881" dy="16.25" x="100"><tspan id="SvgjsTspan1882" style="">能静默安装？(必须)</tspan></tspan></text></g></g><g id="SvgjsG1883" transform="translate(1194.3333536783848,479.6111111111112)"><path id="SvgjsPath1884" d="M 0 38.5L 100 0L 200 38.5L 100 77L 0 38.5Z" stroke="rgba(33,41,48,1)" stroke-width="1.5" fill-opacity="1" fill="#ffffff"></path><g id="SvgjsG1885"><text id="SvgjsText1886" font-family="微软雅黑" text-anchor="middle" font-size="13px" width="180px" fill="#323232" font-weight="400" align="middle" lineHeight="125%" anchor="middle" family="微软雅黑" size="13px" weight="400" font-style="" opacity="1" y="27.875" transform="rotate(0)"><tspan id="SvgjsTspan1887" dy="16.25" x="100"><tspan id="SvgjsTspan1888" style="">隐私保护的 URL？</tspan></tspan></text></g></g><g id="SvgjsG1889"><path id="SvgjsPath1890" d="M1150.5833536783848 518.111111111112L1172.0833536783848 518.111111111112L1172.0833536783848 518.111111111112L1191.633353678385 518.111111111112" stroke="#323232" stroke-width="1.5" fill="none" marker-end="url(#SvgjsMarker1891)"></path></g><g id="SvgjsG1893" transform="translate(757.875033060709,491.111111111111)"><path id="SvgjsPath1894" d="M 0 4Q 0 0 4 0L 148.16665649414062 0Q 152.16665649414062 0 152.16665649414062 4L 152.16665649414062 50Q 152.16665649414062 54 148.16665649414062 54L 4 54Q 0 54 0 50Z" stroke="rgba(33,41,48,1)" stroke-width="1.5" fill-opacity="1" fill="#ffffff"></path><g id="SvgjsG1895"><text id="SvgjsText1896" font-family="微软雅黑" text-anchor="middle" font-size="13px" width="133px" fill="#323232" font-weight="400" align="middle" lineHeight="125%" anchor="middle" family="微软雅黑" size="13px" weight="400" font-style="" opacity="1" y="7.875" transform="rotate(0)"><tspan id="SvgjsTspan1897" dy="16.25" x="76.5"><tspan id="SvgjsTspan1898" style="">填写Microsoft所需资</tspan></tspan><tspan id="SvgjsTspan1899" dy="16.25" x="76.5"><tspan id="SvgjsTspan1900" style="">料和固定的尺寸截图</tspan></tspan></text></g></g><g id="SvgjsG1901"><path id="SvgjsPath1902" d="M683.4009102962627 518.111111111112L720.2629716784859 518.111111111112L720.2629716784859 518.111111111112L755.175033060709 518.111111111112" stroke="#323232" stroke-width="1.5" fill="none" marker-end="url(#SvgjsMarker1903)"></path></g><g id="SvgjsG1905"><path id="SvgjsPath1906" d="M648.2967711342703 200.5L822.0467711342703 200.5L822.0467711342703 140.5L993.8467711342705 140.5" stroke="#323232" stroke-width="1.5" fill="none" marker-end="url(#SvgjsMarker1907)"></path><rect id="SvgjsRect1909" width="157" height="16" x="841.6104074979069" y="120" fill="#ffffff"></rect><text id="SvgjsText1910" font-family="微软雅黑" text-anchor="middle" font-size="13px" width="157px" fill="#e74f4c" font-weight="700" align="top" lineHeight="16px" anchor="middle" family="微软雅黑" size="13px" weight="700" font-style="" opacity="1" y="117.375" transform="rotate(0)"><tspan id="SvgjsTspan1911" dy="16.25" x="920.1104074979069"><tspan id="SvgjsTspan1912" style="">Standard / Open Source</tspan></tspan></text></g><g id="SvgjsG1913" transform="translate(87.25001017252544,491.111111111111)"><path id="SvgjsPath1914" d="M 0 4Q 0 0 4 0L 148.16665649414062 0Q 152.16665649414062 0 152.16665649414062 4L 152.16665649414062 50Q 152.16665649414062 54 148.16665649414062 54L 4 54Q 0 54 0 50Z" stroke="rgba(33,41,48,1)" stroke-width="1.5" fill-opacity="1" fill="#ffffff"></path><g id="SvgjsG1915"><text id="SvgjsText1916" font-family="微软雅黑" text-anchor="middle" font-size="13px" width="133px" fill="#323232" font-weight="400" align="middle" lineHeight="125%" anchor="middle" family="微软雅黑" size="13px" weight="400" font-style="" opacity="1" y="7.875" transform="rotate(0)"><tspan id="SvgjsTspan1917" dy="16.25" x="76.5"><tspan id="SvgjsTspan1918" style="">注册 Microsoft </tspan></tspan><tspan id="SvgjsTspan1919" dy="16.25" x="76.5"><tspan id="SvgjsTspan1920" style="">Develop 账号</tspan></tspan></text></g></g><g id="SvgjsG1921"><path id="SvgjsPath1922" d="M240.16666666666606 518.111111111112L285.3879564196968 518.111111111112L285.3879564196968 518.111111111112L328.65924617272753 518.111111111112" stroke="#323232" stroke-width="1.5" fill="none" marker-end="url(#SvgjsMarker1923)"></path><rect id="SvgjsRect1925" width="26" height="16" x="257.877256054506" y="497.611111111112" fill="#ffffff"></rect><text id="SvgjsText1926" font-family="微软雅黑" text-anchor="middle" font-size="13px" width="26px" fill="#323232" font-weight="400" align="top" lineHeight="16px" anchor="middle" family="微软雅黑" size="13px" weight="400" font-style="" opacity="1" y="494.986111111112" transform="rotate(0)"><tspan id="SvgjsTspan1927" dy="16.25" x="270.877256054506"><tspan id="SvgjsTspan1928" style="">上传</tspan></tspan></text></g><g id="SvgjsG1929"><path id="SvgjsPath1930" d="M1395.0833536783848 518.111111111112L1413.12501780192 518.111111111112L1413.12501780192 518.111111111112L1429.2166819254553 518.111111111112" stroke="#323232" stroke-width="1.5" fill="none" marker-end="url(#SvgjsMarker1931)"></path></g><g id="SvgjsG1933"><path id="SvgjsPath1934" d="M1890.0833536783848 518.111111111112L1914.62501780192 518.111111111112L1914.62501780192 518.111111111112L1937.2166819254553 518.111111111112" stroke="#323232" stroke-width="1.5" fill="none" marker-end="url(#SvgjsMarker1935)"></path></g><g id="SvgjsG1937"><path id="SvgjsPath1938" d="M910.7916895548497 518.111111111112L929.9375216166172 518.111111111112L929.9375216166172 518.111111111112L947.1333536783848 518.111111111112" stroke="#323232" stroke-width="1.5" fill="none" marker-end="url(#SvgjsMarker1939)"></path></g><g id="SvgjsG1941" transform="translate(1216.5467711342703,111.5)"><path id="SvgjsPath1942" d="M 0 4Q 0 0 4 0L 342.3333282470703 0Q 346.3333282470703 0 346.3333282470703 4L 346.3333282470703 148Q 346.3333282470703 152 342.3333282470703 152L 4 152Q 0 152 0 148Z" stroke="rgba(33,41,48,1)" stroke-width="1.5" fill-opacity="1" fill="#ffffff"></path><g id="SvgjsG1943"><text id="SvgjsText1944" font-family="微软雅黑" text-anchor="middle" font-size="13px" width="327px" fill="#323232" font-weight="400" align="middle" lineHeight="125%" anchor="middle" family="微软雅黑" size="13px" weight="400" font-style="" opacity="1" y="65.375" transform="rotate(0)"></text></g></g><g id="SvgjsG1945" transform="translate(1228.0912154091725,122.5)"><path id="SvgjsPath1946" d="M 0 4Q 0 0 4 0L 84.50740610758463 0Q 88.50740610758463 0 88.50740610758463 4L 88.50740610758463 39Q 88.50740610758463 43 84.50740610758463 43L 4 43Q 0 43 0 39Z" stroke="rgba(33,41,48,1)" stroke-width="1.5" fill-opacity="1" fill="#ffffff"></path><g id="SvgjsG1947"><text id="SvgjsText1948" font-family="微软雅黑" text-anchor="middle" font-size="13px" width="69px" fill="#323232" font-weight="400" align="middle" lineHeight="125%" anchor="middle" family="微软雅黑" size="13px" weight="400" font-style="" opacity="1" y="2.375" transform="rotate(0)"><tspan id="SvgjsTspan1949" dy="16.25" x="44.5"><tspan id="SvgjsTspan1950" style="">域名 + 备</tspan></tspan><tspan id="SvgjsTspan1951" dy="16.25" x="44.5"><tspan id="SvgjsTspan1952" style="">案</tspan></tspan></text></g></g><g id="SvgjsG1953" transform="translate(1345.459732204013,122.5)"><path id="SvgjsPath1954" d="M 0 4Q 0 0 4 0L 84.50740610758463 0Q 88.50740610758463 0 88.50740610758463 4L 88.50740610758463 39Q 88.50740610758463 43 84.50740610758463 43L 4 43Q 0 43 0 39Z" stroke="rgba(33,41,48,1)" stroke-width="1.5" fill-opacity="1" fill="#ffffff"></path><g id="SvgjsG1955"><text id="SvgjsText1956" font-family="微软雅黑" text-anchor="middle" font-size="13px" width="69px" fill="#323232" font-weight="400" align="middle" lineHeight="125%" anchor="middle" family="微软雅黑" size="13px" weight="400" font-style="" opacity="1" y="2.375" transform="rotate(0)"><tspan id="SvgjsTspan1957" dy="16.25" x="44.5"><tspan id="SvgjsTspan1958" style="">购买云存储</tspan></tspan><tspan id="SvgjsTspan1959" dy="16.25" x="44.5"><tspan id="SvgjsTspan1960" style="">对象</tspan></tspan></text></g></g><g id="SvgjsG1961" transform="translate(1229.5342709435354,181.5)"><path id="SvgjsPath1962" d="M 0 4Q 0 0 4 0L 84.50740610758463 0Q 88.50740610758463 0 88.50740610758463 4L 88.50740610758463 39Q 88.50740610758463 43 84.50740610758463 43L 4 43Q 0 43 0 39Z" stroke="rgba(33,41,48,1)" stroke-width="1.5" fill-opacity="1" fill="#ffffff"></path><g id="SvgjsG1963"><text id="SvgjsText1964" font-family="微软雅黑" text-anchor="middle" font-size="13px" width="69px" fill="#323232" font-weight="400" align="middle" lineHeight="125%" anchor="middle" family="微软雅黑" size="13px" weight="400" font-style="" opacity="1" y="2.375" transform="rotate(0)"><tspan id="SvgjsTspan1965" dy="16.25" x="44.5"><tspan id="SvgjsTspan1966" style="">EXE 签名后</tspan></tspan><tspan id="SvgjsTspan1967" dy="16.25" x="44.5"><tspan id="SvgjsTspan1968" style="">上传</tspan></tspan></text></g></g><g id="SvgjsG1969" transform="translate(1340.6495470894706,181.5)"><path id="SvgjsPath1970" d="M 0 4Q 0 0 4 0L 84.50740610758463 0Q 88.50740610758463 0 88.50740610758463 4L 88.50740610758463 39Q 88.50740610758463 43 84.50740610758463 43L 4 43Q 0 43 0 39Z" stroke="rgba(33,41,48,1)" stroke-width="1.5" fill-opacity="1" fill="#ffffff"></path><g id="SvgjsG1971"><text id="SvgjsText1972" font-family="微软雅黑" text-anchor="middle" font-size="13px" width="69px" fill="#323232" font-weight="400" align="middle" lineHeight="125%" anchor="middle" family="微软雅黑" size="13px" weight="400" font-style="" opacity="1" y="2.375" transform="rotate(0)"><tspan id="SvgjsTspan1973" dy="16.25" x="44.5"><tspan id="SvgjsTspan1974" style="">确保可公网</tspan></tspan><tspan id="SvgjsTspan1975" dy="16.25" x="44.5"><tspan id="SvgjsTspan1976" style="">下载</tspan></tspan></text></g></g><g id="SvgjsG1977" transform="translate(1458.9801009072194,122.5)"><path id="SvgjsPath1978" d="M 0 4Q 0 0 4 0L 84.50740610758463 0Q 88.50740610758463 0 88.50740610758463 4L 88.50740610758463 39Q 88.50740610758463 43 84.50740610758463 43L 4 43Q 0 43 0 39Z" stroke="rgba(33,41,48,1)" stroke-width="1.5" fill-opacity="1" fill="#ffffff"></path><g id="SvgjsG1979"><text id="SvgjsText1980" font-family="微软雅黑" text-anchor="middle" font-size="13px" width="69px" fill="#323232" font-weight="400" align="middle" lineHeight="125%" anchor="middle" family="微软雅黑" size="13px" weight="400" font-style="" opacity="1" y="2.375" transform="rotate(0)"><tspan id="SvgjsTspan1981" dy="16.25" x="44.5"><tspan id="SvgjsTspan1982" style="">必须 </tspan></tspan><tspan id="SvgjsTspan1983" dy="16.25" x="44.5"><tspan id="SvgjsTspan1984" style="">https(SSL)</tspan></tspan></text></g></g><g id="SvgjsG1985" transform="translate(1329.5861213260227,234.5)"><path id="SvgjsPath1986" d="M 0 0L 120.25462786356607 0L 120.25462786356607 22L 0 22Z" stroke="none" fill="none"></path><g id="SvgjsG1987"><text id="SvgjsText1988" font-family="微软雅黑" text-anchor="middle" font-size="13px" width="121px" fill="#323232" font-weight="400" align="middle" lineHeight="125%" anchor="middle" family="微软雅黑" size="13px" weight="400" font-style="" opacity="1" y="0.375" transform="rotate(0)"><tspan id="SvgjsTspan1989" dy="16.25" x="60.5"><tspan id="SvgjsTspan1990" style="">提供 Https 直链下载</tspan></tspan></text></g></g><g id="SvgjsG1991"><path id="SvgjsPath1992" d="M1111.2967711342703 140.5L1163.7256595837334 140.5L1163.7256595837334 140.5L1214.2045480331967 140.5" stroke-dasharray="3,3" stroke="#5b79e8" stroke-width="1.5" fill="none" marker-end="url(#SvgjsMarker1993)"></path></g><g id="SvgjsG1995"><path id="SvgjsPath1996" d="M1111.2967711342703 238.5L1165.2134352578055 238.5L1165.2134352578055 238.5L1219.8800993813406 238.5" stroke="#871fbf" stroke-width="1.5" fill="none" marker-end="url(#SvgjsMarker1997)"></path></g><g id="SvgjsG1999" transform="translate(1151.0467711342703,172.08331298828125)"><path id="SvgjsPath2000" d="M 0 0L 64.83332824707031 0L 64.83332824707031 30.8333740234375L 0 30.8333740234375Z" stroke="none" fill="none"></path><g id="SvgjsG2001"><text id="SvgjsText2002" font-family="微软雅黑" text-anchor="middle" font-size="13px" width="65px" fill="#323232" font-weight="400" align="middle" lineHeight="125%" anchor="middle" family="微软雅黑" size="13px" weight="400" font-style="" opacity="1" y="4.79168701171875" transform="rotate(0)"><tspan id="SvgjsTspan2003" dy="16.25" x="32.5"><tspan id="SvgjsTspan2004" style="">Upload</tspan></tspan></text></g></g><g id="SvgjsG2005" transform="translate(1912.9634428872,202.5)"><path id="SvgjsPath2006" d="M 0 4Q 0 0 4 0L 148.16665649414062 0Q 152.16665649414062 0 152.16665649414062 4L 152.16665649414062 50Q 152.16665649414062 54 148.16665649414062 54L 4 54Q 0 54 0 50Z" stroke="rgba(33,41,48,1)" stroke-width="1.5" fill-opacity="1" fill="#d2d6f9"></path><g id="SvgjsG2007"><text id="SvgjsText2008" font-family="微软雅黑" text-anchor="middle" font-size="13px" width="133px" fill="#323232" font-weight="400" align="middle" lineHeight="125%" anchor="middle" family="微软雅黑" size="13px" weight="400" font-style="" opacity="1" y="7.875" transform="rotate(0)"><tspan id="SvgjsTspan2009" dy="16.25" x="76.5"><tspan id="SvgjsTspan2010" style="">Microsoft team </tspan></tspan><tspan id="SvgjsTspan2011" dy="16.25" x="76.5"><tspan id="SvgjsTspan2012" style="">members 审核</tspan></tspan></text></g></g><g id="SvgjsG2013"><path id="SvgjsPath2014" d="M1562.6301070107352 229.5L1737.4217749489676 229.5L1737.4217749489676 229.5L1910.2634428872002 229.5" stroke="#871fbf" stroke-width="1.5" fill="none" marker-end="url(#SvgjsMarker2015)"></path><rect id="SvgjsRect2017" width="24" height="16" x="1715.574908825448" y="234" fill="#ffffff"></rect><text id="SvgjsText2018" font-family="微软雅黑" text-anchor="middle" font-size="13px" width="24px" fill="#323232" font-weight="400" align="top" lineHeight="16px" anchor="middle" family="微软雅黑" size="13px" weight="400" font-style="" opacity="1" y="231.375" transform="rotate(0)"><tspan id="SvgjsTspan2019" dy="16.25" x="1727.574908825448"><tspan id="SvgjsTspan2020" style="">Test</tspan></tspan></text></g><g id="SvgjsG2021"><path id="SvgjsPath2022" d="M1565.8801070107352 139L1637.8389043384127 139L1637.8389043384127 139L1707.0977016660904 139" stroke-dasharray="3,3" stroke="#5b79e8" stroke-width="1.5" fill="none" marker-end="url(#SvgjsMarker2023)"></path><rect id="SvgjsRect2025" width="63" height="16" x="1612.5818646027" y="118.5" fill="#ffffff"></rect><text id="SvgjsText2026" font-family="微软雅黑" text-anchor="middle" font-size="13px" width="63px" fill="#323232" font-weight="400" align="top" lineHeight="16px" anchor="middle" family="微软雅黑" size="13px" weight="400" font-style="" opacity="1" y="115.875" transform="rotate(0)"><tspan id="SvgjsTspan2027" dy="16.25" x="1644.0818646027"><tspan id="SvgjsTspan2028" style="">Download</tspan></tspan></text></g><g id="SvgjsG2029"><path id="SvgjsPath2030" d="M2065.8800993813406 229.5L2109.579638120863 229.5L2109.579638120863 229.5L2151.3291768603854 229.5" stroke="#323232" stroke-width="1.5" fill="none" marker-end="url(#SvgjsMarker2031)"></path></g><g id="SvgjsG2033" transform="translate(99.33335367838481,386.3194851345486)"><path id="SvgjsPath2034" d="M 0 0L 127.99996948242188 0L 127.99996948242188 81.25L 0 81.25Z" stroke="none" fill="none"></path><g id="SvgjsG2035"><text id="SvgjsText2036" font-family="微软雅黑" text-anchor="middle" font-size="13px" width="128px" fill="#323232" font-weight="700" align="middle" lineHeight="125%" anchor="middle" family="微软雅黑" size="13px" weight="700" font-style="" opacity="1" y="21.5" transform="rotate(0)"><tspan id="SvgjsTspan2037" dy="16.25" x="64"><tspan id="SvgjsTspan2038" style="fill: rgb(135, 31, 191);">Microsoft team </tspan></tspan><tspan id="SvgjsTspan2039" dy="16.25" x="64"><tspan id="SvgjsTspan2040" style="fill: rgb(135, 31, 191);">members 审核详细</tspan></tspan></text></g></g><g id="SvgjsG2041" transform="translate(72.54677113427033,77.26388888888891)"><path id="SvgjsPath2042" d="M 0 0L 193.85187445746533 0L 193.85187445746533 59.976857503255246L 0 59.976857503255246Z" stroke="none" fill="none"></path><g id="SvgjsG2043"><text id="SvgjsText2044" font-family="微软雅黑" text-anchor="middle" font-size="14px" width="194px" fill="#7bd144" font-weight="400" align="middle" lineHeight="125%" anchor="middle" family="微软雅黑" size="14px" weight="400" font-style="" opacity="1" y="-7.761571248372377" transform="rotate(0)"><tspan id="SvgjsTspan2045" dy="17.5" x="97"><tspan id="SvgjsTspan2046" style="font-weight: bold;">上架 Microsoft Store 流程</tspan></tspan><tspan id="SvgjsTspan2047" dy="17.5" x="97"><tspan id="SvgjsTspan2048" style=""> </tspan></tspan><tspan id="SvgjsTspan2049" dy="17.5" x="97"><tspan id="SvgjsTspan2050" style="font-weight: bold;">@GitHub XMuli </tspan></tspan><tspan id="SvgjsTspan2051" dy="17.5" x="97"><tspan id="SvgjsTspan2052" style="font-weight: bold;">偕臧 2024.02.19</tspan></tspan></text></g></g><g id="SvgjsG2053" transform="translate(2189.7227371851595,493.37961832682277)"><path id="SvgjsPath2054" d="M 0 4Q 0 0 4 0L 115.04215365515802 0Q 119.04215365515802 0 119.04215365515802 4L 119.04215365515802 45.462985568576414Q 119.04215365515802 49.462985568576414 115.04215365515802 49.462985568576414L 4 49.462985568576414Q 0 49.462985568576414 0 45.462985568576414Z" stroke="rgba(33,41,48,1)" stroke-width="1.5" fill-opacity="1" fill="#ffffff"></path><g id="SvgjsG2055"><text id="SvgjsText2056" font-family="微软雅黑" text-anchor="middle" font-size="13px" width="100px" fill="#323232" font-weight="400" align="middle" lineHeight="125%" anchor="middle" family="微软雅黑" size="13px" weight="400" font-style="" opacity="1" y="14.106492784288207" transform="rotate(0)"><tspan id="SvgjsTspan2057" dy="16.25" x="60"><tspan id="SvgjsTspan2058" style="">Approved</tspan></tspan></text></g></g><g id="SvgjsG2059"><path id="SvgjsPath2060" d="M2139.889408938089 518.111111111112L2164.4310730616244 518.111111111112L2164.4310730616244 518.111111111112L2187.0227371851597 518.111111111112" stroke="#323232" stroke-width="1.5" fill="none" marker-end="url(#SvgjsMarker2061)"></path></g><g id="SvgjsG2063" transform="translate(450.88010446760313,601.944525824654)"><path id="SvgjsPath2064" d="M 0 4Q 0 0 4 0L 141.55555555555566 0Q 145.55555555555566 0 145.55555555555566 4L 145.55555555555566 25.740681966145985Q 145.55555555555566 29.740681966145985 141.55555555555566 29.740681966145985L 4 29.740681966145985Q 0 29.740681966145985 0 25.740681966145985Z" stroke="rgba(33,41,48,1)" stroke-width="1.5" fill-opacity="1" fill="#ffffff"></path><g id="SvgjsG2065"><text id="SvgjsText2066" font-family="微软雅黑" text-anchor="middle" font-size="13px" width="126px" fill="#323232" font-weight="400" align="middle" lineHeight="125%" anchor="middle" family="微软雅黑" size="13px" weight="400" font-style="" opacity="1" y="4.2453409830729925" transform="rotate(0)"><tspan id="SvgjsTspan2067" dy="16.25" x="73"><tspan id="SvgjsTspan2068" style="">自行修改</tspan></tspan></text></g></g><g id="SvgjsG2069"><path id="SvgjsPath2070" d="M450.2239886999148 616.8148668077272L276.9171867158673 616.8148668077272L276.9171867158673 521.6852077907995L283.5838533825338 521.6852077907995" stroke="#323232" stroke-width="1.5" fill="none" marker-end="url(#SvgjsMarker2071)"></path></g><g id="SvgjsG2073"><path id="SvgjsPath2074" d="M2039.5280454317722 557.361111111112L2039.5280454317722 617.925977918838L605.3245489120477 617.925977918838L605.3245489120477 616.8148668077272L599.1356600231588 616.8148668077272" stroke="#323232" stroke-width="1.5" fill="none" marker-end="url(#SvgjsMarker2075)"></path><rect id="SvgjsRect2077" width="13" height="16" x="2044.0280454317722" y="582.0637763322529" fill="#ffffff"></rect><text id="SvgjsText2078" font-family="微软雅黑" text-anchor="middle" font-size="13px" width="13px" fill="#323232" font-weight="400" align="top" lineHeight="16px" anchor="middle" family="微软雅黑" size="13px" weight="400" font-style="" opacity="1" y="579.4387763322529" transform="rotate(0)"><tspan id="SvgjsTspan2079" dy="16.25" x="2050.528045431772"><tspan id="SvgjsTspan2080" style="">否</tspan></tspan></text></g><g id="SvgjsG2081"><path id="SvgjsPath2082" d="M1049.8333536783848 557.361111111112L1049.8333536783848 584.148159450956L1049.8333536783848 584.148159450956L1049.8333536783848 611.6852077908" stroke="#323232" stroke-width="1.5" fill="none" marker-end="url(#SvgjsMarker2083)"></path><rect id="SvgjsRect2085" width="13" height="16" x="1054.3333536783848" y="577.7469926139704" fill="#ffffff"></rect><text id="SvgjsText2086" font-family="微软雅黑" text-anchor="middle" font-size="13px" width="13px" fill="#323232" font-weight="400" align="top" lineHeight="16px" anchor="middle" family="微软雅黑" size="13px" weight="400" font-style="" opacity="1" y="575.1219926139704" transform="rotate(0)"><tspan id="SvgjsTspan2087" dy="16.25" x="1060.8333536783848"><tspan id="SvgjsTspan2088" style="">否</tspan></tspan></text></g><g id="SvgjsG2089"><path id="SvgjsPath2090" d="M1294.3333536783848 557.361111111112L1294.3333536783848 587.4814927842892L1294.3333536783848 587.4814927842892L1294.3333536783848 618.3518744574665" stroke="#323232" stroke-width="1.5" fill="none" marker-end="url(#SvgjsMarker2091)"></path><rect id="SvgjsRect2093" width="13" height="16" x="1298.8333536783848" y="579.7650138008247" fill="#ffffff"></rect><text id="SvgjsText2094" font-family="微软雅黑" text-anchor="middle" font-size="13px" width="13px" fill="#323232" font-weight="400" align="top" lineHeight="16px" anchor="middle" family="微软雅黑" size="13px" weight="400" font-style="" opacity="1" y="577.1400138008247" transform="rotate(0)"><tspan id="SvgjsTspan2095" dy="16.25" x="1305.3333536783848"><tspan id="SvgjsTspan2096" style="">否</tspan></tspan></text></g><g id="SvgjsG2097"><path id="SvgjsPath2098" d="M1531.9166819254551 557.361111111112L1531.9166819254551 584.148159450956L1531.9166819254551 584.148159450956L1531.9166819254551 611.6852077908" stroke="#323232" stroke-width="1.5" fill="none" marker-end="url(#SvgjsMarker2099)"></path><rect id="SvgjsRect2101" width="13" height="16" x="1536.4166819254551" y="579.71975657942" fill="#ffffff"></rect><text id="SvgjsText2102" font-family="微软雅黑" text-anchor="middle" font-size="13px" width="13px" fill="#323232" font-weight="400" align="top" lineHeight="16px" anchor="middle" family="微软雅黑" size="13px" weight="400" font-style="" opacity="1" y="577.09475657942" transform="rotate(0)"><tspan id="SvgjsTspan2103" dy="16.25" x="1542.9166819254551"><tspan id="SvgjsTspan2104" style="">否</tspan></tspan></text></g><g id="SvgjsG2105"><path id="SvgjsPath2106" d="M1790.12501780192 557.361111111112L1790.12501780192 585.8148261176225L1790.12501780192 585.8148261176225L1790.12501780192 615.018541124133" stroke="#323232" stroke-width="1.5" fill="none" marker-end="url(#SvgjsMarker2107)"></path><rect id="SvgjsRect2109" width="13" height="16" x="1794.62501780192" y="575.7950399414383" fill="#ffffff"></rect><text id="SvgjsText2110" font-family="微软雅黑" text-anchor="middle" font-size="13px" width="13px" fill="#323232" font-weight="400" align="top" lineHeight="16px" anchor="middle" family="微软雅黑" size="13px" weight="400" font-style="" opacity="1" y="573.1700399414383" transform="rotate(0)"><tspan id="SvgjsTspan2111" dy="16.25" x="1801.12501780192"><tspan id="SvgjsTspan2112" style="">否</tspan></tspan></text></g></svg>