<?xml version="1.0" standalone="no"?><!DOCTYPE svg PUBLIC "-//W3C//DTD SVG 1.1//EN" "http://www.w3.org/Graphics/SVG/1.1/DTD/svg11.dtd"><svg t="1596946743889" class="icon" viewBox="0 0 1024 1024" version="1.1" xmlns="http://www.w3.org/2000/svg" p-id="9243" xmlns:xlink="http://www.w3.org/1999/xlink" width="32" height="32"><defs><style type="text/css"></style></defs><path d="M587.1104 781.5424a655.2064 655.2064 0 0 0 266.4448-89.9072l-21.1968-32.9984a615.5776 615.5776 0 0 1-249.2928 84.3264 399.7184 399.7184 0 0 1-1.6128-17.408 1271.808 1271.808 0 0 1 0-204.7744l1.6128-21.0432h-119.7568a1780.608 1780.608 0 0 1 104.2176-409.3184H105.4464C68.4288 90.3936 38.4 119.5008 38.4 155.3664v726.6304c0 29.2352 24.5504 53.0176 54.7072 53.0176H615.68c-0.6656-2.2016-1.0752-4.3008-1.7408-6.5024a1334.3744 1334.3744 0 0 1-26.8288-146.9696z" fill="#98CCFD" p-id="9244"></path><path d="M632.9088 947.7888H93.1072C55.8848 947.7888 25.6 918.272 25.6 881.9968V155.3664c0-42.88 35.8144-77.7728 79.8464-77.7728h481.4592l-7.5776 17.8176a1774.6944 1774.6944 0 0 0-66.4064 210.5088 1741.0048 1741.0048 0 0 0-34.9184 180.9408h118.912l-2.6624 34.816a1259.1616 1259.1616 0 0 0 0 202.8032c0.0768 1.408 0.2048 2.7648 0.3072 4.1472a607.3344 607.3344 0 0 0 231.2448-81.024l10.6496-6.4 34.9952 54.528-11.2384 6.8096a669.696 669.696 0 0 1-258.7136 90.1376c6.016 44.4416 14.3872 89.0624 24.9088 132.7872l6.5024 22.3232zM105.4464 103.1936C75.5456 103.1936 51.2 126.592 51.2 155.3664v726.6304c0 22.1696 18.7904 40.192 41.9072 40.192H599.296a1351.04 1351.04 0 0 1-24.9088-139.0592l-1.6128-12.9024 12.9024-1.4336a644.7616 644.7616 0 0 0 249.9072-81.4848l-7.3728-11.4432a632.1664 632.1664 0 0 1-243.7632 79.7696l-12.6976 1.408-1.4336-12.672a425.8304 425.8304 0 0 1-1.6384-17.9712 1289.7536 1289.7536 0 0 1 0-206.6944l0.5376-7.2192H448.768l1.8944-14.4384a1769.4464 1769.4464 0 0 1 37.4016-198.2976 1810.7392 1810.7392 0 0 1 60.8512-196.5568H105.4464z" fill="#4788C7" p-id="9245"></path><path d="M930.5856 91.5968H557.9008a1818.8288 1818.8288 0 0 0-102.144 408.832h120.3712l-1.6128 21.376a1304.1664 1304.1664 0 0 0 0 207.8464c0.4096 5.9392 0.9472 11.7248 1.6128 17.664a615.168 615.168 0 0 0 250.5728-85.5808l21.2992 33.4848a654.592 654.592 0 0 1-267.8272 91.264 1365.9648 1365.9648 0 0 0 26.9568 149.1456h323.4816c26.5472 0 48.256-21.2224 48.256-47.2064V138.8032c-0.0256-25.984-21.7344-47.2064-48.2816-47.2064z m-153.9328 290.1248h-40.448V249.8304h40.448v131.8912z" fill="#DFF0FE" p-id="9246"></path><path d="M558.848 103.9616a1821.0048 1821.0048 0 0 0-60.1856 196.2496 1791.9232 1791.9232 0 0 0-37.3248 199.424h120.3712l-1.6128 21.3248a1299.3536 1299.3536 0 0 0 0 207.4624c0.4096 5.9136 0.9472 11.7248 1.6128 17.6384 1.0752 13.0304 2.56 26.0608 4.0448 39.0912a1362.5344 1362.5344 0 0 0 26.9568 148.8896c0.6656 2.2272 1.0752 4.352 1.7408 6.5792l1.6128 6.5792h-41.6512l-1.6128-6.5792c-0.5376-2.0992-0.9472-4.352-1.4848-6.5792a1331.84 1331.84 0 0 1-30.0544-184.9344 404.3776 404.3776 0 0 1-1.6128-17.5104 1367.808 1367.808 0 0 1-1.4848-192.4608h-122.24l2.56-21.9904a1869.1584 1869.1584 0 0 1 40.832-226.1504 1830.3232 1830.3232 0 0 1 61.056-199.424c0.8192-2.2272 1.6128-4.48 2.56-6.5792 0.6656-2.2272 1.6128-4.48 2.432-6.5792h43.264c-0.9472 2.2272-1.7408 4.352-2.56 6.5792a1771.4944 1771.4944 0 0 0-7.2192 18.9696" fill="#4788C7" p-id="9247"></path><path d="M852.7616 693.6064a654.592 654.592 0 0 1-267.8272 91.264 648.1664 648.1664 0 0 1-72.9088 4.096h-7.1424a656.384 656.384 0 0 1-333.8496-95.36l21.2992-33.4848a616.8832 616.8832 0 0 0 348.16 88.6272 566.1184 566.1184 0 0 0 40.448-3.0464 615.168 615.168 0 0 0 250.5728-85.5808l21.248 33.4848zM242.3296 248.2432h40.448v131.8912h-40.448z m495.488 2.4064h40.448v131.8912h-40.448z" fill="#4788C7" p-id="9248"></path><path d="M998.6048 141.0816v743.424a63.488 63.488 0 0 1-63.488 63.488h-319.744l-1.536-6.656c-0.768-2.304-1.024-4.352-1.792-6.656-1.024-4.096-2.048-8.192-2.816-12.288h325.888c20.992 0 37.888-16.896 37.888-37.888V141.0816c0-10.24-3.84-19.712-11.008-26.88-10.24-10.24-23.296-11.008-26.88-11.008h-376.832l4.608-12.288c0.768-2.304 1.536-4.352 2.56-6.656 0.768-2.304 1.536-4.352 2.56-6.656h367.104c7.936 0 28.16 1.792 44.8 18.688 12.0064 11.776 18.688 27.904 18.688 44.8z" fill="#4788C7" p-id="9249"></path></svg>