<?xml version="1.0" standalone="no"?><!DOCTYPE svg PUBLIC "-//W3C//DTD SVG 1.1//EN" "http://www.w3.org/Graphics/SVG/1.1/DTD/svg11.dtd"><svg t="1583925809257" class="icon" viewBox="0 0 1024 1024" version="1.1" xmlns="http://www.w3.org/2000/svg" p-id="8450" xmlns:xlink="http://www.w3.org/1999/xlink" width="32" height="32"><defs><style type="text/css"></style></defs><path d="M212.616533 433.3568v-2.2528c15.496533-3.754667 27.9552-12.151467 37.410134-25.224533 9.454933-13.073067 14.199467-28.842667 14.199466-47.3088 0-28.091733-10.8544-48.810667-32.5632-62.088534-21.7088-13.312-54.954667-19.933867-99.703466-19.933866H16.9984v329.454933h128.238933c38.741333 0 69.358933-8.6016 91.818667-25.8048 22.459733-17.2032 33.6896-40.721067 33.6896-70.656 0-20.104533-4.573867-36.488533-13.755733-49.083733-9.147733-12.6976-23.9616-21.7088-44.373334-27.101867z m-106.5984-89.463467h25.019734c27.921067 0 41.915733 9.250133 41.915733 27.7504 0 10.376533-3.515733 18.158933-10.478933 23.415467-6.997333 5.256533-16.861867 7.8848-29.627734 7.8848h-26.8288v-59.050667z m31.300267 193.3312h-31.300267v-69.188266h29.525334c14.1312 0 24.917333 2.935467 32.324266 8.8064 7.441067 5.8368 11.1616 14.2336 11.1616 25.224533 0 23.4496-13.892267 35.157333-41.710933 35.157333z m185.480533 68.744534h88.132267V255.317333H322.798933v350.651734z m332.868267-243.8144c-19.217067-10.683733-41.403733-16.008533-66.4576-16.008534-40.584533 0-72.0896 11.502933-94.549333 34.6112-22.459733 23.04-33.6896 55.3984-33.6896 97.006934 0 40.721067 11.434667 73.0112 34.372266 96.8704 22.903467 23.927467 53.76 35.874133 92.4672 35.874133 40.448 0 71.8848-11.707733 94.344534-35.054933 22.459733-23.3472 33.6896-55.944533 33.6896-97.6896 0-26.589867-5.2224-49.834667-15.6672-69.7344a109.294933 109.294933 0 0 0-44.509867-45.8752z m-37.9904 165.751466c-5.597867 11.502933-15.2576 17.237333-28.945067 17.237334-13.824 0-23.6544-5.7344-29.525333-17.237334-5.870933-11.502933-8.8064-28.194133-8.8064-50.141866 0-21.947733 2.935467-38.4 8.8064-49.4592 5.870933-11.025067 15.530667-16.554667 29.0816-16.554667 13.824 0 23.586133 5.563733 29.2864 16.6912 5.700267 11.093333 8.567467 27.5456 8.567467 49.322667 0 21.947733-2.798933 38.638933-8.465067 50.141866z m389.3248-177.2544h-89.019733a396.834133 396.834133 0 0 0-25.224534-2.935466 300.987733 300.987733 0 0 0-24.132266-1.570134c-35.1232 0-62.190933 7.645867-81.134934 22.971734-18.909867 15.325867-28.398933 36.898133-28.398933 64.648533 0 17.885867 3.7888 33.0752 11.400533 45.499733 7.611733 12.4928 17.988267 21.674667 31.197867 27.511467-13.789867 8.3968-22.903467 15.6672-27.272533 21.742933a35.4304 35.4304 0 0 0-6.519467 21.060267c0 7.202133 2.901333 14.506667 8.704 21.879467 5.768533 7.338667 12.561067 12.6976 20.3776 16.008533-37.853867 8.874667-56.763733 28.535467-56.763733 59.050667 0 22.664533 9.796267 40.072533 29.3888 52.1216 19.626667 12.0832 47.5136 18.1248 83.694933 18.1248 47.9232 0 85.162667-8.6016 111.684267-25.873067 26.5216-17.339733 39.799467-41.506133 39.799466-72.6016 0-48.196267-28.603733-72.328533-85.879466-72.328533H876.544c-11.434667 0-20.650667-1.160533-27.682133-3.4816-7.0656-2.321067-10.615467-5.700267-10.615467-10.069334 0-3.4816 1.024-7.133867 3.140267-11.0592 5.563733 1.2288 13.073067 1.877333 22.528 1.877334 38.331733 0 67.140267-7.611733 86.4256-22.801067 19.319467-15.1552 28.9792-36.522667 28.9792-64 0-11.5712-2.389333-21.7088-7.202134-30.4128l34.952534-12.868267v-42.496z m-158.651733 264.123734h34.474666c14.609067 0 25.770667 1.399467 33.5872 4.164266 7.816533 2.798933 11.707733 7.5776 11.707734 14.301867 0 8.430933-6.417067 15.291733-19.217067 20.616533-12.868267 5.290667-29.969067 7.9872-51.3024 7.9872-13.073067 0-23.517867-2.218667-31.300267-6.621866-7.816533-4.471467-11.741867-10.274133-11.741866-17.476267 0-6.485333 3.2768-11.946667 9.796266-16.349867a41.642667 41.642667 0 0 1 23.995734-6.621866z m40.6528-151.005867a22.528 22.528 0 0 1-19.456 9.693867c-18.193067 0-27.272533-13.073067-27.272534-39.2192s9.079467-39.2192 27.272534-39.2192c17.544533 0 26.3168 13.2096 26.3168 39.662933 0 12.936533-2.2528 22.6304-6.8608 29.0816z" fill="#707070" p-id="8451"></path></svg>