<?xml version="1.0" standalone="no"?><!DOCTYPE svg PUBLIC "-//W3C//DTD SVG 1.1//EN" "http://www.w3.org/Graphics/SVG/1.1/DTD/svg11.dtd"><svg t="1583925601384" class="icon" viewBox="0 0 1024 1024" version="1.1" xmlns="http://www.w3.org/2000/svg" p-id="1197" xmlns:xlink="http://www.w3.org/1999/xlink" width="32" height="32"><defs><style type="text/css"></style></defs><path d="M512 512m-480 0a480 480 0 1 0 960 0 480 480 0 1 0-960 0Z" p-id="1198" fill="#707070"></path><path d="M192 365.856h67.04c30.528 0 52.704 4.352 66.496 13.024 13.824 8.704 20.704 22.528 20.704 41.472 0 12.864-3.008 23.424-9.056 31.68-6.048 8.256-14.08 13.216-24.096 14.88v1.472c13.664 3.04 23.52 8.736 29.536 17.088 6.08 8.32 9.088 19.456 9.088 33.28 0 19.648-7.104 34.976-21.312 45.984-14.176 11.008-33.472 16.512-57.824 16.512H192v-215.392z m45.664 85.28h26.528c12.384 0 21.344-1.92 26.88-5.76 5.536-3.808 8.32-10.144 8.32-18.976 0-8.256-3.008-14.176-9.056-17.76-6.048-3.584-15.584-5.376-28.64-5.376h-24v47.872z m0 36.256v56.128h29.76c12.576 0 21.856-2.4 27.84-7.232 5.984-4.8 8.992-12.16 8.992-22.08 0-17.888-12.768-26.816-38.304-26.816h-28.288z m198.432 93.856h-44.928V352h44.928v229.248z m82.944-82.656c0 16.32 2.688 28.608 8.032 36.96 5.376 8.352 14.08 12.544 26.176 12.544 11.968 0 20.576-4.16 25.824-12.48 5.28-8.288 7.904-20.64 7.904-37.024 0-16.32-2.656-28.544-7.968-36.704-5.312-8.128-13.984-12.224-26.08-12.224-11.968 0-20.608 4.064-25.92 12.16-5.312 8.096-7.968 20.352-7.968 36.768z m113.92 0c0 26.816-7.104 47.776-21.248 62.912-14.144 15.104-33.824 22.688-59.072 22.688-15.808 0-29.76-3.488-41.824-10.4a69.12 69.12 0 0 1-27.84-29.824c-6.496-12.96-9.728-28.096-9.728-45.376 0-26.912 7.04-47.84 21.056-62.752 14.048-14.944 33.792-22.4 59.2-22.4 15.84 0 29.76 3.424 41.856 10.304 12.096 6.88 21.376 16.736 27.84 29.6 6.496 12.864 9.728 27.968 9.728 45.248z m50.848 70.208l0.096 0.064-0.096-0.064z m0 0a30.08 30.08 0 0 1-11.968-9.6 22.944 22.944 0 0 1-5.184-14.208 23.04 23.04 0 0 1 5.44-15.68 63.04 63.04 0 0 1 15.776-12.32 44.224 44.224 0 0 1-20.544-17.952 54.72 54.72 0 0 1-7.584-29.184c0-17.984 5.856-31.872 17.536-41.696 11.68-9.824 28.384-14.72 50.08-14.72 4.608 0 10.112 0.416 16.448 1.248 6.304 0.832 10.368 1.44 12.16 1.824h57.44v22.848l-25.792 6.624c4.704 7.36 7.072 15.616 7.072 24.768 0 17.664-6.144 31.456-18.496 41.312-12.32 9.856-29.44 14.816-51.328 14.816l-8.096-0.448-6.624-0.736c-4.64 3.52-6.944 7.456-6.944 11.776 0 6.496 8.256 9.728 24.768 9.728h27.968c18.08 0 31.872 3.872 41.344 11.648 9.472 7.744 14.208 19.136 14.208 34.176 0 19.232-8 34.176-24.096 44.8-16.064 10.56-39.104 15.904-69.152 15.904-22.976 0-40.544-4-52.672-12.032-12.16-8-18.208-19.2-18.208-33.664 0-9.92 3.104-18.208 9.28-24.896 6.208-6.656 15.296-11.424 27.264-14.272l-0.096-0.064z m2.464 35.712c0 6.176 2.976 11.04 8.896 14.592 5.952 3.52 14.272 5.28 24.96 5.28 16.128 0 28.736-2.208 37.888-6.624 9.12-4.416 13.696-10.464 13.696-18.112 0-6.176-2.688-10.464-8.096-12.8-5.44-2.368-13.76-3.552-25.056-3.552h-23.264c-8.256 0-15.168 1.92-20.704 5.824a17.92 17.92 0 0 0-8.32 15.36z m16.32-134.08c0 8.96 2.048 16 6.144 21.216 4.064 5.216 10.272 7.808 18.624 7.808 8.448 0 14.624-2.56 18.56-7.808 3.936-5.184 5.888-12.256 5.888-21.216 0-19.84-8.128-29.76-24.448-29.76-16.48 0-24.736 9.92-24.736 29.76z" p-id="1199" fill="#707070"></path></svg>