<?xml version="1.0" standalone="no"?><!DOCTYPE svg PUBLIC "-//W3C//DTD SVG 1.1//EN" "http://www.w3.org/Graphics/SVG/1.1/DTD/svg11.dtd"><svg t="1583926214555" class="icon" viewBox="0 0 1024 1024" version="1.1" xmlns="http://www.w3.org/2000/svg" p-id="13847" xmlns:xlink="http://www.w3.org/1999/xlink" width="32" height="32"><defs><style type="text/css"></style></defs><path d="M853.333333 584.533333c-25.6 0-42.666667 17.066667-42.666666 42.666667V853.333333c0 25.6-17.066667 42.666667-42.666667 42.666667H170.666667c-25.6 0-42.666667-17.066667-42.666667-42.666667V256c0-25.6 17.066667-42.666667 42.666667-42.666667h226.133333c25.6 0 42.666667-17.066667 42.666667-42.666666s-17.066667-42.666667-42.666667-42.666667H170.666667c-72.533333 0-128 55.466667-128 128v597.333333c0 72.533333 55.466667 128 128 128h597.333333c72.533333 0 128-55.466667 128-128V627.2c0-25.6-17.066667-42.666667-42.666667-42.666667z" fill="#707070" p-id="13848"></path><path d="M968.533333 226.133333l-170.666666-170.666666c-17.066667-17.066667-42.666667-17.066667-59.733334 0l-426.666666 426.666666c-8.533333 8.533333-12.8 17.066667-12.8 29.866667v170.666667c0 25.6 17.066667 42.666667 42.666666 42.666666h170.666667c12.8 0 21.333333-4.266667 29.866667-12.8l426.666666-426.666666c17.066667-17.066667 17.066667-42.666667 0-59.733334zM494.933333 640H384v-110.933333l384-384 110.933333 110.933333-384 384z" fill="#707070" p-id="13849"></path></svg>