<?xml version="1.0" standalone="no"?><!DOCTYPE svg PUBLIC "-//W3C//DTD SVG 1.1//EN" "http://www.w3.org/Graphics/SVG/1.1/DTD/svg11.dtd"><svg t="1596947053362" class="icon" viewBox="0 0 1024 1024" version="1.1" xmlns="http://www.w3.org/2000/svg" p-id="28450" xmlns:xlink="http://www.w3.org/1999/xlink" width="32" height="32"><defs><style type="text/css"></style></defs><path d="M512 0C230.4 0 0 230.4 0 512s230.4 512 512 512 512-230.4 512-512-230.4-512-512-512z m0 950.857143c-241.371429 0-438.857143-197.485714-438.857143-438.857143s197.485714-438.857143 438.857143-438.857143 438.857143 197.485714 438.857143 438.857143-197.485714 438.857143-438.857143 438.857143z" fill="#4697FF" p-id="28451"></path><path d="M637.366857 673.718857c-28.598857 15.140571-64.585143 22.674286-107.812571 22.674286-55.808 0-100.425143-17.773714-133.778286-53.174857-33.353143-35.474286-50.029714-82.358857-50.029714-140.726857 0-62.683429 18.797714-113.078857 56.32-151.332572 37.522286-38.180571 85.211429-57.344 143.067428-57.344 37.229714 0 67.949714 5.266286 92.233143 15.872v52.516572a186.148571 186.148571 0 0 0-91.721143-23.113143c-43.446857 0-78.774857 14.482286-106.130285 43.373714-27.282286 28.891429-40.96 67.949714-40.96 117.028571 0 46.592 12.726857 83.602286 38.180571 111.030858 25.526857 27.428571 58.88 41.106286 100.059429 41.106285 38.546286 0 72.118857-8.777143 100.571428-26.185143v48.274286z" fill="#4697FF" p-id="28452"></path></svg>