<?xml version="1.0" standalone="no"?><!DOCTYPE svg PUBLIC "-//W3C//DTD SVG 1.1//EN" "http://www.w3.org/Graphics/SVG/1.1/DTD/svg11.dtd"><svg t="1596948581560" class="icon" viewBox="0 0 1024 1024" version="1.1" xmlns="http://www.w3.org/2000/svg" p-id="3689" xmlns:xlink="http://www.w3.org/1999/xlink" width="32" height="32"><defs><style type="text/css"></style></defs><path d="M216.428373 594.432a26.453333 26.453333 0 0 0-22.144 14.421333c-4.906667 9.002667-16.597333 10.325333-22.058666 8.576-8.96-2.986667-20.522667-5.077333-31.744 2.901334s-23.296 1.92-21.12-12.672c2.090667-14.506667 7.338667-27.52 21.290666-35.413334 30.464-17.493333 9.258667-29.653333 25.941334-47.317333 16.810667-17.578667 13.098667-22.912 12.501333-46.890667-56.576-8.533333-88.661333-24.832-124.416-69.589333C18.881707 363.776 4.972373 326.954667 1.30304 270.890667-2.451627 214.698667 0.833707 178.346667 25.068373 131.754667 49.30304 85.333333 74.90304 62.933333 119.020373 39.68 163.180373 16.298667 206.529707 10.794667 246.55104 11.477333c40.064 0.64 66.730667 3.541333 89.344 16.512 22.656 12.928 43.349333 29.184 56.490667 29.226667 10.24 0.64 20.352-2.261333 28.714666-8.192 1.706667 43.52-37.461333 47.274667-72.448 48.213333-34.986667 0.896-56.490667-13.525333-88.746666-8.192-32.170667 5.461333-84.992 20.096-110.72 64.853334-25.728 44.8-26.624 60.586667-24.448 98.176 2.090667 37.461333 34.389333 65.450667 52.650666 65.792 18.261333 0.298667 22.314667-4.992 38.314667-15.36 15.957333-10.496 97.450667-111.36 125.184-133.973334 27.861333-22.656 55.296-29.696 84.906667-30.08 29.653333-0.341333 37.162667 0.64 61.141333 10.496 23.893333 9.770667 38.570667 27.818667 57.856 38.826667 9.813333-5.76 16-14.464 24.917333-21.12 32.426667-23.552 49.152-29.952 87.594667-26.24 22.101333 2.218667 49.877333 14.805333 66.56 29.269333 29.568 25.770667 54.016 61.482667 73.728 88.704 15.36 21.205333 33.493333 46.549333 59.392 54.485334 28.117333 8.576 49.365333-27.818667 52.48-48.170667 1.834667-11.52 4.138667-21.589333 4.138667-34.176 0-12.672-1.28-27.946667-4.906667-41.173333a147.370667 147.370667 0 0 0-16.725333-37.077334c-11.008-17.749333-29.013333-36.266667-47.616-45.738666-10.496-5.333333-35.242667-15.061333-50.816-15.402667-19.114667-0.426667-33.664 6.016-51.285334 7.210667-21.333333 1.450667-59.562667 6.229333-76.202666-10.24-10.709333-10.496-12.074667-17.536-13.824-31.189334 4.650667 3.925333 11.264 6.4 17.109333 6.954667 13.354667 1.109333 25.813333-9.770667 36.650667-16.128 8.96-5.248 21.504-14.506667 33.194666-19.2 30.037333-12.16 66.901333-11.861333 98.56-8.533333 25.386667 2.56 58.368 13.824 80.64 26.496 22.442667 12.629333 43.989333 34.005333 59.733334 54.101333 19.882667 25.344 30.762667 47.104 37.930666 78.677333 9.216 40.32 11.818667 100.906667 0.64 140.757334-8.746667 31.317333-37.845333 79.402667-62.592 102.997333-24.448 23.338667-52.693333 34.602667-84.736 40.746667 1.28 6.357333 1.408 12.416 3.029334 17.749333 2.389333 7.594667 6.954667 16 16.213333 13.354667 3.669333-1.066667 5.674667-2.005333 10.496 2.261333 4.906667 4.266667 2.389333 20.693333-11.349333 28.16-6.997333 3.669333-14.250667 4.48-25.386667 4.778667a239.36 239.36 0 0 1-40.661333-1.962667c-12.074667-2.005333-19.242667-11.648-32.64-13.184-20.693333-2.346667-36.48-17.28-53.12-27.904-6.912-4.437333-9.301333-4.437333-13.269334-6.741333 2.176 6.570667 5.034667 13.397333 6.442667 19.84 1.450667 6.229333 0.853333 12.16 1.578667 17.237333 0.810667 5.077333 2.218667 9.002667 2.986666 13.184 3.285333 2.901333 4.394667 7.381333 9.941334 8.832 5.546667 1.493333 14.250667-0.768 19.968-1.578667 5.76-0.768 9.557333-3.84 13.994666-2.986666 4.48 0.853333 8.704 4.096 12.458667 7.082666s6.997333 3.413333 9.984 10.837334c2.986667 7.594667 5.76 22.912 6.229333 33.152 0.384 10.24-0.768 19.413333-3.797333 27.648-2.986667 8.064-5.76 11.648-13.952 19.754666s-21.589333 19.84-34.944 28.16c2.474667 3.584 3.541333 6.912 7.381333 10.837334 3.84 4.010667 11.818667 8.405333 15.317334 12.586666 3.626667 4.181333 5.461333 7.168 5.461333 11.818667a25.045333 25.045333 0 0 1-3.968 15.914667c-9.514667 12.757333-20.608 15.018667-34.261333 20.992 2.304 14.250667 4.181333 24.405333 0.853333 38.656-1.28 5.845333-4.352 18.986667-11.52 22.4-7.210667 3.413333-20.992 1.749333-29.781333 3.157333-8.746667 1.322667-13.610667 2.688-20.437334 4.010667-4.181333 6.016-10.325333 12.672-12.416 18.005333-2.090667 5.418667-1.450667 7.338667 0.256 12.757333 1.792 5.504 7.893333 13.482667 9.6 20.010667 1.664 6.4 2.090667 13.269333 0.469334 19.754667a35.584 35.584 0 0 1-9.813334 16.896c-5.504 5.76-16.298667 10.24-21.717333 14.762666-5.333333 4.736-10.752 5.248-9.258667 12.928 2.005333 10.581333 17.450667 27.562667 28.586667 31.744a33.834667 33.834667 0 0 0 23.765333-1.749333c-0.597333 8.917333-8.32 15.104-13.44 21.077333 13.738667-4.010667 27.136-11.52 36.437334-21.504-2.858667 8.661333-12.8 22.570667-27.52 34.816s-14.634667 9.770667-22.058667 14.677334c13.397333 2.602667 25.856 1.92 36.266667 0.085333a72.106667 72.106667 0 0 1-27.349334 8.832 80.042667 80.042667 0 0 1-31.104-2.346667c-11.136-2.688-21.290667-12.842667-34.730666-19.84 1.28 5.077333 2.261333 11.093333 7.893333 16.256 5.802667 5.077333 14.293333 7.765333 23.424 12.074667-11.605333-1.237333-23.808-1.578667-35.157333-4.096a88.917333 88.917333 0 0 1-20.394667-6.997333c-6.144-2.986667-10.88-7.509333-16.384-11.264 2.602667 4.992 3.370667 10.922667 7.850667 15.018666 4.437333 4.181333 11.733333 5.76 17.578666 8.490667-6.101333-0.170667-11.989333 1.237333-18.346666-0.426667a49.749333 49.749333 0 0 1-18.901334-8.917333 135.04 135.04 0 0 1-18.986666-16.896c-5.632-6.186667-12.629333-14.165333-14.72-19.754667-2.048-5.674667 1.28-9.6 1.877333-14.421333-3.84 2.602667-8.576 4.010667-11.605333 7.68-2.986667 3.754667-5.632 7.082667-4.309334 13.568 1.28 6.4 7.338667 14.421333 11.562667 21.589333-12.629333-10.325333-19.669333-14.336-22.656-26.666666-2.730667-11.648 4.437333-22.186667 9.941333-30.933334 2.730667-4.437333 6.912-8.490667 9.429334-12.757333-5.76-5.504-12.16-10.24-17.066667-16.597333-4.821333-6.4-6.912-15.018667-11.818667-20.992-4.992-6.101333-11.690667-9.898667-17.493333-14.848 5.077333 10.922667 13.525333 24.405333 15.317333 32.896 1.877333 8.490667-2.048 13.738667-5.077333 18.346666-2.986667 4.565333-7.850667 5.674667-12.458667 8.405334-4.693333 2.901333-11.818667 0.682667-14.592 4.821333s-3.541333 10.496-0.896 14.677333l10.922667 16.981334a50.048 50.048 0 0 1-13.952-11.989334c-3.157333-4.096-7.936-8.021333-8.490667-13.482666-0.682667-5.589333-0.981333-10.496 2.688-15.488 3.584-4.992 13.568-6.656 18.005334-10.496 4.48-3.84 6.912-6.314667 6.656-11.264-0.256-4.992-5.077333-8.490667-9.258667-11.648-12.757333-9.6-29.013333-18.346667-39.850667-29.824a39.722667 39.722667 0 0 1-10.197333-16.170667c-1.28-4.48 0.042667-8.021333 3.029333-13.397333 3.072-5.589333 13.44-13.013333 14.762667-18.901334 1.237333-6.016-4.053333-7.338667-8.746667-9.429333-4.736-2.090667-13.738667 1.066667-18.133333-2.602667s1.28-11.349333-3.669333-15.573333-16.256-1.92-22.144-6.4a30.890667 30.890667 0 0 1-10.24-16.853333 35.328 35.328 0 0 1-0.896-18.602667c1.365333-4.821333 5.461333-5.674667 7.978666-8.149333 2.517333-2.432 4.608-4.437333 1.28-8.149334-3.157333-3.754667-14.08 0.170667-20.309333-4.48-6.357333-4.821333-2.56-16.256-6.954667-21.077333-4.437333-4.650667-12.245333-2.816-16.469333-4.437333-4.138667-1.493333-5.76 3.84-8.277333-4.650667-2.602667-8.490667-2.688-34.005333-6.101334-43.52s-10.154667-0.682667-13.269333-10.069333c-3.2-9.429333-0.170667-24.490667-1.578667-38.741334l-6.4-38.826666c-22.229333 15.018667-36.992 19.754667-60.928 23.936-2.005333 58.581333-7.509333 93.098667 12.416 158.08 19.84 64.896 60.074667 103.253333 114.346667 158.165333-71.68-53.589333-105.770667-97.237333-127.189333-153.088-21.376-55.936-17.322667-102.698667-15.189334-156.416z m380.544-23.594667a35.712 35.712 0 0 1 16.042667 4.181334c3.882667 2.602667 8.021333 4.565333 11.52 8.064 8.789333 9.002667 15.36 19.754667 18.261333 32.085333 1.877333 7.936 2.133333 18.005333 2.730667 27.264-2.645333-8.490667-4.394667-17.408-8.192-25.088-5.930667-12.16-16.042667-23.936-28.672-29.354667a14.933333 14.933333 0 0 0-9.130667-1.152c0.981333 1.749333 2.688 3.242667 2.773334 5.674667 0 2.517333-0.512 7.424-4.778667 9.514667-6.826667 3.328-14.464 0.896-19.797333-3.669334a17.664 17.664 0 0 1-4.352-19.584c3.370667-8.277333 16-8.277333 23.594666-7.936z m-69.162666-11.605333c0.725333-14.165333 5.76-25.984 18.474666-32.896 7.978667-4.565333 16.725333-7.68 25.770667-9.173333 8.832-1.109333 30.421333-0.341333 43.434667 5.589333 9.898667 4.48 16.682667 11.562667 25.472 16.810667 8.746667 5.162667 14.976 8.576 23.296 14.421333 12.8 9.002667 20.266667 18.730667 29.098666 24.576 4.309333 2.816 10.24 2.432 15.957334 4.181333-4.437333 1.237333-10.197333 2.730667-14.933334 1.237334a66.773333 66.773333 0 0 1-18.688-11.264 125.696 125.696 0 0 0-21.205333-15.317334c-5.290667-3.072-14.037333-6.741333-19.882667-10.496-5.76-3.84-15.829333-12.074667-21.418666-14.890666a69.034667 69.034667 0 0 0-27.733334-5.333334c-10.922667 0.341333-26.709333 2.133333-35.072 9.728-8.405333 7.68-11.562667 14.336-9.685333 24.149334 3.114667-3.584 5.248-8.149333 8.32-10.837334 6.570667-5.674667 14.037333-5.930667 22.229333-4.821333 9.173333 1.152 13.738667 6.4 16.768 15.104-2.005333-1.408-5.76-4.650667-8.704-5.76a21.12 21.12 0 0 0-18.688 1.834667c-7.637333 4.181333-5.546667 10.24-6.570666 16.896-0.554667 3.242667-1.749333 5.674667-2.602667 8.490666a16.64 16.64 0 0 1-7.68-4.181333c0.042667 3.242667-0.426667 6.016 0.256 9.514667 0.597333 3.584 2.346667 7.850667 3.584 11.648-5.376-5.333333-10.922667-10.24-14.293333-17.152a45.141333 45.141333 0 0 1-5.504-22.058667z m9.344-102.4c3.882667-5.802667 5.077333-14.72 7.424-22.058667-0.896 9.258667 0.896 19.328-3.541334 25.984-4.48 6.741333-12.458667 5.504-18.901333 7.509334 5.034667-3.84 11.008-5.589333 15.018667-11.434667z m-94.165334 136.661333c5.077333-4.096 18.688-0.853333 28.842667-0.085333l-21.930667 5.674667c-0.725333 2.517333-0.426667 5.248-2.048 7.424-1.706667 2.176-4.864 2.901333-7.296 4.437333 0.256-6.613333-2.645333-13.354667 2.432-17.450667z m71.808-283.818666c6.101333 3.2 13.696 7.594667 19.157334 7.68 5.290667 0.170667 6.741333-3.413333 9.898666-5.589334 4.906667 16.213333 10.666667 34.005333 19.114667 48.725334 3.541333 6.229333 5.802667 3.370667 8.533333 9.557333 2.688 6.186667 3.84 18.730667 6.4 26.709333 2.517333 7.978667 5.845333 13.696 8.832 20.608-7.424-10.666667-17.109333-24.149333-21.333333-32.981333-4.181333-8.832-1.493333-9.6-4.906667-17.962667-3.328-8.448-10.154667-21.504-15.232-32.256-3.669333 0.469333-8.106667 1.109333-10.88 0.256-2.773333-0.896-2.304-3.882667-4.778666-5.717333-2.517333-1.92-6.741333-1.152-10.24-4.266667-3.456-2.986667-4.266667-9.258667-4.565334-14.762666z m-32.725333 80c5.76-0.512 12.757333 0.981333 18.133333 0.725333s9.216-1.664 13.866667-2.56c-0.896-8.064-0.085333-22.912-7.509333-28.330667-4.906667-3.413333-24.661333-0.853333-29.909334 0.256-11.904 2.602667-25.770667 9.685333-37.248 14.08 11.008-7.68 20.522667-14.762667 33.749334-18.730666 8.021333-2.346667 26.496-5.504 34.688-3.242667 3.797333 0.981333 4.48 2.602667 6.784 5.76 7.808 10.88 7.808 20.266667 9.770666 32.981333 2.005333 3.029333 4.096 5.077333 5.76 8.277334a38.826667 38.826667 0 0 1 2.901334 12.330666c-2.048-2.944-0.768-6.613333-6.357334-8.789333-5.76-2.261333-14.378667-0.213333-22.058666 0.597333 5.589333 4.096 8.32 7.936 8.576 16.384 0.256 9.941333-8.149333 17.109333-16.981334 17.792-12.16 0.938667-18.517333-1.749333-23.424-12.16-2.176-4.565333-0.682667-10.069333-0.768-14.549333-14.762667 1.024-14.506667 0.554667-25.258666 9.472 5.930667 8.576 9.557333 13.44 19.242666 18.602667 5.333333 2.816 11.52 5.674667 18.133334 6.826666 6.698667 1.152 17.706667 2.261333 24.789333 1.152a26.837333 26.837333 0 0 0 16.170667-7.978666c5.248-4.778667 5.76-11.690667 7.765333-17.194667a51.242667 51.242667 0 0 1-2.986667 15.829333c-5.973333 11.52-16.213333 15.018667-28.501333 15.018667-11.733333 0-26.282667-2.688-37.248-7.210667-8.746667-3.626667-23.253333-13.866667-26.666667-22.784-2.389333-6.101333-0.512-13.568-0.768-20.352 12.16-8.064 15.104-6.101333 29.397334-8.448 6.016-1.066667 10.197333-3.242667 15.957333-3.754666zM411.457707 335.104c0.298667-4.864 0.896-4.736 1.28-7.125333-11.050667-2.944-15.402667 4.224-21.930667 17.536-2.432 4.906667 0 7.936-2.645333 11.221333-2.517333 3.242667-6.784 2.773333-10.965334 5.930667s-8.362667 9.173333-12.330666 12.458666c-8.064 6.656-19.072 10.709333-28.458667 15.274667 6.4-4.736 18.901333-11.904 22.954667-18.730667 2.133333-3.669333 1.792-10.538667 5.12-13.866666 3.328-3.2 4.48-5.546667 8.746666-6.357334 4.266667-0.810667 2.602667-5.802667 3.968-9.770666 1.365333-3.882667 4.138667-6.741333 7.04-10.709334s6.656-9.813333 12.416-12.032c5.76-2.090667 14.805333 0.213333 19.2-0.981333 4.352-1.237333 1.834667-4.48 5.034667-6.4s9.344-0.981333 13.653333-3.072c7.509333-3.584 11.093333-9.685333 15.658667-16.085333 0.64 13.909333 0.426667 23.936-4.565333 37.077333-5.589333 14.762667-11.349333 23.466667-27.349334 32.554667-5.461333 3.072-10.965333 4.181333-15.573333 5.845333 2.645333-3.669333 6.485333-5.248 8.021333-10.922667 1.450667-5.802667 0.384-17.066667 0.725334-21.845333z m258.517333 67.925333c-7.552 0.597333-9.344-0.512-15.488 3.882667l9.898667 15.36c-0.256-10.112 0.768-12.16 5.674666-19.242667h-0.085333z m-19.84-7.338666c10.496-4.437333 19.669333-8.064 31.146667-8.832 4.565333-0.341333 11.690667 0.384 16.341333 0.682666 4.010667-5.845333 9.002667-10.410667 10.922667-17.066666 1.194667-4.437333 0.64-24.917333-1.621334-30.250667-6.229333-15.402667-12.373333-16.085333-21.12-24.96-6.229333-6.357333-6.485333-16.213333-8.405333-27.221333-0.64-4.010667-2.645333-9.088-3.584-13.226667a166.4 166.4 0 0 0-36.565333-1.92c6.314667-6.101333 12.416-11.562667 14.250666-20.736a40.917333 40.917333 0 0 0-4.821333-28.458667c-5.162667-8.149333-13.44-15.36-21.077333-22.058666-7.594667-6.613333-18.602667-12.117333-25.770667-17.578667 9.429333-3.285333 18.944-8.277333 28.16-10.026667 23.936-4.608 44.501333 2.432 67.584 16.384 13.44 8.106667 24.448 15.786667 38.485333 30.549334 14.037333 14.677333 31.36 41.6 44.970667 57.514666 13.525333 16 24.533333 28.586667 36.394667 38.101334 11.776 9.642667 22.528 12.330667 33.792 18.389333l17.578666 18.688 14.293334-17.621333 22.826666 2.56 4.736-25.642667 20.906667-5.802667-3.370667-34.602666 15.104-10.752-11.392-21.504 11.52-23.594667-15.018666-26.88 5.76-25.898667-17.365334-14.848-2.261333-27.562666-24.277333-9.258667-9.685334-23.936-27.306666-0.298667-13.44-17.792-18.389334 1.28-20.437333-2.261333-11.52-8.490667-16.896 11.093334-20.352-10.581334-40.405333 15.317334 26.368-22.912 27.306666-4.352 20.906667-5.376 28.288 9.301333 24.832-6.272 24.021333 14.122667 25.429334-1.322667 12.501333 22.4 25.216 2.858667 13.653333 24.789333 15.872 8.746667 4.266667 31.829333 14.208 13.44-6.314667 27.861333 16.64 21.077334-15.488 22.570666 16.64 14.165334-21.290666 18.901333 21.589333 22.570667-26.154667 8.533333 16.981334 24.149333-21.376 3.754667 13.994666 26.538667-24.021333-0.341334 12.16 19.882667-26.496-3.157333 6.314667 28.672-19.968-17.536-6.784 34.730666-13.738667-24.96-7.466667 31.146667-16.938666-22.912 0.469333 32.64-18.730667-29.354667c3.882667 16.682667 3.114667 34.858667 14.037334 50.56 33.877333-4.565333 55.978667-13.098667 81.962666-38.058666 23.552-22.741333 51.797333-70.144 59.477334-100.266667 8.704-34.218667 8.96-97.322667 0.384-132.309333-8.277333-33.578667-19.029333-49.621333-38.229334-77.098667-18.346667-19.413333-36.394667-40.064-59.690666-53.930667-34.261333-20.48-78.037333-25.941333-116.992-25.429333a137.386667 137.386667 0 0 0-48.981334 9.173333c-22.485333 8.149333-40.533333 26.069333-63.445333 34.901334-7.466667 2.858667-13.44 2.901333-19.370667-0.170667 5.76 11.52 11.989333 16.682667 26.410667 20.864 10.410667 3.029333 35.2 1.109333 52.352-0.469333 18.346667-1.664 27.904-7.125333 52.864-6.826667 24.32 0.426667 43.690667 9.6 54.272 15.701333 21.802667 12.458667 37.418667 26.197333 51.029333 48.170667 7.466667 12.032 12.714667 25.642667 16.341334 39.466667 3.669333 13.824 5.290667 29.354667 5.546666 42.922666s-0.810667 25.685333-4.138666 37.888c-7.765333 28.544-24.874667 57.6-60.032 53.12-21.504-2.688-53.888-43.093333-64.768-57.898666-21.973333-29.909333-44.501333-63.018667-72.021334-87.850667a110.378667 110.378667 0 0 0-62.421333-27.733333c-42.325333-3.84-54.912 4.181333-86.741333 30.506666 6.442667 2.005333 12.757333 3.157333 19.413333 6.186667 14.762667 6.656 28.245333 15.232 40.021333 26.24 12.373333 11.52 17.92 18.858667 18.346667 35.370667 0.298667 11.050667-8.704 19.84-17.024 27.690666-5.034667 4.864-11.733333 9.301333-15.872 13.098667-5.418667 4.992-12.16 10.496-5.290667 18.432 2.56 2.986667 7.04 5.248 10.752 8.064 6.016 4.394667 3.2 20.821333-4.608 25.258667a26.026667 26.026667 0 0 1-30.421333-2.602667c10.496-1.493333 17.152-2.901333 16.853333-11.52-0.085333-4.906667-6.357333-9.088-12.672-11.904-14.933333-6.826667-26.197333-5.76-41.088-16.512-15.061333-10.837333-15.317333-16.768-19.413333-33.706667-7.253333 0.725333-13.952 0.896-23.68 4.138667-9.642667 3.157333-20.394667 10.837333-29.184 12.757333-22.186667 4.736-26.581333 3.328-38.698667 0.256-21.376-5.632-49.109333 3.84-76.8 12.757334-4.565333 1.408-23.168 0-35.669333 4.352a235.477333 235.477333 0 0 0-62.165333 36.394666c-23.722667 20.010667-54.869333 79.744-72.448 148.352-1.92 20.906667 4.053333 34.901333-9.088 45.098667-13.141333 10.24-12.8 36.309333-17.28 43.648-4.394667 7.253333-9.6 4.010667-19.2 14.336-9.514667 10.24-14.378667 8.576-14.165334 27.904 8.32-5.333333 20.352-11.648 30.933334-12.16 9.429333-0.256 9.472 12.074667 33.493333-11.648 12.842667-12.757333 37.589333-13.184 54.741333-18.730667s48-17.152 78.976-51.712c30.890667-34.56 45.696-70.997333 51.712-123.562666 0.853333 9.173333 2.56 19.754667-1.408 45.44-4.053333 25.770667-12.629333 54.613333 5.504 89.344l11.306667 21.504c-6.698667-9.173333-19.84-24.149333-23.893333-34.816l-9.002667-24.661334c-20.48 32.128-25.173333 37.845333-53.546667 60.8-1.109333 14.250667-1.408 29.098667 3.242667 42.752 4.608 13.653333-2.730667 29.354667 0.853333 38.4 3.498667 8.917333 11.648 3.84 14.336 12.928s-1.365333 27.093333 2.730667 35.925334c4.224 8.832 14.378667 3.498667 19.328 6.4 4.906667 2.816 6.570667 6.741333 9.173333 10.496 2.688 3.754667-0.981333 12.672 4.394667 15.573333 5.376 2.816 13.653333 0.426667 19.328 3.157333 5.546667 2.816 6.357333 9.514667 5.077333 15.402667-1.365333 6.016-7.338667 8.746667-9.941333 14.848a15.573333 15.573333 0 0 0 0.853333 15.914667c3.157333 5.589333 10.069333 8.576 17.066667 11.52 6.912 2.730667 16.682667 1.152 23.850667 5.077333 7.210667 3.84 13.653333 11.648 17.408 17.322667a23.125333 23.125333 0 0 1 4.650666 15.488 44.288 44.288 0 0 1-5.845333 18.517333c-3.157333 5.76-10.069333 12.757333 0.853333 23.68 10.837333 10.837333 10.496 6.186667 16.768 13.354667-0.725333-12.330667-5.76-22.229333-2.090666-31.488 3.754667-9.258667 14.890667-10.922667 20.650666-15.018667 5.930667-4.266667 9.344-9.898667 13.909334-14.848 0 6.314667 0.64 13.184-0.085334 17.92-1.408 9.685333-4.352 18.432 10.112 19.925333 6.528 0.682667 12.757333-3.498667 19.584-6.016-3.584 6.314667-9.813333 11.52-10.794666 19.242667a33.834667 33.834667 0 0 0 5.546666 23.850667c5.290667 7.68 14.549333 13.354667 21.290667 17.749333 6.741333 4.48 10.410667 4.906667 15.573333 7.424 0.256 7.509333-1.28 15.488-0.384 22.656a41.045333 41.045333 0 0 0 7.210667 19.328c4.181333 6.016 10.752 9.344 16.981333 13.653333-3.413333-8.021333-10.325333-15.573333-10.24-23.936s2.56-14.250667 10.752-21.76c8.149333-7.424 27.264-13.824 36.266667-21.077333a43.946667 43.946667 0 0 0 15.146667-18.602667c3.2-6.997333 2.346667-18.346667 2.944-24.576 2.944 8.746667 3.370667 11.52 4.394666 20.736 0.896 9.258667-5.418667 22.229333-8.064 29.013334 9.728-4.48 17.450667-12.501333 21.76-22.4 2.432 1.493333 1.194667 5.333333 2.090667 12.842666 4.010667-3.925333 8.490667-6.912 12.501333-10.666666s8.32-6.997333 10.368-12.245334c1.962667-5.162667 1.152-10.752-0.298666-16.768-1.493333-6.101333-8.234667-13.098667-11.904-19.754666-3.584-6.485333 0.682667-13.013333 0.426666-20.992-7.253333-1.237333-13.397333-4.992-21.845333-3.754667-8.32 1.237333-17.92 10.581333-26.496 10.752-8.490667 0-13.397333-8.021333-20.394667-10.154667-7.04-2.261333-14.08-1.92-21.12-2.986666 8.917333-8.490667 43.562667-12.586667 67.242667-16.426667a417.962667 417.962667 0 0 1 62.72-5.674667c9.429333-0.256 21.589333 2.901333 28.202667 1.066667 6.485333-1.92 5.077333-6.4 6.997333-11.264 5.504-13.568 2.816-25.770667-0.170667-39.424-18.944-2.261333-38.741333-4.906667-57.856-3.498667-18.688 1.408-40.789333 10.325333-60.117333 10.922667-16.725333 0.597333-41.642667-3.157333-55.978667-11.989333-17.621333-10.666667-31.189333-33.664-36.053333-41.173334-7.850667-11.989333-17.749333-35.669333-23.850667-46.421333-6.016-10.837333-7.381333-13.824-12.373333-18.346667-5.034667-4.48-11.861333-4.821333-17.877333-7.253333 6.869333 0.597333 14.336-1.493333 20.565333 2.005333 9.429333 5.418667 19.84 27.648 25.685333 37.418667 6.186667-20.736 4.736-28.842667 22.570667-40.576-14.336 16.170667-14.762667 28.416-18.261333 47.402667 11.989333 19.584 28.586667 50.901333 50.346666 59.562666 7.936 3.157333 21.418667 5.077333 29.909334 6.186667 26.496 3.242667 52.053333-5.077333 77.994666-11.52 18.986667-4.736 38.272-2.816 61.354667-1.493333 7.808 0.512 26.282667-4.266667 30.165333-12.074667a14.08 14.08 0 0 0-1.024-14.08c-2.986667-4.48-10.88-6.741333-15.146666-10.837333-4.224-4.181333-6.656-9.002667-10.026667-13.397334a277.76 277.76 0 0 1-45.312 4.906667c9.429333-3.84 18.474667-6.016 28.16-9.813333 10.112-4.181333 19.754667-9.344 28.842667-15.317334 7.936-5.248 12.928-8.234667 18.688-14.250666 5.717333-6.101333 13.013333-12.330667 17.237333-19.754667 4.224-7.424 4.864-15.744 5.12-24.917333 0.170667-9.173333-0.213333-22.016-3.754667-29.482667-3.584-7.338667-10.368-9.6-15.872-11.264-5.418667-1.749333-9.216 2.688-14.890666 3.242667-5.717333 0.597333-11.008 4.096-19.285334 0.256a71.722667 71.722667 0 0 1-26.325333-23.424c-8.362667-11.690667-14.293333-30.848-22.784-45.568-14.634667-25.429333-32.896-49.024-50.304-72.618667a144.725333 144.725333 0 0 1-4.352-21.674667c-1.322667-13.738667-1.493333-27.989333 2.773333-41.344 3.2-10.24 8.021333-21.077333 18.688-25.258666a20.48 20.48 0 0 1 13.525334-0.938667c3.84 1.365333 7.637333 5.76 6.058666 10.752-1.664 5.504-5.418667 5.717333-8.021333 8.448a29.568 29.568 0 0 0-7.808 14.08c4.736-0.170667 11.178667-0.469333 15.104 0.554667 5.12 1.28 9.770667 4.693333 12.416 11.904-6.101333-5.376-9.088-7.893333-16.64-8.021334-3.541333-0.085333-7.765333 1.109333-11.562667 1.749334-1.450667 4.608-2.304 10.368-4.309333 14.037333-2.090667 3.584-6.016 2.688-7.509333 6.869333a42.325333 42.325333 0 0 0-0.853334 16.682667h0.170667z m52.992-6.357334c2.389333 0.896 3.2 1.152 6.229333 3.413334 2.944 2.218667 7.04 4.437333 9.386667 9.770666a37.461333 37.461333 0 0 1 1.706667 17.066667c-2.048-0.64-4.821333-0.213333-6.954667-2.005333-2.133333-1.834667-3.370667-5.973333-6.101333-7.68-2.773333-1.834667-4.992-1.450667-8.021334-1.834667 1.621333 4.096 2.133333 8.490667 1.536 12.842667-1.536 8.661333-6.656 13.098667-15.018666 14.08-3.584 0.512-9.344-0.682667-12.458667-1.237334 1.450667 3.2 3.882667 6.101333 5.376 9.344 6.997333-0.981333 12.16-0.853333 16-2.602666 3.754667-1.749333 7.808-5.76 12.629333-7.381334 4.821333-1.664 9.130667-1.664 14.421334-2.517333-4.181333 3.584-6.912 7.125333-11.050667 10.794667l9.130667 26.581333c6.485333 4.096 12.544 6.229333 20.693333 11.221333 8.149333 4.949333 17.92 13.952 28.586667 18.773334 10.624 4.821333 16.896 7.552 28.032 9.6 11.050667 2.133333 19.925333 11.178667 30.805333 12.629333 10.88 1.365333 31.36 1.749333 39.765333 0.896 9.6-0.896 22.016-5.802667 23.125334-16.298667-8.021333 1.92-20.266667 0.213333-26.410667-14.890666-2.730667-6.698667-1.450667-19.072-5.632-26.922667-4.224-7.978667-10.069333-10.496-17.066667-20.266667s-18.389333-25.130667-24.746666-38.186666c-6.4-13.141333-8.021333-27.904-13.354667-39.637334-5.461333-11.690667-13.610667-21.12-20.010667-30.208-13.824-19.754667-24.96-33.152-47.786666-43.136-11.008-4.778667-23.509333-6.101333-35.157334-9.088-4.821333 2.133333-11.434667 4.437333-12.586666 10.112a22.869333 22.869333 0 0 0 5.12 17.962667c6.784 7.04 16.853333 14.592 20.778666 25.728 2.602667 7.168 3.242667 31.146667 1.066667 37.674667-2.304 6.826667-7.594667 10.965333-12.032 15.402666z m2.218667 56.789334c-2.090667 1.834667-3.712 3.712-7.125334 5.205333-3.413333 1.536-8.064 1.92-12.586666 3.029333 6.314667 9.856 13.013333 19.882667 19.072 30.250667 6.101333 10.325333 11.349333 21.76 17.109333 32.64-0.298667-6.272 0.085333-12.885333-0.810667-18.688-0.896-5.802667-3.541333-10.837333-6.186666-19.669333-2.56-8.789333-5.76-20.650667-9.472-32.768z m-170.624-217.045334a141.653333 141.653333 0 0 0 2.730666 34.389334c2.474667 11.392 4.736 17.237333 13.994667 24.064 16.896 12.586667 27.648 10.453333 40.746667 17.749333 6.186667 3.456 13.994667 9.258667 16.298666 15.317333 2.261333 6.229333-1.536 12.842667-6.229333 15.488 8.192 1.237333 17.408-8.064 13.568-17.493333-1.92-4.650667-10.88-6.826667-13.653333-11.562667a17.493333 17.493333 0 0 1-1.408-14.293333c2.261333-8.618667 19.370667-16.554667 25.472-23.296 9.301333-10.581333 12.8-19.328 7.552-32.853333-7.338667-18.986667-35.925333-34.304-52.992-41.770667-7.808-3.413333-12.245333-3.584-18.304-5.504 12.458667 7.424 25.642667 13.226667 32 29.482667 5.248 13.696 0.64 18.901333 0.896 30.762666 0.085333 5.546667 7.338667 8.32 10.581333 11.733334 2.730667 3.072 2.56 5.333333 0.341333 9.514666a10.922667 10.922667 0 0 0-4.736-8.490666c-4.778667-3.413333-9.984-2.688-12.544-9.6-3.84-10.581333 3.882667-20.650667-4.778666-32.512-6.4-8.874667-15.061333-18.816-26.666667-19.072a45.781333 45.781333 0 0 0-15.36 2.474666l-7.808-9.386666-0.213333-0.128c-15.872-14.464-26.752-26.410667-48.938667-36.352-22.272-9.984-33.28-11.52-58.837333-10.922667-25.472 0.554667-50.773333 2.688-80.341334 28.16-29.610667 25.6-105.856 123.221333-124.373333 135.552-18.389333 12.330667-22.485333 16.597333-45.568 16.597333s-59.178667-32.682667-60.586667-73.514666c-1.365333-40.789333-1.92-55.338667 26.410667-104.490667 28.416-49.152 79.744-64.256 117.930667-69.333333 38.186667-5.162667 61.098667 8.277333 89.258666 8.32 28.16 0.085333 56.064-4.736 64.341334-27.178667-4.053333 2.389333-9.429333 5.12-24.618667 4.309333-15.146667-0.810667-36.224-18.389333-59.818667-30.122666C305.388373 23.338667 279.148373 21.930667 245.356373 21.333333c-33.706667-0.64-75.818667 1.92-117.546666 24.490667-41.728 22.4-70.186667 46.293333-94.421334 90.453333C9.153707 180.352 5.569707 216.277333 9.49504 269.696c3.84 53.333333 20.352 93.056 52.010667 132.181333 31.744 38.997333 63.402667 58.154667 120.490666 65.237334l12.074667-52.992-21.504 30.762666 0.597333-34.261333-19.413333 24.106667-8.618667-32.725334-15.658666 26.24-7.808-36.48-22.869334 18.432 7.253334-30.08-30.165334 3.328 13.824-20.949333-27.477333 0.256 16-27.861333-24.32-3.882667 19.370667-25.429333-29.781334-8.789334 24.661334-23.68-24.448-19.925333 19.114666-14.848-17.92-23.850667 19.114667-22.186666-7.125333-29.226667 16.170666-14.037333 4.821334-33.536 18.176-9.130667 15.616-26.069333 28.885333-3.072 14.250667-23.594667 29.013333 1.493333 27.392-14.848 28.416 6.570667 32.256-9.728 23.978667 5.546667 31.189333 4.608 30.08 24.064-46.122667-16.085334-23.210666 11.093334-19.242667-11.648-13.226667 8.917333-23.466666 2.432-20.949334-1.28-15.274666 18.602667-31.232 0.298666-11.093334 25.130667-27.733333 9.728-2.602667 28.928-19.925333 15.616 6.613333 27.178667-17.152 28.330666 13.226667 24.789334-13.013333 22.570666 17.237333 11.264-3.84 36.394667 24.021333 6.016 5.333334 27.008 26.154666-2.688 16.256 18.517333 20.053334-19.669333c36.608-18.261333 51.712-28.501333 80.298666-59.349333 32.384-35.114667 51.029333-67.584 94.208-91.605334 31.104-17.28 56.362667-23.509333 91.264-17.408 32.682667 5.632 43.690667 25.301333 67.84 45.952 2.602667-4.650667 2.986667-5.930667 7.210667-9.301333-1.28 6.058667-3.370667 12.245333-3.968 18.048l-0.085333-0.042667z" fill="" p-id="3690"></path></svg>