<?xml version="1.0" encoding="UTF-8" standalone="no"?>
<!DOCTYPE svg PUBLIC "-//W3C//DTD SVG 1.1//EN"
 "http://www.w3.org/Graphics/SVG/1.1/DTD/svg11.dtd">
<!-- Generated by graphviz version 2.40.1 (20161225.0304)
 -->
<!-- Title: H Pages: 1 -->
<svg width="1252pt" height="776pt"
 viewBox="0.00 0.00 1252.27 776.20" xmlns="http://www.w3.org/2000/svg" xmlns:xlink="http://www.w3.org/1999/xlink">
<g id="graph0" class="graph" transform="scale(1 1) rotate(0) translate(4 772.2)">
<title>H</title>
<polygon fill="#ffffff" stroke="transparent" points="-4,4 -4,-772.2 1248.2651,-772.2 1248.2651,4 -4,4"/>
<text text-anchor="middle" x="622.1325" y="-95.8" font-family="FangSong" font-size="18.00" fill="#000000">历史上主流外语学习方法</text>
<text text-anchor="start" x="487.9569" y="-74.2" font-family="FangSong" font-size="18.00" fill="#000000"> 根据漏屋老师</text>
<text text-anchor="start" x="487.9569" y="-52.6" font-family="FangSong" font-size="18.00" fill="#000000">《找对学习英语方法的第一本书》</text>
<text text-anchor="start" x="487.9569" y="-31" font-family="FangSong" font-size="18.00" fill="#000000">第三章 探寻方法最佳之路</text>
<text text-anchor="middle" x="622.1325" y="-9.4" font-family="FangSong" font-size="18.00" fill="#000000">20221203 by 偕臧</text>
<g id="clust1" class="cluster">
<title>cluster_histyle</title>
<polygon fill="none" stroke="#000000" points="423.5987,-350 423.5987,-760.2 723.5987,-760.2 723.5987,-350 423.5987,-350"/>
</g>
<!-- 语法翻译法 1850&#45;1950\n（Grammare Translation） -->
<g id="node1" class="node">
<title>语法翻译法 1850&#45;1950\n（Grammare Translation）</title>
<polygon fill="none" stroke="#000000" points="300.2103,-754.8019 114.9871,-754.8019 114.9871,-713.5981 300.2103,-713.5981 300.2103,-754.8019"/>
<text text-anchor="middle" x="207.5987" y="-738.4" font-family="FangSong" font-size="14.00" fill="#000000">语法翻译法 1850&#45;1950</text>
<text text-anchor="middle" x="207.5987" y="-721.6" font-family="FangSong" font-size="14.00" fill="#000000">（Grammare Translation）</text>
</g>
<!-- 直接法 1890&#45;现在\n（Direct Method） -->
<g id="node2" class="node">
<title>直接法 1890&#45;现在\n（Direct Method）</title>
<polygon fill="none" stroke="#000000" points="277.6261,-676.2019 137.5713,-676.2019 137.5713,-634.9981 277.6261,-634.9981 277.6261,-676.2019"/>
<text text-anchor="middle" x="207.5987" y="-659.8" font-family="FangSong" font-size="14.00" fill="#000000">直接法 1890&#45;现在</text>
<text text-anchor="middle" x="207.5987" y="-643" font-family="FangSong" font-size="14.00" fill="#000000">（Direct Method）</text>
</g>
<!-- 语法翻译法 1850&#45;1950\n（Grammare Translation）&#45;&gt;直接法 1890&#45;现在\n（Direct Method） -->
<g id="edge1" class="edge">
<title>语法翻译法 1850&#45;1950\n（Grammare Translation）&#45;&gt;直接法 1890&#45;现在\n（Direct Method）</title>
<path fill="none" stroke="#000000" d="M207.5987,-713.5488C207.5987,-705.3105 207.5987,-695.6489 207.5987,-686.602"/>
<polygon fill="#000000" stroke="#000000" points="211.0988,-686.3862 207.5987,-676.3862 204.0988,-686.3862 211.0988,-686.3862"/>
</g>
<!-- 听说法 + 行为学结构主义教学观（美国） 1960&#45;1970\n（Audio&#45;Lingualism） -->
<g id="node3" class="node">
<title>听说法 + 行为学结构主义教学观（美国） 1960&#45;1970\n（Audio&#45;Lingualism）</title>
<polygon fill="none" stroke="#000000" points="386.4871,-589.2019 28.7103,-589.2019 28.7103,-547.9981 386.4871,-547.9981 386.4871,-589.2019"/>
<text text-anchor="middle" x="207.5987" y="-572.8" font-family="FangSong" font-size="14.00" fill="#000000">听说法 + 行为学结构主义教学观（美国） 1960&#45;1970</text>
<text text-anchor="middle" x="207.5987" y="-556" font-family="FangSong" font-size="14.00" fill="#000000">（Audio&#45;Lingualism）</text>
</g>
<!-- 直接法 1890&#45;现在\n（Direct Method）&#45;&gt;听说法 + 行为学结构主义教学观（美国） 1960&#45;1970\n（Audio&#45;Lingualism） -->
<g id="edge2" class="edge">
<title>直接法 1890&#45;现在\n（Direct Method）&#45;&gt;听说法 + 行为学结构主义教学观（美国） 1960&#45;1970\n（Audio&#45;Lingualism）</title>
<path fill="none" stroke="#000000" d="M207.5987,-634.9822C207.5987,-624.4411 207.5987,-611.3939 207.5987,-599.6638"/>
<polygon fill="#000000" stroke="#000000" points="211.0988,-599.3713 207.5987,-589.3713 204.0988,-599.3713 211.0988,-599.3713"/>
</g>
<!-- 情景教学法（英国） 1960&#45;1980\n（Situational Method, PPP） -->
<g id="node4" class="node">
<title>情景教学法（英国） 1960&#45;1980\n（Situational Method, PPP）</title>
<polygon fill="none" stroke="#000000" points="321.2552,-486.4019 93.9422,-486.4019 93.9422,-445.1981 321.2552,-445.1981 321.2552,-486.4019"/>
<text text-anchor="middle" x="207.5987" y="-470" font-family="FangSong" font-size="14.00" fill="#000000">情景教学法（英国） 1960&#45;1980</text>
<text text-anchor="middle" x="207.5987" y="-453.2" font-family="FangSong" font-size="14.00" fill="#000000">（Situational Method, PPP）</text>
</g>
<!-- 听说法 + 行为学结构主义教学观（美国） 1960&#45;1970\n（Audio&#45;Lingualism）&#45;&gt;情景教学法（英国） 1960&#45;1980\n（Situational Method, PPP） -->
<g id="edge3" class="edge">
<title>听说法 + 行为学结构主义教学观（美国） 1960&#45;1970\n（Audio&#45;Lingualism）&#45;&gt;情景教学法（英国） 1960&#45;1980\n（Situational Method, PPP）</title>
<path fill="none" stroke="#000000" d="M207.5987,-547.7969C207.5987,-533.1663 207.5987,-513.3358 207.5987,-496.8414"/>
<polygon fill="#000000" stroke="#000000" points="211.0988,-496.5721 207.5987,-486.5722 204.0988,-496.5722 211.0988,-496.5721"/>
</g>
<!-- 人本主义教学方法 1970&#45;1980\n（Humanistic approaches） &#160;\n具体: 交际法 / 任务型教学 / 多元智慧法 / 暗示法 / 完全身体反应法 -->
<g id="node5" class="node">
<title>人本主义教学方法 1970&#45;1980\n（Humanistic approaches） &#160;\n具体: 交际法 / 任务型教学 / 多元智慧法 / 暗示法 / 完全身体反应法</title>
<polygon fill="none" stroke="#000000" points="415.2961,-408.2014 -.0987,-408.2014 -.0987,-349.3986 415.2961,-349.3986 415.2961,-408.2014"/>
<text text-anchor="middle" x="207.5987" y="-391.4" font-family="FangSong" font-size="14.00" fill="#000000">人本主义教学方法 1970&#45;1980</text>
<text text-anchor="middle" x="207.5987" y="-374.6" font-family="FangSong" font-size="14.00" fill="#000000">（Humanistic approaches） &#160;</text>
<text text-anchor="middle" x="207.5987" y="-357.8" font-family="FangSong" font-size="14.00" fill="#000000">具体: 交际法 / 任务型教学 / 多元智慧法 / 暗示法 / 完全身体反应法</text>
</g>
<!-- 情景教学法（英国） 1960&#45;1980\n（Situational Method, PPP）&#45;&gt;人本主义教学方法 1970&#45;1980\n（Humanistic approaches） &#160;\n具体: 交际法 / 任务型教学 / 多元智慧法 / 暗示法 / 完全身体反应法 -->
<g id="edge4" class="edge">
<title>情景教学法（英国） 1960&#45;1980\n（Situational Method, PPP）&#45;&gt;人本主义教学方法 1970&#45;1980\n（Humanistic approaches） &#160;\n具体: 交际法 / 任务型教学 / 多元智慧法 / 暗示法 / 完全身体反应法</title>
<path fill="none" stroke="#000000" d="M207.5987,-445.1822C207.5987,-437.1504 207.5987,-427.6635 207.5987,-418.413"/>
<polygon fill="#000000" stroke="#000000" points="211.0988,-418.1594 207.5987,-408.1595 204.0988,-418.1595 211.0988,-418.1594"/>
</g>
<!-- 后方法时代 1980&#45;往后\n 遵循语言习得原则基础上，根据自己的学习特点制定最佳方案\n 重点原则：可理解输入，n+1 -->
<g id="node6" class="node">
<title>后方法时代 1980&#45;往后\n 遵循语言习得原则基础上，根据自己的学习特点制定最佳方案\n 重点原则：可理解输入，n+1</title>
<polygon fill="none" stroke="#000000" points="411.1845,-280.2014 4.0129,-280.2014 4.0129,-221.3986 411.1845,-221.3986 411.1845,-280.2014"/>
<text text-anchor="middle" x="207.5987" y="-263.4" font-family="FangSong" font-size="14.00" fill="#000000">后方法时代 1980&#45;往后</text>
<text text-anchor="middle" x="207.5987" y="-246.6" font-family="FangSong" font-size="14.00" fill="#000000"> 遵循语言习得原则基础上，根据自己的学习特点制定最佳方案</text>
<text text-anchor="middle" x="207.5987" y="-229.8" font-family="FangSong" font-size="14.00" fill="#000000"> 重点原则：可理解输入，n+1</text>
</g>
<!-- 人本主义教学方法 1970&#45;1980\n（Humanistic approaches） &#160;\n具体: 交际法 / 任务型教学 / 多元智慧法 / 暗示法 / 完全身体反应法&#45;&gt;后方法时代 1980&#45;往后\n 遵循语言习得原则基础上，根据自己的学习特点制定最佳方案\n 重点原则：可理解输入，n+1 -->
<g id="edge5" class="edge">
<title>人本主义教学方法 1970&#45;1980\n（Humanistic approaches） &#160;\n具体: 交际法 / 任务型教学 / 多元智慧法 / 暗示法 / 完全身体反应法&#45;&gt;后方法时代 1980&#45;往后\n 遵循语言习得原则基础上，根据自己的学习特点制定最佳方案\n 重点原则：可理解输入，n+1</title>
<path fill="none" stroke="#000000" d="M207.5987,-349.4342C207.5987,-331.8724 207.5987,-309.3316 207.5987,-290.2323"/>
<polygon fill="#000000" stroke="#000000" points="211.0988,-290.0291 207.5987,-280.0291 204.0988,-290.0292 211.0988,-290.0291"/>
</g>
<!-- 语法翻译法 -->
<!-- 123 -->
<g id="node7" class="node">
<title>语法翻译法</title>
<polygon fill="none" stroke="#000000" points="705.1455,-752.2 442.0519,-752.2 442.0519,-716.2 705.1455,-716.2 705.1455,-752.2"/>
<text text-anchor="middle" x="573.5987" y="-730" font-family="FangSong" font-size="14.00" fill="#000000">传统法：‘语法&#45;翻译法’ 统治时代</text>
</g>
<!-- 序列法 -->
<g id="node8" class="node">
<title>序列法</title>
<polygon fill="none" stroke="#000000" points="693.1595,-598.0014 454.0379,-598.0014 454.0379,-539.1986 693.1595,-539.1986 693.1595,-598.0014"/>
<text text-anchor="middle" x="573.5987" y="-581.2" font-family="FangSong" font-size="14.00" fill="#000000">民间业余法：序列法(Series Method)</text>
<text text-anchor="middle" x="573.5987" y="-564.4" font-family="FangSong" font-size="14.00" fill="#000000"> 弗朗索瓦●古恩（Francois Gouin）</text>
<text text-anchor="middle" x="573.5987" y="-547.6" font-family="FangSong" font-size="14.00" fill="#000000"> 19世纪&#45;法国</text>
</g>
<!-- 语法翻译法&#45;&gt;序列法 -->
<g id="edge6" class="edge">
<title>语法翻译法&#45;&gt;序列法</title>
<path fill="none" stroke="#000000" stroke-dasharray="1,5" d="M512.327,-716.1554C493.3091,-707.3543 474.4682,-694.6022 463.4643,-676.4 453.8991,-660.5777 454.3613,-650.8927 463.4643,-634.8 470.4026,-622.5343 480.6224,-612.2911 492.0819,-603.8191"/>
<polygon fill="#000000" stroke="#000000" points="494.3532,-606.5053 500.6161,-597.9597 490.391,-600.7345 494.3532,-606.5053"/>
<text text-anchor="middle" x="595.6659" y="-651.4" font-family="FangSong" font-size="14.00" fill="#000000">最倔强的拉丁文教师，观察小孩子学习英语</text>
</g>
<!-- 二战时官方主流 -->
<g id="node9" class="node">
<title>二战时官方主流</title>
<polygon fill="none" stroke="#000000" points="802.9871,-268.8 536.2103,-268.8 536.2103,-232.8 802.9871,-232.8 802.9871,-268.8"/>
<text text-anchor="middle" x="669.5987" y="-246.6" font-family="FangSong" font-size="14.00" fill="#000000">主流：听说法 + 行为学结构主义教学观</text>
</g>
<!-- 语法翻译法&#45;&gt;二战时官方主流 -->
<g id="edge8" class="edge">
<title>语法翻译法&#45;&gt;二战时官方主流</title>
<path fill="none" stroke="#000000" d="M641.2757,-716.1312C688.6832,-701.4115 743.5987,-679.2553 743.5987,-655.6 743.5987,-655.6 743.5987,-655.6 743.5987,-378.8 743.5987,-349.683 743.1541,-340.5692 729.5987,-314.8 722.0518,-300.4531 710.4085,-286.9728 699.3797,-276.1186"/>
<polygon fill="#000000" stroke="#000000" points="701.571,-273.3736 691.9005,-269.0454 696.7612,-278.4595 701.571,-273.3736"/>
<text text-anchor="middle" x="808.5342" y="-508.8" font-family="FangSong" font-size="14.00" fill="#000000">二战需要，官方整合</text>
</g>
<!-- 直接法 -->
<g id="node10" class="node">
<title>直接法</title>
<polygon fill="none" stroke="#000000" points="692.6367,-399.4019 484.5607,-399.4019 484.5607,-358.1981 692.6367,-358.1981 692.6367,-399.4019"/>
<text text-anchor="middle" x="588.5987" y="-383" font-family="FangSong" font-size="14.00" fill="#000000">直接法(Direct Method)</text>
<text text-anchor="middle" x="588.5987" y="-366.2" font-family="FangSong" font-size="14.00" fill="#000000"> 贝立兹父子的学校和商业大获成功</text>
</g>
<!-- 序列法&#45;&gt;直接法 -->
<g id="edge7" class="edge">
<title>序列法&#45;&gt;直接法</title>
<path fill="none" stroke="#000000" stroke-dasharray="1,5" d="M575.9096,-539.3597C578.6801,-504.3037 583.3035,-445.8016 586.1386,-409.9281"/>
<polygon fill="#000000" stroke="#000000" points="589.6582,-409.8172 586.957,-399.5725 582.68,-409.2656 589.6582,-409.8172"/>
<text text-anchor="middle" x="600.49" y="-461.6" font-family="FangSong" font-size="14.00" fill="#000000">受启发</text>
</g>
<!-- 二语习得 -->
<g id="node11" class="node">
<title>二语习得</title>
<polygon fill="none" stroke="#000000" points="974.6907,-152 726.5067,-152 726.5067,-116 974.6907,-116 974.6907,-152"/>
<text text-anchor="middle" x="850.5987" y="-129.8" font-family="FangSong" font-size="14.00" fill="#ff0000">二语习得(Second Language Acquistion)</text>
</g>
<!-- 二战时官方主流&#45;&gt;二语习得 -->
<g id="edge10" class="edge">
<title>二战时官方主流&#45;&gt;二语习得</title>
<path fill="none" stroke="#000000" d="M695.3533,-232.6439C719.312,-215.9282 756.1512,-190.6669 788.9787,-170 795.6875,-165.7764 802.892,-161.4152 809.9255,-157.249"/>
<polygon fill="#000000" stroke="#000000" points="811.8416,-160.1827 818.6928,-152.1012 808.2972,-154.1464 811.8416,-160.1827"/>
<text text-anchor="middle" x="899.4087" y="-174.2" font-family="FangSong" font-size="14.00" fill="#000000">学术思想解放，主体转换到&#39;人&#39;</text>
</g>
<!-- 直接法&#45;&gt;二战时官方主流 -->
<g id="edge9" class="edge">
<title>直接法&#45;&gt;二战时官方主流</title>
<path fill="none" stroke="#000000" d="M588.8295,-358.081C589.7641,-344.971 592.4732,-328.0573 599.7277,-314.8 608.0981,-299.5034 621.516,-285.9017 634.3663,-275.2138"/>
<polygon fill="#000000" stroke="#000000" points="636.5975,-277.9113 642.244,-268.9465 632.2393,-272.4334 636.5975,-277.9113"/>
<text text-anchor="middle" x="664.5342" y="-319" font-family="FangSong" font-size="14.00" fill="#000000">二战需要，官方整合</text>
</g>
<!-- 克拉盛五大理论 -->
<g id="node12" class="node">
<title>克拉盛五大理论</title>
<polygon fill="none" stroke="#000000" points="1244.4316,-296.8 820.7658,-296.8 820.7658,-204.8 1244.4316,-204.8 1244.4316,-296.8"/>
<text text-anchor="start" x="828.9323" y="-280.2" font-family="FangSong" font-size="14.00" fill="#000000">1.“习得”&#45;学得差异假设（The Acquisition&#45;Learning Hypothesis）</text>
<text text-anchor="start" x="828.9323" y="-263.4" font-family="FangSong" font-size="14.00" fill="#000000">2.自然顺序假设（The Natural Order Hypothesis）</text>
<text text-anchor="start" x="828.9323" y="-246.6" font-family="FangSong" font-size="14.00" fill="#000000">3.监检假设（The Monitor Hypothesis）</text>
<text text-anchor="start" x="828.9323" y="-229.8" font-family="FangSong" font-size="14.00" fill="#000000">4.输入假设（The Input Hypothesis） &#45;【核心】</text>
<text text-anchor="start" x="828.9323" y="-213" font-family="FangSong" font-size="14.00" fill="#000000">5.情感过滤假设（The Affective Filter Hypothesis）</text>
</g>
<!-- 克拉盛五大理论&#45;&gt;二语习得 -->
<g id="edge11" class="edge">
<title>克拉盛五大理论&#45;&gt;二语习得</title>
<path fill="none" stroke="#000000" d="M1028.8774,-204.7671C1025.7032,-191.9975 1020.1596,-179.1445 1010.5987,-170 1004.5223,-164.1883 992.7332,-159.1421 978.1908,-154.8174"/>
<polygon fill="#000000" stroke="#000000" points="978.8399,-151.3658 968.2691,-152.0789 976.9774,-158.1134 978.8399,-151.3658"/>
<text text-anchor="middle" x="1050.7649" y="-174.2" font-family="FangSong" font-size="14.00" fill="#000000">理论支撑</text>
</g>
</g>
</svg>
