<?xml version="1.0" encoding="UTF-8" standalone="no"?>
<!DOCTYPE svg PUBLIC "-//W3C//DTD SVG 1.1//EN"
 "http://www.w3.org/Graphics/SVG/1.1/DTD/svg11.dtd">
<!-- Generated by graphviz version 2.40.1 (20161225.0304)
 -->
<!-- Title: ChapterThree Pages: 1 -->
<svg width="1335pt" height="998pt"
 viewBox="0.00 0.00 1334.67 997.60" xmlns="http://www.w3.org/2000/svg" xmlns:xlink="http://www.w3.org/1999/xlink">
<g id="graph0" class="graph" transform="scale(1 1) rotate(0) translate(4 993.6)">
<title>ChapterThree</title>
<polygon fill="#ffffff" stroke="transparent" points="-4,4 -4,-993.6 1330.6664,-993.6 1330.6664,4 -4,4"/>
<text text-anchor="start" x="501.4115" y="-52.6" font-family="FangSong" font-size="18.00" fill="#000000">《找对学习英语方法的第一本书》&#45; 漏屋</text>
<text text-anchor="start" x="501.4115" y="-31" font-family="FangSong" font-size="18.00" fill="#000000">第三章 探寻方法最佳之路</text>
<text text-anchor="start" x="501.4115" y="-9.4" font-family="FangSong" font-size="18.00" fill="#000000">2022.12.03 &#45; 12.06 by 偕臧</text>
<g id="clust1" class="cluster">
<title>cluster_time</title>
<polygon fill="none" stroke="#000000" points="8,-101.8 8,-973.2 440,-973.2 440,-101.8 8,-101.8"/>
</g>
<g id="clust2" class="cluster">
<title>cluster_histyle</title>
<polygon fill="none" stroke="#000000" points="448,-592 448,-981.6 756,-981.6 756,-592 448,-592"/>
</g>
<!-- 语法翻译法 1850&#45;1950\n（Grammare Translation） -->
<g id="node1" class="node">
<title>语法翻译法 1850&#45;1950\n（Grammare Translation）</title>
<polygon fill="none" stroke="#000000" points="316.6116,-965.0019 131.3884,-965.0019 131.3884,-923.7981 316.6116,-923.7981 316.6116,-965.0019"/>
<text text-anchor="middle" x="224" y="-948.6" font-family="FangSong" font-size="14.00" fill="#000000">语法翻译法 1850&#45;1950</text>
<text text-anchor="middle" x="224" y="-931.8" font-family="FangSong" font-size="14.00" fill="#000000">（Grammare Translation）</text>
</g>
<!-- 直接法 1890&#45;现在\n（Direct Method） -->
<g id="node2" class="node">
<title>直接法 1890&#45;现在\n（Direct Method）</title>
<polygon fill="none" stroke="#000000" points="294.0274,-799.0019 153.9726,-799.0019 153.9726,-757.7981 294.0274,-757.7981 294.0274,-799.0019"/>
<text text-anchor="middle" x="224" y="-782.6" font-family="FangSong" font-size="14.00" fill="#000000">直接法 1890&#45;现在</text>
<text text-anchor="middle" x="224" y="-765.8" font-family="FangSong" font-size="14.00" fill="#000000">（Direct Method）</text>
</g>
<!-- 语法翻译法 1850&#45;1950\n（Grammare Translation）&#45;&gt;直接法 1890&#45;现在\n（Direct Method） -->
<g id="edge1" class="edge">
<title>语法翻译法 1850&#45;1950\n（Grammare Translation）&#45;&gt;直接法 1890&#45;现在\n（Direct Method）</title>
<path fill="none" stroke="#000000" d="M224,-923.7116C224,-894.9297 224,-842.5893 224,-809.2063"/>
<polygon fill="#000000" stroke="#000000" points="227.5001,-809.0877 224,-799.0877 220.5001,-809.0878 227.5001,-809.0877"/>
</g>
<!-- 听说法 + 行为学结构主义教学观（美国） 1960&#45;1970\n（Audio&#45;Lingualism） -->
<g id="node3" class="node">
<title>听说法 + 行为学结构主义教学观（美国） 1960&#45;1970\n（Audio&#45;Lingualism）</title>
<polygon fill="none" stroke="#000000" points="402.8884,-649.8019 45.1116,-649.8019 45.1116,-608.5981 402.8884,-608.5981 402.8884,-649.8019"/>
<text text-anchor="middle" x="224" y="-633.4" font-family="FangSong" font-size="14.00" fill="#000000">听说法 + 行为学结构主义教学观（美国） 1960&#45;1970</text>
<text text-anchor="middle" x="224" y="-616.6" font-family="FangSong" font-size="14.00" fill="#000000">（Audio&#45;Lingualism）</text>
</g>
<!-- 直接法 1890&#45;现在\n（Direct Method）&#45;&gt;听说法 + 行为学结构主义教学观（美国） 1960&#45;1970\n（Audio&#45;Lingualism） -->
<g id="edge2" class="edge">
<title>直接法 1890&#45;现在\n（Direct Method）&#45;&gt;听说法 + 行为学结构主义教学观（美国） 1960&#45;1970\n（Audio&#45;Lingualism）</title>
<path fill="none" stroke="#000000" d="M224,-757.6544C224,-732.4097 224,-689.547 224,-660.3365"/>
<polygon fill="#000000" stroke="#000000" points="227.5001,-660.2504 224,-650.2504 220.5001,-660.2504 227.5001,-660.2504"/>
</g>
<!-- 情景教学法（英国） 1960&#45;1980\n（Situational Method, PPP） -->
<g id="node4" class="node">
<title>情景教学法（英国） 1960&#45;1980\n（Situational Method, PPP）</title>
<polygon fill="none" stroke="#000000" points="337.6565,-418.0019 110.3435,-418.0019 110.3435,-376.7981 337.6565,-376.7981 337.6565,-418.0019"/>
<text text-anchor="middle" x="224" y="-401.6" font-family="FangSong" font-size="14.00" fill="#000000">情景教学法（英国） 1960&#45;1980</text>
<text text-anchor="middle" x="224" y="-384.8" font-family="FangSong" font-size="14.00" fill="#000000">（Situational Method, PPP）</text>
</g>
<!-- 听说法 + 行为学结构主义教学观（美国） 1960&#45;1970\n（Audio&#45;Lingualism）&#45;&gt;情景教学法（英国） 1960&#45;1980\n（Situational Method, PPP） -->
<g id="edge3" class="edge">
<title>听说法 + 行为学结构主义教学观（美国） 1960&#45;1970\n（Audio&#45;Lingualism）&#45;&gt;情景教学法（英国） 1960&#45;1980\n（Situational Method, PPP）</title>
<path fill="none" stroke="#000000" d="M224,-608.2205C224,-567.1914 224,-476.164 224,-428.255"/>
<polygon fill="#000000" stroke="#000000" points="227.5001,-428.1651 224,-418.1651 220.5001,-428.1652 227.5001,-428.1651"/>
</g>
<!-- 人本主义教学方法 1970&#45;1980\n（Humanistic approaches） &#160;\n具体: 交际法 / 任务型教学 / 多元智慧法 / 暗示法 / 完全身体反应法 -->
<g id="node5" class="node">
<title>人本主义教学方法 1970&#45;1980\n（Humanistic approaches） &#160;\n具体: 交际法 / 任务型教学 / 多元智慧法 / 暗示法 / 完全身体反应法</title>
<polygon fill="none" stroke="#000000" points="431.6974,-301.8014 16.3026,-301.8014 16.3026,-242.9986 431.6974,-242.9986 431.6974,-301.8014"/>
<text text-anchor="middle" x="224" y="-285" font-family="FangSong" font-size="14.00" fill="#000000">人本主义教学方法 1970&#45;1980</text>
<text text-anchor="middle" x="224" y="-268.2" font-family="FangSong" font-size="14.00" fill="#000000">（Humanistic approaches） &#160;</text>
<text text-anchor="middle" x="224" y="-251.4" font-family="FangSong" font-size="14.00" fill="#000000">具体: 交际法 / 任务型教学 / 多元智慧法 / 暗示法 / 完全身体反应法</text>
</g>
<!-- 情景教学法（英国） 1960&#45;1980\n（Situational Method, PPP）&#45;&gt;人本主义教学方法 1970&#45;1980\n（Humanistic approaches） &#160;\n具体: 交际法 / 任务型教学 / 多元智慧法 / 暗示法 / 完全身体反应法 -->
<g id="edge4" class="edge">
<title>情景教学法（英国） 1960&#45;1980\n（Situational Method, PPP）&#45;&gt;人本主义教学方法 1970&#45;1980\n（Humanistic approaches） &#160;\n具体: 交际法 / 任务型教学 / 多元智慧法 / 暗示法 / 完全身体反应法</title>
<path fill="none" stroke="#000000" d="M224,-376.7588C224,-359.2389 224,-333.5975 224,-312.1162"/>
<polygon fill="#000000" stroke="#000000" points="227.5001,-311.9589 224,-301.9589 220.5001,-311.959 227.5001,-311.9589"/>
</g>
<!-- 后方法时代 1980&#45;往后\n 遵循语言习得原则基础上，根据自己的学习特点制定最佳方案\n 重点原则：可理解输入，n+1 -->
<g id="node6" class="node">
<title>后方法时代 1980&#45;往后\n 遵循语言习得原则基础上，根据自己的学习特点制定最佳方案\n 重点原则：可理解输入，n+1</title>
<polygon fill="none" stroke="#000000" points="427.5858,-168.4014 20.4142,-168.4014 20.4142,-109.5986 427.5858,-109.5986 427.5858,-168.4014"/>
<text text-anchor="middle" x="224" y="-151.6" font-family="FangSong" font-size="14.00" fill="#000000">后方法时代 1980&#45;往后</text>
<text text-anchor="middle" x="224" y="-134.8" font-family="FangSong" font-size="14.00" fill="#000000"> 遵循语言习得原则基础上，根据自己的学习特点制定最佳方案</text>
<text text-anchor="middle" x="224" y="-118" font-family="FangSong" font-size="14.00" fill="#000000"> 重点原则：可理解输入，n+1</text>
</g>
<!-- 人本主义教学方法 1970&#45;1980\n（Humanistic approaches） &#160;\n具体: 交际法 / 任务型教学 / 多元智慧法 / 暗示法 / 完全身体反应法&#45;&gt;后方法时代 1980&#45;往后\n 遵循语言习得原则基础上，根据自己的学习特点制定最佳方案\n 重点原则：可理解输入，n+1 -->
<g id="edge5" class="edge">
<title>人本主义教学方法 1970&#45;1980\n（Humanistic approaches） &#160;\n具体: 交际法 / 任务型教学 / 多元智慧法 / 暗示法 / 完全身体反应法&#45;&gt;后方法时代 1980&#45;往后\n 遵循语言习得原则基础上，根据自己的学习特点制定最佳方案\n 重点原则：可理解输入，n+1</title>
<path fill="none" stroke="#000000" d="M224,-243.1248C224,-224.0975 224,-199.0627 224,-178.3094"/>
<polygon fill="#000000" stroke="#000000" points="227.5001,-178.2069 224,-168.2069 220.5001,-178.2069 227.5001,-178.2069"/>
</g>
<!-- 语法翻译法 -->
<g id="node7" class="node">
<title>语法翻译法</title>
<polygon fill="none" stroke="#000000" points="725.2064,-973.8014 482.7936,-973.8014 482.7936,-914.9986 725.2064,-914.9986 725.2064,-973.8014"/>
<text text-anchor="middle" x="604" y="-957" font-family="FangSong" font-size="14.00" fill="#000000">传统法：语法&#45;翻译法 统治地位</text>
<text text-anchor="middle" x="604" y="-940.2" font-family="FangSong" font-size="14.00" fill="#000000"> 1850&#45;1950 (Grammare Translation) </text>
<text text-anchor="middle" x="604" y="-923.4" font-family="FangSong" font-size="14.00" fill="#000000"> 统治地位</text>
</g>
<!-- 序列法 -->
<g id="node8" class="node">
<title>序列法</title>
<polygon fill="none" stroke="#000000" points="747.9882,-807.8014 456.0118,-807.8014 456.0118,-748.9986 747.9882,-748.9986 747.9882,-807.8014"/>
<text text-anchor="middle" x="602" y="-791" font-family="FangSong" font-size="14.00" fill="#000000">民间业余法：序列法(Series Method)</text>
<text text-anchor="middle" x="602" y="-774.2" font-family="FangSong" font-size="14.00" fill="#000000"> 19世纪&#45;法国</text>
<text text-anchor="middle" x="602" y="-757.4" font-family="FangSong" font-size="14.00" fill="#000000">弗朗索瓦●古恩 (Francois Gouin) 开山鼻祖</text>
</g>
<!-- 语法翻译法&#45;&gt;序列法 -->
<g id="edge6" class="edge">
<title>语法翻译法&#45;&gt;序列法</title>
<path fill="none" stroke="#000000" stroke-dasharray="1,5" d="M599.3741,-915.1495C597.7744,-903.6625 596.1868,-890.3437 595.4014,-878.2 594.112,-858.2626 595.3146,-836.0869 597.0296,-817.7124"/>
<polygon fill="#000000" stroke="#000000" points="600.5224,-817.96 598.0529,-807.657 593.5583,-817.2512 600.5224,-817.96"/>
<text text-anchor="middle" x="678.2993" y="-865.6" font-family="FangSong" font-size="14.00" fill="#000000">最倔强的拉丁文</text>
<text text-anchor="middle" x="678.2993" y="-848.8" font-family="FangSong" font-size="14.00" fill="#000000">教师，观察小孩学习英语</text>
</g>
<!-- 二战时官方主流 -->
<g id="node9" class="node">
<title>二战时官方主流</title>
<polygon fill="none" stroke="#000000" points="885.3887,-537.6019 586.6113,-537.6019 586.6113,-496.3981 885.3887,-496.3981 885.3887,-537.6019"/>
<text text-anchor="middle" x="736" y="-521.2" font-family="FangSong" font-size="14.00" fill="#000000">美国主流：听说法 + 行为学结构主义教学观</text>
<text text-anchor="middle" x="736" y="-504.4" font-family="FangSong" font-size="14.00" fill="#000000"> 1960&#45;1970 (Audio&#45;Lingualism)</text>
</g>
<!-- 语法翻译法&#45;&gt;二战时官方主流 -->
<g id="edge8" class="edge">
<title>语法翻译法:e&#45;&gt;二战时官方主流</title>
<path fill="none" stroke="#000000" d="M725,-944.4C768.2963,-944.4 776,-904.6963 776,-861.4 776,-861.4 776,-861.4 776,-629.2 776,-600.0169 763.8454,-568.914 752.9364,-546.8754"/>
<polygon fill="#000000" stroke="#000000" points="755.9114,-545.0077 748.2187,-537.7226 749.6893,-548.2149 755.9114,-545.0077"/>
</g>
<!-- 直接法 -->
<g id="node10" class="node">
<title>直接法</title>
<polygon fill="none" stroke="#000000" points="737.038,-658.6014 528.962,-658.6014 528.962,-599.7986 737.038,-599.7986 737.038,-658.6014"/>
<text text-anchor="middle" x="633" y="-641.8" font-family="FangSong" font-size="14.00" fill="#000000">直接法</text>
<text text-anchor="middle" x="633" y="-625" font-family="FangSong" font-size="14.00" fill="#000000"> 1890&#45;现在 （Direct Method）</text>
<text text-anchor="middle" x="633" y="-608.2" font-family="FangSong" font-size="14.00" fill="#000000"> 贝立兹父子的学校和商业大获成功</text>
</g>
<!-- 序列法&#45;&gt;直接法 -->
<g id="edge7" class="edge">
<title>序列法&#45;&gt;直接法</title>
<path fill="none" stroke="#000000" stroke-dasharray="1,5" d="M608.1246,-748.9229C612.9012,-725.9335 619.5806,-693.7863 624.8154,-668.5916"/>
<polygon fill="#000000" stroke="#000000" points="628.2806,-669.1188 626.8881,-658.6159 621.4269,-667.6947 628.2806,-669.1188"/>
<text text-anchor="middle" x="636.8913" y="-699.6" font-family="FangSong" font-size="14.00" fill="#000000">受启发</text>
</g>
<!-- 二语习得 -->
<g id="node11" class="node">
<title>二语习得</title>
<polygon fill="none" stroke="#000000" points="1301.4482,-418.0019 634.5518,-418.0019 634.5518,-376.7981 1301.4482,-376.7981 1301.4482,-418.0019"/>
<text text-anchor="middle" x="968" y="-401.6" font-family="FangSong" font-size="14.00" fill="#ff0000">二语习得(Second Language Acquistion)</text>
<text text-anchor="middle" x="968" y="-384.8" font-family="FangSong" font-size="14.00" fill="#ff0000"> [理解]正确输入条件下，通过意识自然获得的，理性学习，不能够获得的语言能力，尤其实现交流</text>
</g>
<!-- 二战时官方主流&#45;&gt;二语习得 -->
<g id="edge10" class="edge">
<title>二战时官方主流&#45;&gt;二语习得</title>
<path fill="none" stroke="#000000" d="M747.9426,-496.1438C759.6763,-477.5655 779.2974,-451.0845 803.38,-436.2 812.1406,-430.7854 828.4607,-425.4249 847.5396,-420.4954"/>
<polygon fill="#000000" stroke="#000000" points="848.5641,-423.8472 857.4228,-418.0356 846.8735,-417.0544 848.5641,-423.8472"/>
<text text-anchor="middle" x="913.81" y="-440.4" font-family="FangSong" font-size="14.00" fill="#000000">学术思想解放，主体转换到&#39;人&#39;</text>
</g>
<!-- 直接法&#45;&gt;二战时官方主流 -->
<g id="edge9" class="edge">
<title>直接法&#45;&gt;二战时官方主流</title>
<path fill="none" stroke="#000000" d="M660.062,-599.7208C675.4286,-582.9816 694.5741,-562.1261 709.7966,-545.5439"/>
<polygon fill="#000000" stroke="#000000" points="712.7362,-547.5172 716.9205,-537.7836 707.5796,-542.7834 712.7362,-547.5172"/>
<text text-anchor="middle" x="651.985" y="-541.9836" font-family="FangSong" font-size="14.00" fill="#000000">二战需要，官方整合</text>
</g>
<!-- 克拉申五大理论 -->
<g id="node12" class="node">
<title>克拉申五大理论</title>
<polygon fill="none" stroke="#000000" points="1326.8329,-563 903.1671,-563 903.1671,-471 1326.8329,-471 1326.8329,-563"/>
<text text-anchor="start" x="911.3336" y="-546.4" font-family="FangSong" font-size="14.00" fill="#000000">1.“习得”&#45;学得差异假设（The Acquisition&#45;Learning Hypothesis）</text>
<text text-anchor="start" x="911.3336" y="-529.6" font-family="FangSong" font-size="14.00" fill="#000000">2.自然顺序假设（The Natural Order Hypothesis）</text>
<text text-anchor="start" x="911.3336" y="-512.8" font-family="FangSong" font-size="14.00" fill="#000000">3.监检假设（The Monitor Hypothesis）</text>
<text text-anchor="start" x="911.3336" y="-496" font-family="FangSong" font-size="14.00" fill="#000000">4.输入假设（The Input Hypothesis） &#45;【核心】</text>
<text text-anchor="start" x="911.3336" y="-479.2" font-family="FangSong" font-size="14.00" fill="#000000">5.情感过滤假设（The Affective Filter Hypothesis）</text>
</g>
<!-- 克拉申五大理论&#45;&gt;二语习得 -->
<g id="edge11" class="edge">
<title>克拉申五大理论&#45;&gt;二语习得</title>
<path fill="none" stroke="#000000" d="M1069.1068,-470.8848C1056.5219,-459.0841 1042.5908,-446.7561 1029,-436.2 1023.5389,-431.9583 1017.6032,-427.7453 1011.65,-423.7451"/>
<polygon fill="#000000" stroke="#000000" points="1013.2515,-420.6101 1002.9686,-418.058 1009.4156,-426.4656 1013.2515,-420.6101"/>
<text text-anchor="middle" x="1077.1662" y="-440.4" font-family="FangSong" font-size="14.00" fill="#000000">理论支撑</text>
</g>
</g>
</svg>
