<?xml version="1.0" encoding="UTF-8" standalone="no"?>
<!DOCTYPE svg PUBLIC "-//W3C//DTD SVG 1.1//EN"
 "http://www.w3.org/Graphics/SVG/1.1/DTD/svg11.dtd">
<!-- Generated by graphviz version 2.40.1 (20161225.0304)
 -->
<!-- Title: ChapterThree Pages: 1 -->
<svg width="1336pt" height="981pt"
 viewBox="0.00 0.00 1335.67 980.80" xmlns="http://www.w3.org/2000/svg" xmlns:xlink="http://www.w3.org/1999/xlink">
<g id="graph0" class="graph" transform="scale(1 1) rotate(0) translate(4 976.8)">
<title>ChapterThree</title>
<polygon fill="#ffffff" stroke="transparent" points="-4,4 -4,-976.8 1331.6664,-976.8 1331.6664,4 -4,4"/>
<text text-anchor="start" x="501.9115" y="-52.6" font-family="FangSong" font-size="18.00" fill="#000000">《找对学习英语方法的第一本书》&#45; 漏屋</text>
<text text-anchor="start" x="501.9115" y="-31" font-family="FangSong" font-size="18.00" fill="#000000">第三章 探寻方法最佳之路</text>
<text text-anchor="start" x="501.9115" y="-9.4" font-family="FangSong" font-size="18.00" fill="#000000">2022.12.03 &#45; 12.06 by 偕臧</text>
<g id="clust1" class="cluster">
<title>cluster_time</title>
<polygon fill="none" stroke="#000000" points="8,-101.8 8,-956.4 440,-956.4 440,-101.8 8,-101.8"/>
</g>
<g id="clust2" class="cluster">
<title>cluster_histyle</title>
<polygon fill="none" stroke="#000000" points="448,-592 448,-964.8 756,-964.8 756,-592 448,-592"/>
</g>
<!-- 语法翻译法 1850&#45;1950\n（Grammare Translation） -->
<g id="node1" class="node">
<title>语法翻译法 1850&#45;1950\n（Grammare Translation）</title>
<polygon fill="none" stroke="#000000" points="316.6116,-948.2019 131.3884,-948.2019 131.3884,-906.9981 316.6116,-906.9981 316.6116,-948.2019"/>
<text text-anchor="middle" x="224" y="-931.8" font-family="FangSong" font-size="14.00" fill="#000000">语法翻译法 1850&#45;1950</text>
<text text-anchor="middle" x="224" y="-915" font-family="FangSong" font-size="14.00" fill="#000000">（Grammare Translation）</text>
</g>
<!-- 直接法 1890&#45;现在\n（Direct Method） -->
<g id="node2" class="node">
<title>直接法 1890&#45;现在\n（Direct Method）</title>
<polygon fill="none" stroke="#000000" points="294.0274,-782.2019 153.9726,-782.2019 153.9726,-740.9981 294.0274,-740.9981 294.0274,-782.2019"/>
<text text-anchor="middle" x="224" y="-765.8" font-family="FangSong" font-size="14.00" fill="#000000">直接法 1890&#45;现在</text>
<text text-anchor="middle" x="224" y="-749" font-family="FangSong" font-size="14.00" fill="#000000">（Direct Method）</text>
</g>
<!-- 语法翻译法 1850&#45;1950\n（Grammare Translation）&#45;&gt;直接法 1890&#45;现在\n（Direct Method） -->
<g id="edge1" class="edge">
<title>语法翻译法 1850&#45;1950\n（Grammare Translation）&#45;&gt;直接法 1890&#45;现在\n（Direct Method）</title>
<path fill="none" stroke="#000000" d="M224,-906.9116C224,-878.1297 224,-825.7893 224,-792.4063"/>
<polygon fill="#000000" stroke="#000000" points="227.5001,-792.2877 224,-782.2877 220.5001,-792.2878 227.5001,-792.2877"/>
</g>
<!-- 听说法 + 行为学结构主义教学观（美国） 1960&#45;1970\n（Audio&#45;Lingualism） -->
<g id="node3" class="node">
<title>听说法 + 行为学结构主义教学观（美国） 1960&#45;1970\n（Audio&#45;Lingualism）</title>
<polygon fill="none" stroke="#000000" points="402.8884,-641.4019 45.1116,-641.4019 45.1116,-600.1981 402.8884,-600.1981 402.8884,-641.4019"/>
<text text-anchor="middle" x="224" y="-625" font-family="FangSong" font-size="14.00" fill="#000000">听说法 + 行为学结构主义教学观（美国） 1960&#45;1970</text>
<text text-anchor="middle" x="224" y="-608.2" font-family="FangSong" font-size="14.00" fill="#000000">（Audio&#45;Lingualism）</text>
</g>
<!-- 直接法 1890&#45;现在\n（Direct Method）&#45;&gt;听说法 + 行为学结构主义教学观（美国） 1960&#45;1970\n（Audio&#45;Lingualism） -->
<g id="edge2" class="edge">
<title>直接法 1890&#45;现在\n（Direct Method）&#45;&gt;听说法 + 行为学结构主义教学观（美国） 1960&#45;1970\n（Audio&#45;Lingualism）</title>
<path fill="none" stroke="#000000" d="M224,-740.8245C224,-717.3235 224,-678.8113 224,-651.7639"/>
<polygon fill="#000000" stroke="#000000" points="227.5001,-651.6607 224,-641.6608 220.5001,-651.6608 227.5001,-651.6607"/>
</g>
<!-- 情景教学法（英国） 1960&#45;1980\n（Situational Method, PPP） -->
<g id="node4" class="node">
<title>情景教学法（英国） 1960&#45;1980\n（Situational Method, PPP）</title>
<polygon fill="none" stroke="#000000" points="337.6565,-418.0019 110.3435,-418.0019 110.3435,-376.7981 337.6565,-376.7981 337.6565,-418.0019"/>
<text text-anchor="middle" x="224" y="-401.6" font-family="FangSong" font-size="14.00" fill="#000000">情景教学法（英国） 1960&#45;1980</text>
<text text-anchor="middle" x="224" y="-384.8" font-family="FangSong" font-size="14.00" fill="#000000">（Situational Method, PPP）</text>
</g>
<!-- 听说法 + 行为学结构主义教学观（美国） 1960&#45;1970\n（Audio&#45;Lingualism）&#45;&gt;情景教学法（英国） 1960&#45;1980\n（Situational Method, PPP） -->
<g id="edge3" class="edge">
<title>听说法 + 行为学结构主义教学观（美国） 1960&#45;1970\n（Audio&#45;Lingualism）&#45;&gt;情景教学法（英国） 1960&#45;1980\n（Situational Method, PPP）</title>
<path fill="none" stroke="#000000" d="M224,-600.1835C224,-560.8006 224,-474.6763 224,-428.3515"/>
<polygon fill="#000000" stroke="#000000" points="227.5001,-428.2914 224,-418.2915 220.5001,-428.2915 227.5001,-428.2914"/>
</g>
<!-- 人本主义教学方法 1970&#45;1980\n（Humanistic approaches） &#160;\n具体: 交际法 / 任务型教学 / 多元智慧法 / 暗示法 / 完全身体反应法 -->
<g id="node5" class="node">
<title>人本主义教学方法 1970&#45;1980\n（Humanistic approaches） &#160;\n具体: 交际法 / 任务型教学 / 多元智慧法 / 暗示法 / 完全身体反应法</title>
<polygon fill="none" stroke="#000000" points="431.6974,-301.8014 16.3026,-301.8014 16.3026,-242.9986 431.6974,-242.9986 431.6974,-301.8014"/>
<text text-anchor="middle" x="224" y="-285" font-family="FangSong" font-size="14.00" fill="#000000">人本主义教学方法 1970&#45;1980</text>
<text text-anchor="middle" x="224" y="-268.2" font-family="FangSong" font-size="14.00" fill="#000000">（Humanistic approaches） &#160;</text>
<text text-anchor="middle" x="224" y="-251.4" font-family="FangSong" font-size="14.00" fill="#000000">具体: 交际法 / 任务型教学 / 多元智慧法 / 暗示法 / 完全身体反应法</text>
</g>
<!-- 情景教学法（英国） 1960&#45;1980\n（Situational Method, PPP）&#45;&gt;人本主义教学方法 1970&#45;1980\n（Humanistic approaches） &#160;\n具体: 交际法 / 任务型教学 / 多元智慧法 / 暗示法 / 完全身体反应法 -->
<g id="edge4" class="edge">
<title>情景教学法（英国） 1960&#45;1980\n（Situational Method, PPP）&#45;&gt;人本主义教学方法 1970&#45;1980\n（Humanistic approaches） &#160;\n具体: 交际法 / 任务型教学 / 多元智慧法 / 暗示法 / 完全身体反应法</title>
<path fill="none" stroke="#000000" d="M224,-376.7588C224,-359.2389 224,-333.5975 224,-312.1162"/>
<polygon fill="#000000" stroke="#000000" points="227.5001,-311.9589 224,-301.9589 220.5001,-311.959 227.5001,-311.9589"/>
</g>
<!-- 后方法时代 1980&#45;往后\n 遵循语言习得原则基础上，根据自己的学习特点制定最佳方案\n 重点原则：可理解输入，n+1 -->
<g id="node6" class="node">
<title>后方法时代 1980&#45;往后\n 遵循语言习得原则基础上，根据自己的学习特点制定最佳方案\n 重点原则：可理解输入，n+1</title>
<polygon fill="none" stroke="#000000" points="427.5858,-168.4014 20.4142,-168.4014 20.4142,-109.5986 427.5858,-109.5986 427.5858,-168.4014"/>
<text text-anchor="middle" x="224" y="-151.6" font-family="FangSong" font-size="14.00" fill="#000000">后方法时代 1980&#45;往后</text>
<text text-anchor="middle" x="224" y="-134.8" font-family="FangSong" font-size="14.00" fill="#000000"> 遵循语言习得原则基础上，根据自己的学习特点制定最佳方案</text>
<text text-anchor="middle" x="224" y="-118" font-family="FangSong" font-size="14.00" fill="#000000"> 重点原则：可理解输入，n+1</text>
</g>
<!-- 人本主义教学方法 1970&#45;1980\n（Humanistic approaches） &#160;\n具体: 交际法 / 任务型教学 / 多元智慧法 / 暗示法 / 完全身体反应法&#45;&gt;后方法时代 1980&#45;往后\n 遵循语言习得原则基础上，根据自己的学习特点制定最佳方案\n 重点原则：可理解输入，n+1 -->
<g id="edge5" class="edge">
<title>人本主义教学方法 1970&#45;1980\n（Humanistic approaches） &#160;\n具体: 交际法 / 任务型教学 / 多元智慧法 / 暗示法 / 完全身体反应法&#45;&gt;后方法时代 1980&#45;往后\n 遵循语言习得原则基础上，根据自己的学习特点制定最佳方案\n 重点原则：可理解输入，n+1</title>
<path fill="none" stroke="#000000" d="M224,-243.1248C224,-224.0975 224,-199.0627 224,-178.3094"/>
<polygon fill="#000000" stroke="#000000" points="227.5001,-178.2069 224,-168.2069 220.5001,-178.2069 227.5001,-178.2069"/>
</g>
<!-- 语法翻译法 -->
<g id="node7" class="node">
<title>语法翻译法</title>
<polygon fill="none" stroke="#000000" points="725.2064,-957.0014 482.7936,-957.0014 482.7936,-898.1986 725.2064,-898.1986 725.2064,-957.0014"/>
<text text-anchor="middle" x="604" y="-940.2" font-family="FangSong" font-size="14.00" fill="#000000">传统法：语法&#45;翻译法 统治地位</text>
<text text-anchor="middle" x="604" y="-923.4" font-family="FangSong" font-size="14.00" fill="#000000"> 1850&#45;1950 (Grammare Translation) </text>
<text text-anchor="middle" x="604" y="-906.6" font-family="FangSong" font-size="14.00" fill="#000000"> 统治地位</text>
</g>
<!-- 序列法 -->
<g id="node8" class="node">
<title>序列法</title>
<polygon fill="none" stroke="#000000" points="747.9882,-791.0014 456.0118,-791.0014 456.0118,-732.1986 747.9882,-732.1986 747.9882,-791.0014"/>
<text text-anchor="middle" x="602" y="-774.2" font-family="FangSong" font-size="14.00" fill="#000000">民间业余法：序列法(Series Method)</text>
<text text-anchor="middle" x="602" y="-757.4" font-family="FangSong" font-size="14.00" fill="#000000"> 19世纪&#45;法国</text>
<text text-anchor="middle" x="602" y="-740.6" font-family="FangSong" font-size="14.00" fill="#000000">弗朗索瓦●古恩 (Francois Gouin) 开山鼻祖</text>
</g>
<!-- 语法翻译法&#45;&gt;序列法 -->
<g id="edge6" class="edge">
<title>语法翻译法&#45;&gt;序列法</title>
<path fill="none" stroke="#000000" stroke-dasharray="1,5" d="M599.3741,-898.3495C597.7744,-886.8625 596.1868,-873.5437 595.4014,-861.4 594.112,-841.4626 595.3146,-819.2869 597.0296,-800.9124"/>
<polygon fill="#000000" stroke="#000000" points="600.5224,-801.16 598.0529,-790.857 593.5583,-800.4512 600.5224,-801.16"/>
<text text-anchor="middle" x="678.2993" y="-848.8" font-family="FangSong" font-size="14.00" fill="#000000">最倔强的拉丁文</text>
<text text-anchor="middle" x="678.2993" y="-832" font-family="FangSong" font-size="14.00" fill="#000000">教师，观察小孩学习英语</text>
</g>
<!-- 二战时官方主流 -->
<g id="node9" class="node">
<title>二战时官方主流</title>
<polygon fill="none" stroke="#000000" points="886.3887,-537.6019 587.6113,-537.6019 587.6113,-496.3981 886.3887,-496.3981 886.3887,-537.6019"/>
<text text-anchor="middle" x="737" y="-521.2" font-family="FangSong" font-size="14.00" fill="#000000">美国主流：听说法 + 行为学结构主义教学观</text>
<text text-anchor="middle" x="737" y="-504.4" font-family="FangSong" font-size="14.00" fill="#000000"> 1960&#45;1970 (Audio&#45;Lingualism)</text>
</g>
<!-- 语法翻译法&#45;&gt;二战时官方主流 -->
<g id="edge8" class="edge">
<title>语法翻译法:e&#45;&gt;二战时官方主流</title>
<path fill="none" stroke="#000000" d="M725,-927.6C768.2963,-927.6 776,-887.8963 776,-844.6 776,-844.6 776,-844.6 776,-620.8 776,-594.5422 764.9286,-566.798 754.5836,-546.6055"/>
<polygon fill="#000000" stroke="#000000" points="757.5761,-544.7795 749.7701,-537.6159 751.405,-548.0838 757.5761,-544.7795"/>
</g>
<!-- 直接法 -->
<g id="node10" class="node">
<title>直接法</title>
<polygon fill="none" stroke="#000000" points="737.1881,-641.4019 532.8119,-641.4019 532.8119,-600.1981 737.1881,-600.1981 737.1881,-641.4019"/>
<text text-anchor="middle" x="635" y="-625" font-family="FangSong" font-size="14.00" fill="#000000">直接法</text>
<text text-anchor="middle" x="635" y="-608.2" font-family="FangSong" font-size="14.00" fill="#000000"> 1890&#45;现在 （Direct Method）</text>
<text text-anchor="middle" x="438.637" y="-645.8" font-family="FangSong" font-size="14.00" fill="#000000">贝立兹父子的学校和商业大获成功</text>
</g>
<!-- 序列法&#45;&gt;直接法 -->
<g id="edge7" class="edge">
<title>序列法&#45;&gt;直接法</title>
<path fill="none" stroke="#000000" stroke-dasharray="1,5" d="M608.9179,-732.0837C614.4496,-708.4817 622.1802,-675.4978 627.788,-651.5712"/>
<polygon fill="#000000" stroke="#000000" points="631.2498,-652.1388 630.1241,-641.6039 624.4344,-650.5414 631.2498,-652.1388"/>
<text text-anchor="middle" x="638.8913" y="-682.8" font-family="FangSong" font-size="14.00" fill="#000000">受启发</text>
</g>
<!-- 二语习得 -->
<g id="node11" class="node">
<title>二语习得</title>
<polygon fill="none" stroke="#000000" points="1301.4482,-418.0019 634.5518,-418.0019 634.5518,-376.7981 1301.4482,-376.7981 1301.4482,-418.0019"/>
<text text-anchor="middle" x="968" y="-401.6" font-family="FangSong" font-size="14.00" fill="#ff0000">二语习得(Second Language Acquistion)</text>
<text text-anchor="middle" x="968" y="-384.8" font-family="FangSong" font-size="14.00" fill="#ff0000"> [理解]正确输入条件下，通过意识自然获得的，理性学习，不能够获得的语言能力，尤其实现交流</text>
</g>
<!-- 二战时官方主流&#45;&gt;二语习得 -->
<g id="edge10" class="edge">
<title>二战时官方主流&#45;&gt;二语习得</title>
<path fill="none" stroke="#000000" d="M748.9474,-496.1514C760.6843,-477.5784 780.3075,-451.1009 804.38,-436.2 813.0865,-430.8106 829.3071,-425.4615 848.2699,-420.5352"/>
<polygon fill="#000000" stroke="#000000" points="849.2422,-423.8999 858.0931,-418.0764 847.5425,-417.1094 849.2422,-423.8999"/>
<text text-anchor="middle" x="914.81" y="-440.4" font-family="FangSong" font-size="14.00" fill="#000000">学术思想解放，主体转换到&#39;人&#39;</text>
</g>
<!-- 直接法&#45;&gt;二战时官方主流 -->
<g id="edge9" class="edge">
<title>直接法&#45;&gt;二战时官方主流</title>
<path fill="none" stroke="#000000" d="M655.6412,-599.7945C671.0884,-584.0747 692.3778,-562.4097 709.3042,-545.1845"/>
<polygon fill="#000000" stroke="#000000" points="712.225,-547.2058 716.7376,-537.62 707.2322,-542.2995 712.225,-547.2058"/>
<text text-anchor="middle" x="651.8021" y="-541.82" font-family="FangSong" font-size="14.00" fill="#000000">二战需要，官方整合</text>
</g>
<!-- 克拉申五大理论 -->
<g id="node12" class="node">
<title>克拉申五大理论</title>
<polygon fill="none" stroke="#000000" points="1327.8329,-563 904.1671,-563 904.1671,-471 1327.8329,-471 1327.8329,-563"/>
<text text-anchor="start" x="912.3336" y="-546.4" font-family="FangSong" font-size="14.00" fill="#000000">1.“习得”&#45;学得差异假设（The Acquisition&#45;Learning Hypothesis）</text>
<text text-anchor="start" x="912.3336" y="-529.6" font-family="FangSong" font-size="14.00" fill="#000000">2.自然顺序假设（The Natural Order Hypothesis）</text>
<text text-anchor="start" x="912.3336" y="-512.8" font-family="FangSong" font-size="14.00" fill="#000000">3.监检假设（The Monitor Hypothesis）</text>
<text text-anchor="start" x="912.3336" y="-496" font-family="FangSong" font-size="14.00" fill="#000000">4.输入假设（The Input Hypothesis） &#45;【核心】</text>
<text text-anchor="start" x="912.3336" y="-479.2" font-family="FangSong" font-size="14.00" fill="#000000">5.情感过滤假设（The Affective Filter Hypothesis）</text>
</g>
<!-- 克拉申五大理论&#45;&gt;二语习得 -->
<g id="edge11" class="edge">
<title>克拉申五大理论&#45;&gt;二语习得</title>
<path fill="none" stroke="#000000" d="M1070.1591,-470.8172C1057.5738,-459.017 1043.6294,-446.7061 1030,-436.2 1024.5269,-431.9811 1018.5788,-427.8025 1012.6051,-423.8377"/>
<polygon fill="#000000" stroke="#000000" points="1014.1852,-420.6915 1003.8869,-418.202 1010.385,-426.5702 1014.1852,-420.6915"/>
<text text-anchor="middle" x="1078.1662" y="-440.4" font-family="FangSong" font-size="14.00" fill="#000000">理论支撑</text>
</g>
</g>
</svg>
