<svg id="SvgjsSvg1006" width="680" height="99" xmlns="http://www.w3.org/2000/svg" version="1.1" xmlns:xlink="http://www.w3.org/1999/xlink" xmlns:svgjs="http://svgjs.com/svgjs"><defs id="SvgjsDefs1007"><marker id="SvgjsMarker1028" markerWidth="14" markerHeight="10" refX="10" refY="5" viewBox="0 0 14 10" orient="auto" markerUnits="userSpaceOnUse" stroke-dasharray="0,0"><path id="SvgjsPath1029" d="M0,0 L14,5 L0,10 L0,0" fill="#323232" stroke="#323232" stroke-width="1"></path></marker><marker id="SvgjsMarker1036" markerWidth="14" markerHeight="10" refX="10" refY="5" viewBox="0 0 14 10" orient="auto" markerUnits="userSpaceOnUse" stroke-dasharray="0,0"><path id="SvgjsPath1037" d="M0,0 L14,5 L0,10 L0,0" fill="#323232" stroke="#323232" stroke-width="1"></path></marker></defs><g id="SvgjsG1008" transform="translate(25,25)"><path id="SvgjsPath1009" d="M 16.333333333333332 0L 111.66666666666667 0C 133.44444444444446 0 133.44444444444446 49 111.66666666666667 49L 16.333333333333332 49C -5.444444444444444 49 -5.444444444444444 0 16.333333333333332 0Z" stroke="rgba(50,50,50,1)" stroke-width="2" fill-opacity="1" fill="#ffffff"></path><g id="SvgjsG1010"><text id="SvgjsText1011" font-family="微软雅黑" text-anchor="middle" font-size="13px" width="108px" fill="#323232" font-weight="400" align="middle" lineHeight="125%" anchor="middle" family="微软雅黑" size="13px" weight="400" font-style="" opacity="1" y="13.875" transform="rotate(0)"><tspan id="SvgjsTspan1012" dy="16" x="64"><tspan id="SvgjsTspan1013" style="text-decoration:;">Lambda 表达式</tspan></tspan></text></g></g><g id="SvgjsG1014" transform="translate(276,25)"><path id="SvgjsPath1015" d="M 16.333333333333332 0L 111.66666666666667 0C 133.44444444444446 0 133.44444444444446 49 111.66666666666667 49L 16.333333333333332 49C -5.444444444444444 49 -5.444444444444444 0 16.333333333333332 0Z" stroke="rgba(50,50,50,1)" stroke-width="2" fill-opacity="1" fill="#ffffff"></path><g id="SvgjsG1016"><text id="SvgjsText1017" font-family="微软雅黑" text-anchor="middle" font-size="13px" width="108px" fill="#323232" font-weight="400" align="middle" lineHeight="125%" anchor="middle" family="微软雅黑" size="13px" weight="400" font-style="" opacity="1" y="13.875" transform="rotate(0)"><tspan id="SvgjsTspan1018" dy="16" x="64"><tspan id="SvgjsTspan1019" style="text-decoration:;">clousure class</tspan></tspan></text></g></g><g id="SvgjsG1020" transform="translate(527,25)"><path id="SvgjsPath1021" d="M 16.333333333333332 0L 111.66666666666667 0C 133.44444444444446 0 133.44444444444446 49 111.66666666666667 49L 16.333333333333332 49C -5.444444444444444 49 -5.444444444444444 0 16.333333333333332 0Z" stroke="rgba(50,50,50,1)" stroke-width="2" fill-opacity="1" fill="#ffffff"></path><g id="SvgjsG1022"><text id="SvgjsText1023" font-family="微软雅黑" text-anchor="middle" font-size="13px" width="108px" fill="#323232" font-weight="400" align="middle" lineHeight="125%" anchor="middle" family="微软雅黑" size="13px" weight="400" font-style="" opacity="1" y="13.875" transform="rotate(0)"><tspan id="SvgjsTspan1024" dy="16" x="64"><tspan id="SvgjsTspan1025" style="text-decoration:;">clousure</tspan></tspan></text></g></g><g id="SvgjsG1026"><path id="SvgjsPath1027" d="M154 49.5L214.5 49.5L214.5 49.5L272.4 49.5" stroke="#323232" stroke-width="2" fill="none" marker-end="url(#SvgjsMarker1028)"></path><rect id="SvgjsRect1030" width="26" height="16" x="201" y="28" fill="#ffffff"></rect><text id="SvgjsText1031" font-family="微软雅黑" text-anchor="middle" font-size="13px" width="26px" fill="#323232" font-weight="400" align="top" lineHeight="16px" anchor="middle" family="微软雅黑" size="13px" weight="400" font-style="" opacity="1" y="25.375" transform="rotate(0)"><tspan id="SvgjsTspan1032" dy="16" x="214"><tspan id="SvgjsTspan1033" style="text-decoration:;">编译</tspan></tspan></text></g><g id="SvgjsG1034"><path id="SvgjsPath1035" d="M405 49.5L465.5 49.5L465.5 49.5L523.4 49.5" stroke="#323232" stroke-width="2" fill="none" marker-end="url(#SvgjsMarker1036)"></path><rect id="SvgjsRect1038" width="26" height="16" x="449" y="28" fill="#ffffff"></rect><text id="SvgjsText1039" font-family="微软雅黑" text-anchor="middle" font-size="13px" width="26px" fill="#323232" font-weight="400" align="top" lineHeight="16px" anchor="middle" family="微软雅黑" size="13px" weight="400" font-style="" opacity="1" y="25.375" transform="rotate(0)"><tspan id="SvgjsTspan1040" dy="16" x="462"><tspan id="SvgjsTspan1041" style="text-decoration:;">运行</tspan></tspan></text></g></svg>