<?xml version="1.0" encoding="UTF-8" standalone="no"?>
<!DOCTYPE svg PUBLIC "-//W3C//DTD SVG 1.1//EN"
 "http://www.w3.org/Graphics/SVG/1.1/DTD/svg11.dtd">
<!-- Generated by graphviz version 2.40.1 (20161225.0304)
 -->
<!-- Title: UI Pages: 1 -->
<svg width="1629pt" height="200pt"
 viewBox="0.00 0.00 1629.00 200.00" xmlns="http://www.w3.org/2000/svg" xmlns:xlink="http://www.w3.org/1999/xlink">
<g id="graph0" class="graph" transform="scale(1 1) rotate(0) translate(4 196)">
<title>UI</title>
<polygon fill="#ffffff" stroke="transparent" points="-4,4 -4,-196 1625,-196 1625,4 -4,4"/>
<text text-anchor="middle" x="810.5" y="-41.8" font-family="Times,serif" font-size="14.00" fill="#000000">Shell (壳层) &#160;2022.03.08 &#13;</text>
<text text-anchor="middle" x="810.5" y="-25" font-family="Times,serif" font-size="14.00" fill="#000000">&#13;</text>
<text text-anchor="middle" x="810.5" y="-8.2" font-family="Times,serif" font-size="14.00" fill="#000000"> &#160;&#160;&#160;Copyright © 偕臧 https://github.com/XMuli</text>
<g id="clust1" class="cluster">
<title>clusterGUIShell</title>
<polygon fill="none" stroke="#000000" points="8,-66.4 8,-184 875,-184 875,-66.4 8,-66.4"/>
<text text-anchor="middle" x="441.5" y="-167.4" font-family="Times,serif" font-size="14.00" fill="#000000">GUI Shell</text>
</g>
<g id="clust2" class="cluster">
<title>clusterMacOS</title>
<polygon fill="none" stroke="#000000" points="749,-74.4 749,-151.2 867,-151.2 867,-74.4 749,-74.4"/>
<text text-anchor="middle" x="808" y="-134.6" font-family="Times,serif" font-size="14.00" fill="#000000">MacOS</text>
</g>
<g id="clust3" class="cluster">
<title>clusterLinux</title>
<polygon fill="none" stroke="#000000" points="402,-74.4 402,-151.2 741,-151.2 741,-74.4 402,-74.4"/>
<text text-anchor="middle" x="571.5" y="-134.6" font-family="Times,serif" font-size="14.00" fill="#000000">Linux</text>
</g>
<g id="clust4" class="cluster">
<title>clusterWindows</title>
<polygon fill="none" stroke="#000000" points="16,-74.4 16,-151.2 394,-151.2 394,-74.4 16,-74.4"/>
<text text-anchor="middle" x="205" y="-134.6" font-family="Times,serif" font-size="14.00" fill="#000000">MacOS</text>
</g>
<g id="clust5" class="cluster">
<title>clusterCLIShell</title>
<polygon fill="none" stroke="#000000" points="883,-66.4 883,-184 1613,-184 1613,-66.4 883,-66.4"/>
<text text-anchor="middle" x="1248" y="-167.4" font-family="Times,serif" font-size="14.00" fill="#000000">CLI Shell</text>
</g>
<g id="clust7" class="cluster">
<title>clusterWindows</title>
<polygon fill="none" stroke="#000000" points="1201,-74.4 1201,-151.2 1605,-151.2 1605,-74.4 1201,-74.4"/>
<text text-anchor="middle" x="1403" y="-134.6" font-family="Times,serif" font-size="14.00" fill="#000000">Windows</text>
</g>
<g id="clust6" class="cluster">
<title>clusterMacOSAndLinux</title>
<polygon fill="none" stroke="#000000" points="891,-74.4 891,-151.2 1193,-151.2 1193,-74.4 891,-74.4"/>
<text text-anchor="middle" x="1042" y="-134.6" font-family="Times,serif" font-size="14.00" fill="#000000">MacOS / Linux</text>
</g>
<!-- Finder / 访达 -->
<g id="node1" class="node">
<title>Finder / 访达</title>
<polygon fill="#d3d3d3" stroke="#000000" points="858.5424,-118.4 757.4576,-118.4 757.4576,-82.4 858.5424,-82.4 858.5424,-118.4"/>
<text text-anchor="middle" x="808" y="-96.2" font-family="Times,serif" font-size="14.00" fill="#000000">Finder / 访达</text>
</g>
<!-- X窗口管理器 -->
<g id="node2" class="node">
<title>X窗口管理器</title>
<polygon fill="#d3d3d3" stroke="#000000" points="732.7647,-118.4 639.2353,-118.4 639.2353,-82.4 732.7647,-82.4 732.7647,-118.4"/>
<text text-anchor="middle" x="686" y="-96.2" font-family="Times,serif" font-size="14.00" fill="#000000">X窗口管理器</text>
</g>
<!-- Desktop Environment / 桌面环境 -->
<g id="node3" class="node">
<title>Desktop Environment / 桌面环境</title>
<polygon fill="#d3d3d3" stroke="#000000" points="621.6965,-118.4 410.3035,-118.4 410.3035,-82.4 621.6965,-82.4 621.6965,-118.4"/>
<text text-anchor="middle" x="516" y="-96.2" font-family="Times,serif" font-size="14.00" fill="#000000">Desktop Environment / 桌面环境</text>
</g>
<!-- Explorer / 文件资源管理器 -->
<g id="node4" class="node">
<title>Explorer / 文件资源管理器</title>
<polygon fill="#d3d3d3" stroke="#000000" points="386.4211,-118.4 213.5789,-118.4 213.5789,-82.4 386.4211,-82.4 386.4211,-118.4"/>
<text text-anchor="middle" x="300" y="-96.2" font-family="Times,serif" font-size="14.00" fill="#000000">Explorer / 文件资源管理器</text>
</g>
<!-- 开始菜单 -->
<g id="node5" class="node">
<title>开始菜单</title>
<polygon fill="#d3d3d3" stroke="#000000" points="195.5526,-118.4 118.4474,-118.4 118.4474,-82.4 195.5526,-82.4 195.5526,-118.4"/>
<text text-anchor="middle" x="157" y="-96.2" font-family="Times,serif" font-size="14.00" fill="#000000">开始菜单</text>
</g>
<!-- DOS Shell -->
<g id="node6" class="node">
<title>DOS Shell</title>
<polygon fill="#d3d3d3" stroke="#000000" points="100.2747,-118.4 23.7253,-118.4 23.7253,-82.4 100.2747,-82.4 100.2747,-118.4"/>
<text text-anchor="middle" x="62" y="-96.2" font-family="Times,serif" font-size="14.00" fill="#000000">DOS Shell</text>
</g>
<!-- sh / Bourne shell -->
<g id="node7" class="node">
<title>sh / Bourne shell</title>
<polygon fill="#d3d3d3" stroke="#000000" points="1185.4885,-118.4 1074.5115,-118.4 1074.5115,-82.4 1185.4885,-82.4 1185.4885,-118.4"/>
<text text-anchor="middle" x="1130" y="-96.2" font-family="Times,serif" font-size="14.00" fill="#000000">sh / Bourne shell</text>
</g>
<!-- Bash -->
<g id="node8" class="node">
<title>Bash</title>
<polygon fill="#d3d3d3" stroke="#000000" points="1057,-118.4 1003,-118.4 1003,-82.4 1057,-82.4 1057,-118.4"/>
<text text-anchor="middle" x="1030" y="-96.2" font-family="Times,serif" font-size="14.00" fill="#000000">Bash</text>
</g>
<!-- Z shell / Zsh -->
<g id="node9" class="node">
<title>Z shell / Zsh</title>
<polygon fill="#d3d3d3" stroke="#000000" points="985.3816,-118.4 898.6184,-118.4 898.6184,-82.4 985.3816,-82.4 985.3816,-118.4"/>
<text text-anchor="middle" x="942" y="-96.2" font-family="Times,serif" font-size="14.00" fill="#000000">Z shell / Zsh</text>
</g>
<!-- 命令提示符 / cmd.exe -->
<g id="node10" class="node">
<title>命令提示符 / cmd.exe</title>
<polygon fill="#d3d3d3" stroke="#000000" points="1596.9742,-118.4 1451.0258,-118.4 1451.0258,-82.4 1596.9742,-82.4 1596.9742,-118.4"/>
<text text-anchor="middle" x="1524" y="-96.2" font-family="Times,serif" font-size="14.00" fill="#000000">命令提示符 / cmd.exe</text>
</g>
<!-- PowerShell -->
<g id="node11" class="node">
<title>PowerShell</title>
<polygon fill="#d3d3d3" stroke="#000000" points="1433.0441,-118.4 1352.9559,-118.4 1352.9559,-82.4 1433.0441,-82.4 1433.0441,-118.4"/>
<text text-anchor="middle" x="1393" y="-96.2" font-family="Times,serif" font-size="14.00" fill="#000000">PowerShell</text>
</g>
<!-- COMMAND.COM -->
<g id="node12" class="node">
<title>COMMAND.COM</title>
<polygon fill="#d3d3d3" stroke="#000000" points="1335.04,-118.4 1208.96,-118.4 1208.96,-82.4 1335.04,-82.4 1335.04,-118.4"/>
<text text-anchor="middle" x="1272" y="-96.2" font-family="Times,serif" font-size="14.00" fill="#000000">COMMAND.COM</text>
</g>
</g>
</svg>
