<?xml version="1.0" encoding="UTF-8" standalone="no"?>
<!DOCTYPE svg PUBLIC "-//W3C//DTD SVG 1.1//EN"
 "http://www.w3.org/Graphics/SVG/1.1/DTD/svg11.dtd">
<!-- Generated by graphviz version 2.40.1 (20161225.0304)
 -->
<!-- Title: Shell Pages: 1 -->
<svg width="891pt" height="350pt"
 viewBox="0.00 0.00 891.00 350.40" xmlns="http://www.w3.org/2000/svg" xmlns:xlink="http://www.w3.org/1999/xlink">
<g id="graph0" class="graph" transform="scale(1 1) rotate(0) translate(4 346.4)">
<title>Shell</title>
<polygon fill="#ffffff" stroke="transparent" points="-4,4 -4,-346.4 887,-346.4 887,4 -4,4"/>
<text text-anchor="middle" x="441.5" y="-41.8" font-family="Times,serif" font-size="14.00" fill="#000000">&#13;</text>
<text text-anchor="middle" x="441.5" y="-25" font-family="Times,serif" font-size="14.00" fill="#000000"> &#160;&#160;&#160;Shell (壳层) &#160;2022.03.08 &#13;</text>
<text text-anchor="middle" x="441.5" y="-8.2" font-family="Times,serif" font-size="14.00" fill="#000000"> &#160;&#160;&#160;Copyright © 偕臧 https://github.com/XMuli</text>
<g id="clust1" class="cluster">
<title>clusterGUIShell</title>
<polygon fill="none" stroke="#000000" points="8,-216.8 8,-334.4 875,-334.4 875,-216.8 8,-216.8"/>
<text text-anchor="middle" x="441.5" y="-317.8" font-family="Times,serif" font-size="14.00" fill="#000000">GUI Shell</text>
</g>
<g id="clust2" class="cluster">
<title>clusterGUIMacOS</title>
<polygon fill="none" stroke="#000000" points="749,-224.8 749,-301.6 867,-301.6 867,-224.8 749,-224.8"/>
<text text-anchor="middle" x="808" y="-285" font-family="Times,serif" font-size="14.00" fill="#000000">MacOS</text>
</g>
<g id="clust3" class="cluster">
<title>clusterGUILinux</title>
<polygon fill="none" stroke="#000000" points="402,-224.8 402,-301.6 741,-301.6 741,-224.8 402,-224.8"/>
<text text-anchor="middle" x="571.5" y="-285" font-family="Times,serif" font-size="14.00" fill="#000000">Linux</text>
</g>
<g id="clust4" class="cluster">
<title>clusterGUIWindows</title>
<polygon fill="none" stroke="#000000" points="16,-224.8 16,-301.6 394,-301.6 394,-224.8 16,-224.8"/>
<text text-anchor="middle" x="205" y="-285" font-family="Times,serif" font-size="14.00" fill="#000000">Windows</text>
</g>
<g id="clust5" class="cluster">
<title>clusterCLIShell</title>
<polygon fill="none" stroke="#000000" points="45,-66.4 45,-184 775,-184 775,-66.4 45,-66.4"/>
<text text-anchor="middle" x="410" y="-167.4" font-family="Times,serif" font-size="14.00" fill="#000000">CLI Shell</text>
</g>
<g id="clust6" class="cluster">
<title>clusterCLIMacOSAndLinux</title>
<polygon fill="none" stroke="#000000" points="465,-74.4 465,-151.2 767,-151.2 767,-74.4 465,-74.4"/>
<text text-anchor="middle" x="616" y="-134.6" font-family="Times,serif" font-size="14.00" fill="#000000">MacOS / Linux</text>
</g>
<g id="clust7" class="cluster">
<title>clusterCLIWindows</title>
<polygon fill="none" stroke="#000000" points="53,-74.4 53,-151.2 457,-151.2 457,-74.4 53,-74.4"/>
<text text-anchor="middle" x="255" y="-134.6" font-family="Times,serif" font-size="14.00" fill="#000000">Windows</text>
</g>
<!-- Finder / 访达 -->
<g id="node1" class="node">
<title>Finder / 访达</title>
<polygon fill="#d3d3d3" stroke="#000000" points="858.5424,-268.8 757.4576,-268.8 757.4576,-232.8 858.5424,-232.8 858.5424,-268.8"/>
<text text-anchor="middle" x="808" y="-246.6" font-family="Times,serif" font-size="14.00" fill="#000000">Finder / 访达</text>
</g>
<!-- X窗口管理器 -->
<g id="node2" class="node">
<title>X窗口管理器</title>
<polygon fill="#d3d3d3" stroke="#000000" points="732.7647,-268.8 639.2353,-268.8 639.2353,-232.8 732.7647,-232.8 732.7647,-268.8"/>
<text text-anchor="middle" x="686" y="-246.6" font-family="Times,serif" font-size="14.00" fill="#000000">X窗口管理器</text>
</g>
<!-- Desktop Environment / 桌面环境 -->
<g id="node3" class="node">
<title>Desktop Environment / 桌面环境</title>
<polygon fill="#d3d3d3" stroke="#000000" points="621.6965,-268.8 410.3035,-268.8 410.3035,-232.8 621.6965,-232.8 621.6965,-268.8"/>
<text text-anchor="middle" x="516" y="-246.6" font-family="Times,serif" font-size="14.00" fill="#000000">Desktop Environment / 桌面环境</text>
</g>
<!-- Z shell / Zsh -->
<g id="node9" class="node">
<title>Z shell / Zsh</title>
<polygon fill="#d3d3d3" stroke="#000000" points="559.3816,-118.4 472.6184,-118.4 472.6184,-82.4 559.3816,-82.4 559.3816,-118.4"/>
<text text-anchor="middle" x="516" y="-96.2" font-family="Times,serif" font-size="14.00" fill="#000000">Z shell / Zsh</text>
</g>
<!-- Desktop Environment / 桌面环境&#45;&gt;Z shell / Zsh -->
<g id="edge1" class="edge">
<title>Desktop Environment / 桌面环境&#45;&gt;Z shell / Zsh</title>
<path fill="none" stroke="#000000" d="M516,-216.8042C516,-207.0044 516,-195.8541 516,-184.4281"/>
<polygon fill="#000000" stroke="#000000" points="516,-183.9973 516,-183.9973 516,-183.9973 516,-183.9973"/>
<text text-anchor="middle" x="523" y="-196.2" font-family="Times,serif" font-size="14.00" fill="#000000"> &#160;&#160;&#160;</text>
</g>
<!-- Explorer / 文件资源管理器 -->
<g id="node4" class="node">
<title>Explorer / 文件资源管理器</title>
<polygon fill="#d3d3d3" stroke="#000000" points="386.4211,-268.8 213.5789,-268.8 213.5789,-232.8 386.4211,-232.8 386.4211,-268.8"/>
<text text-anchor="middle" x="300" y="-246.6" font-family="Times,serif" font-size="14.00" fill="#000000">Explorer / 文件资源管理器</text>
</g>
<!-- 开始菜单 -->
<g id="node5" class="node">
<title>开始菜单</title>
<polygon fill="#d3d3d3" stroke="#000000" points="195.5526,-268.8 118.4474,-268.8 118.4474,-232.8 195.5526,-232.8 195.5526,-268.8"/>
<text text-anchor="middle" x="157" y="-246.6" font-family="Times,serif" font-size="14.00" fill="#000000">开始菜单</text>
</g>
<!-- DOS Shell -->
<g id="node6" class="node">
<title>DOS Shell</title>
<polygon fill="#d3d3d3" stroke="#000000" points="100.2747,-268.8 23.7253,-268.8 23.7253,-232.8 100.2747,-232.8 100.2747,-268.8"/>
<text text-anchor="middle" x="62" y="-246.6" font-family="Times,serif" font-size="14.00" fill="#000000">DOS Shell</text>
</g>
<!-- sh / Bourne shell -->
<g id="node7" class="node">
<title>sh / Bourne shell</title>
<polygon fill="#d3d3d3" stroke="#000000" points="759.4885,-118.4 648.5115,-118.4 648.5115,-82.4 759.4885,-82.4 759.4885,-118.4"/>
<text text-anchor="middle" x="704" y="-96.2" font-family="Times,serif" font-size="14.00" fill="#000000">sh / Bourne shell</text>
</g>
<!-- Bash -->
<g id="node8" class="node">
<title>Bash</title>
<polygon fill="#d3d3d3" stroke="#000000" points="631,-118.4 577,-118.4 577,-82.4 631,-82.4 631,-118.4"/>
<text text-anchor="middle" x="604" y="-96.2" font-family="Times,serif" font-size="14.00" fill="#000000">Bash</text>
</g>
<!-- 命令提示符 / cmd.exe -->
<g id="node10" class="node">
<title>命令提示符 / cmd.exe</title>
<polygon fill="#d3d3d3" stroke="#000000" points="448.9742,-118.4 303.0258,-118.4 303.0258,-82.4 448.9742,-82.4 448.9742,-118.4"/>
<text text-anchor="middle" x="376" y="-96.2" font-family="Times,serif" font-size="14.00" fill="#000000">命令提示符 / cmd.exe</text>
</g>
<!-- PowerShell -->
<g id="node11" class="node">
<title>PowerShell</title>
<polygon fill="#d3d3d3" stroke="#000000" points="285.0441,-118.4 204.9559,-118.4 204.9559,-82.4 285.0441,-82.4 285.0441,-118.4"/>
<text text-anchor="middle" x="245" y="-96.2" font-family="Times,serif" font-size="14.00" fill="#000000">PowerShell</text>
</g>
<!-- COMMAND.COM -->
<g id="node12" class="node">
<title>COMMAND.COM</title>
<polygon fill="#d3d3d3" stroke="#000000" points="187.04,-118.4 60.96,-118.4 60.96,-82.4 187.04,-82.4 187.04,-118.4"/>
<text text-anchor="middle" x="124" y="-96.2" font-family="Times,serif" font-size="14.00" fill="#000000">COMMAND.COM</text>
</g>
</g>
</svg>
