<svg id="SvgjsSvg1171" width="566" height="850" xmlns="http://www.w3.org/2000/svg" version="1.1" xmlns:xlink="http://www.w3.org/1999/xlink" xmlns:svgjs="http://svgjs.com/svgjs"><defs id="SvgjsDefs1172"><marker id="SvgjsMarker1208" markerWidth="16" markerHeight="12" refX="16" refY="6" viewBox="0 0 16 12" orient="auto" markerUnits="userSpaceOnUse" stroke-dasharray="0,0"><path id="SvgjsPath1209" d="M0,2 L14,6 L0,11 L0,2" fill="#323232" stroke="#323232" stroke-width="2"></path></marker><marker id="SvgjsMarker1222" markerWidth="16" markerHeight="12" refX="16" refY="6" viewBox="0 0 16 12" orient="auto" markerUnits="userSpaceOnUse" stroke-dasharray="0,0"><path id="SvgjsPath1223" d="M0,2 L14,6 L0,11 L0,2" fill="#323232" stroke="#323232" stroke-width="2"></path></marker><marker id="SvgjsMarker1244" markerWidth="16" markerHeight="12" refX="16" refY="6" viewBox="0 0 16 12" orient="auto" markerUnits="userSpaceOnUse" stroke-dasharray="0,0"><path id="SvgjsPath1245" d="M0,2 L14,6 L0,11 L0,2" fill="#323232" stroke="#323232" stroke-width="2"></path></marker><marker id="SvgjsMarker1258" markerWidth="16" markerHeight="12" refX="16" refY="6" viewBox="0 0 16 12" orient="auto" markerUnits="userSpaceOnUse" stroke-dasharray="0,0"><path id="SvgjsPath1259" d="M0,2 L14,6 L0,11 L0,2" fill="#323232" stroke="#323232" stroke-width="2"></path></marker><marker id="SvgjsMarker1288" markerWidth="16" markerHeight="12" refX="16" refY="6" viewBox="0 0 16 12" orient="auto" markerUnits="userSpaceOnUse" stroke-dasharray="0,0"><path id="SvgjsPath1289" d="M0,2 L14,6 L0,11 L0,2" fill="#323232" stroke="#323232" stroke-width="2"></path></marker><marker id="SvgjsMarker1298" markerWidth="16" markerHeight="12" refX="16" refY="6" viewBox="0 0 16 12" orient="auto" markerUnits="userSpaceOnUse" stroke-dasharray="0,0"><path id="SvgjsPath1299" d="M0,2 L14,6 L0,11 L0,2" fill="#323232" stroke="#323232" stroke-width="2"></path></marker><marker id="SvgjsMarker1308" markerWidth="16" markerHeight="12" refX="16" refY="6" viewBox="0 0 16 12" orient="auto" markerUnits="userSpaceOnUse" stroke-dasharray="0,0"><path id="SvgjsPath1309" d="M0,2 L14,6 L0,11 L0,2" fill="#323232" stroke="#323232" stroke-width="2"></path></marker><marker id="SvgjsMarker1326" markerWidth="16" markerHeight="12" refX="16" refY="6" viewBox="0 0 16 12" orient="auto" markerUnits="userSpaceOnUse" stroke-dasharray="0,0"><path id="SvgjsPath1327" d="M0,2 L14,6 L0,11 L0,2" fill="#323232" stroke="#323232" stroke-width="2"></path></marker></defs><g id="SvgjsG1173" transform="translate(25,25)"><path id="SvgjsPath1174" d="M 0 0L 516 0L 516 800L 0 800Z" stroke="rgba(50,50,50,1)" stroke-width="2" fill="none"></path><path id="SvgjsPath1175" d="M 0 0L 516 0L 516 40L 0 40Z" stroke="rgba(50,50,50,1)" stroke-width="2" fill-opacity="1" fill="#e0e0e0"></path><g id="SvgjsG1176"><text id="SvgjsText1177" font-family="微软雅黑" text-anchor="middle" font-size="16px" width="496px" fill="#323232" font-weight="400" align="middle" lineHeight="125%" anchor="middle" family="微软雅黑" size="16px" weight="400" font-style="" opacity="1" y="8" transform="rotate(0)"><tspan id="SvgjsTspan1178" dy="20" x="258"><tspan id="SvgjsTspan1179" style="text-decoration:;">编码的一些说明（源码字符集和执行字符集）</tspan></tspan></text></g></g><g id="SvgjsG1180" transform="translate(25,65)"><path id="SvgjsPath1181" d="M 0 0L 258 0L 258 760L 0 760Z" stroke="rgba(50,50,50,1)" stroke-width="2" fill="none"></path><path id="SvgjsPath1182" d="M 0 0L 258 0L 258 30L 0 30Z" stroke="rgba(50,50,50,1)" stroke-width="2" fill-opacity="1" fill="#ffffff"></path><g id="SvgjsG1183"><text id="SvgjsText1184" font-family="微软雅黑" text-anchor="middle" font-size="13px" width="238px" fill="#323232" font-weight="400" align="middle" lineHeight="125%" anchor="middle" family="微软雅黑" size="13px" weight="400" font-style="" opacity="1" y="5.375" transform="rotate(0)"><tspan id="SvgjsTspan1185" dy="16" x="129"><tspan id="SvgjsTspan1186" style="text-decoration:;">⓵源码字符集</tspan></tspan></text></g></g><g id="SvgjsG1187" transform="translate(283,65)"><path id="SvgjsPath1188" d="M 0 0L 258 0L 258 760L 0 760Z" stroke="rgba(50,50,50,1)" stroke-width="2" fill="none"></path><path id="SvgjsPath1189" d="M 0 0L 258 0L 258 30L 0 30Z" stroke="rgba(50,50,50,1)" stroke-width="2" fill-opacity="1" fill="#ffffff"></path><g id="SvgjsG1190"><text id="SvgjsText1191" font-family="微软雅黑" text-anchor="middle" font-size="13px" width="238px" fill="#323232" font-weight="400" align="middle" lineHeight="125%" anchor="middle" family="微软雅黑" size="13px" weight="400" font-style="" opacity="1" y="5.375" transform="rotate(0)"><tspan id="SvgjsTspan1192" dy="16" x="129"><tspan id="SvgjsTspan1193" style="text-decoration:;">⓶执行字符集</tspan></tspan></text></g></g><g id="SvgjsG1194" transform="translate(58,283)"><path id="SvgjsPath1195" d="M 0 0L 190 0L 190 35L 0 35Z" stroke="rgba(50,50,50,1)" stroke-width="2" fill-opacity="1" fill="#c8e6c9"></path><g id="SvgjsG1196"><text id="SvgjsText1197" font-family="微软雅黑" text-anchor="middle" font-size="13px" width="170px" fill="#323232" font-weight="400" align="middle" lineHeight="125%" anchor="middle" family="微软雅黑" size="13px" weight="400" font-style="" opacity="1" y="7.875" transform="rotate(0)"><tspan id="SvgjsTspan1198" dy="16" x="95"><tspan id="SvgjsTspan1199" style="text-decoration:;">编辑中的代码（含中文）文件</tspan></tspan></text></g></g><g id="SvgjsG1200" transform="translate(78,422)"><path id="SvgjsPath1201" d="M 0 0L 150 0L 150 37L 0 37Z" stroke="rgba(50,50,50,1)" stroke-width="2" fill-opacity="1" fill="#ffffff"></path><g id="SvgjsG1202"><text id="SvgjsText1203" font-family="微软雅黑" text-anchor="middle" font-size="13px" width="130px" fill="#323232" font-weight="400" align="middle" lineHeight="125%" anchor="middle" family="微软雅黑" size="13px" weight="400" font-style="" opacity="1" y="8.875" transform="rotate(0)"><tspan id="SvgjsTspan1204" dy="16" x="75"><tspan id="SvgjsTspan1205" style="text-decoration:;">保存到.cpp文本文件</tspan></tspan></text></g></g><g id="SvgjsG1206"><path id="SvgjsPath1207" d="M153 318L153 370L153 370L153 422" stroke="#323232" stroke-width="2" fill="none" marker-end="url(#SvgjsMarker1208)"></path><rect id="SvgjsRect1210" width="139" height="16" x="83.5" y="362" fill="#ffffff"></rect><text id="SvgjsText1211" font-family="微软雅黑" text-anchor="middle" font-size="13px" width="139px" fill="#323232" font-weight="400" align="top" lineHeight="16px" anchor="middle" family="微软雅黑" size="13px" weight="400" font-style="" opacity="1" y="360.375" transform="rotate(0)"><tspan id="SvgjsTspan1212" dy="16" x="153"><tspan id="SvgjsTspan1213" style="text-decoration:;">软件A：用GBK编码保存</tspan></tspan></text></g><g id="SvgjsG1214" transform="translate(78,583)"><path id="SvgjsPath1215" d="M 0 0L 150 0L 150 37L 0 37Z" stroke="rgba(50,50,50,1)" stroke-width="2" fill-opacity="1" fill="#ffffff"></path><g id="SvgjsG1216"><text id="SvgjsText1217" font-family="微软雅黑" text-anchor="middle" font-size="13px" width="130px" fill="#323232" font-weight="400" align="middle" lineHeight="125%" anchor="middle" family="微软雅黑" size="13px" weight="400" font-style="" opacity="1" y="8.875" transform="rotate(0)"><tspan id="SvgjsTspan1218" dy="16" x="75"><tspan id="SvgjsTspan1219" style="text-decoration:;">保存到.cpp 文本文件</tspan></tspan></text></g></g><g id="SvgjsG1220"><path id="SvgjsPath1221" d="M153 459L153 521L153 521L153 583" stroke="#323232" stroke-width="2" fill="none" marker-end="url(#SvgjsMarker1222)"></path><rect id="SvgjsRect1224" width="138" height="16" x="84" y="513" fill="#ffffff"></rect><text id="SvgjsText1225" font-family="微软雅黑" text-anchor="middle" font-size="13px" width="138px" fill="#323232" font-weight="400" align="top" lineHeight="16px" anchor="middle" family="微软雅黑" size="13px" weight="400" font-style="" opacity="1" y="511.375" transform="rotate(0)"><tspan id="SvgjsTspan1226" dy="16" x="153"><tspan id="SvgjsTspan1227" style="text-decoration:;">软件B：用GBK编码翻译</tspan></tspan></text></g><g id="SvgjsG1228" transform="translate(316,280)"><path id="SvgjsPath1229" d="M 0 0L 190 0L 190 50L 0 50Z" stroke="rgba(50,50,50,1)" stroke-width="2" fill-opacity="1" fill="#fff9c4"></path><g id="SvgjsG1230"><text id="SvgjsText1231" font-family="微软雅黑" text-anchor="middle" font-size="13px" width="170px" fill="#323232" font-weight="400" align="middle" lineHeight="125%" anchor="middle" family="微软雅黑" size="13px" weight="400" font-style="" opacity="1" y="7.375" transform="rotate(0)"><tspan id="SvgjsTspan1232" dy="16" x="95"><tspan id="SvgjsTspan1233" style="text-decoration:;">代码中的某个变量的字符串：</tspan></tspan><tspan id="SvgjsTspan1234" dy="16" x="95"><tspan id="SvgjsTspan1235" style="text-decoration:;">("--Englist--String--中文--")</tspan></tspan></text></g></g><g id="SvgjsG1236" transform="translate(336,422)"><path id="SvgjsPath1237" d="M 0 0L 150 0L 150 37L 0 37Z" stroke="rgba(50,50,50,1)" stroke-width="2" fill-opacity="1" fill="#ffffff"></path><g id="SvgjsG1238"><text id="SvgjsText1239" font-family="微软雅黑" text-anchor="middle" font-size="13px" width="130px" fill="#323232" font-weight="400" align="middle" lineHeight="125%" anchor="middle" family="微软雅黑" size="13px" weight="400" font-style="" opacity="1" y="8.875" transform="rotate(0)"><tspan id="SvgjsTspan1240" dy="16" x="75"><tspan id="SvgjsTspan1241" style="text-decoration:;">字符串保存到内存中</tspan></tspan></text></g></g><g id="SvgjsG1242"><path id="SvgjsPath1243" d="M411 330L411 376L411 376L411 422" stroke="#323232" stroke-width="2" fill="none" marker-end="url(#SvgjsMarker1244)"></path><rect id="SvgjsRect1246" width="206" height="16" x="308" y="368" fill="#ffffff"></rect><text id="SvgjsText1247" font-family="微软雅黑" text-anchor="middle" font-size="13px" width="206px" fill="#323232" font-weight="400" align="top" lineHeight="16px" anchor="middle" family="微软雅黑" size="13px" weight="400" font-style="" opacity="1" y="366.375" transform="rotate(0)"><tspan id="SvgjsTspan1248" dy="16" x="411"><tspan id="SvgjsTspan1249" style="text-decoration:;">编译器等用UTF-8编码保存到内存中</tspan></tspan></text></g><g id="SvgjsG1250" transform="translate(336,583)"><path id="SvgjsPath1251" d="M 0 0L 150 0L 150 37L 0 37Z" stroke="rgba(50,50,50,1)" stroke-width="2" fill-opacity="1" fill="#ffffff"></path><g id="SvgjsG1252"><text id="SvgjsText1253" font-family="微软雅黑" text-anchor="middle" font-size="13px" width="130px" fill="#323232" font-weight="400" align="middle" lineHeight="125%" anchor="middle" family="微软雅黑" size="13px" weight="400" font-style="" opacity="1" y="8.875" transform="rotate(0)"><tspan id="SvgjsTspan1254" dy="16" x="75"><tspan id="SvgjsTspan1255" style="text-decoration:;">显示在屏幕</tspan></tspan></text></g></g><g id="SvgjsG1256"><path id="SvgjsPath1257" d="M411 459L411 521L411 521L411 583" stroke="#323232" stroke-width="2" fill="none" marker-end="url(#SvgjsMarker1258)"></path><rect id="SvgjsRect1260" width="169" height="16" x="326.5" y="513" fill="#ffffff"></rect><text id="SvgjsText1261" font-family="微软雅黑" text-anchor="middle" font-size="13px" width="169px" fill="#323232" font-weight="400" align="top" lineHeight="16px" anchor="middle" family="微软雅黑" size="13px" weight="400" font-style="" opacity="1" y="511.375" transform="rotate(0)"><tspan id="SvgjsTspan1262" dy="16" x="411"><tspan id="SvgjsTspan1263" style="text-decoration:;">终端用GBK编码从内存中读取</tspan></tspan></text></g><g id="SvgjsG1264" transform="translate(40,318)"><path id="SvgjsPath1265" d="M 0 0L 83 0L 99 16L 99 21L 0 21L 0 0Z" stroke="none" fill-opacity="1" fill="#ffffaa"></path><path id="SvgjsPath1266" d="M 83 0L 83 16L 99 16Z" stroke="none" fill-opacity="1" fill="#cdcdcd"></path><path id="SvgjsPath1267" d="M 0 0L 83 0L 99 16L 99 21L 0 21L 0 0Z" stroke="none" fill="none"></path><g id="SvgjsG1268"><text id="SvgjsText1269" font-family="微软雅黑" text-anchor="middle" font-size="13px" width="79px" fill="#323232" font-weight="400" align="middle" lineHeight="125%" anchor="middle" family="微软雅黑" size="13px" weight="400" font-style="" opacity="1" y="0.875" transform="rotate(0)"><tspan id="SvgjsTspan1270" dy="16" x="49.5"><tspan id="SvgjsTspan1271" style="text-decoration:;">软件A中编辑</tspan></tspan></text></g></g><g id="SvgjsG1272" transform="translate(33,620)"><path id="SvgjsPath1273" d="M 0 0L 83 0L 99 16L 99 21L 0 21L 0 0Z" stroke="none" fill-opacity="1" fill="#ffffaa"></path><path id="SvgjsPath1274" d="M 83 0L 83 16L 99 16Z" stroke="none" fill-opacity="1" fill="#cdcdcd"></path><path id="SvgjsPath1275" d="M 0 0L 83 0L 99 16L 99 21L 0 21L 0 0Z" stroke="none" fill="none"></path><g id="SvgjsG1276"><text id="SvgjsText1277" font-family="微软雅黑" text-anchor="middle" font-size="13px" width="79px" fill="#323232" font-weight="400" align="middle" lineHeight="125%" anchor="middle" family="微软雅黑" size="13px" weight="400" font-style="" opacity="1" y="0.875" transform="rotate(0)"><tspan id="SvgjsTspan1278" dy="16" x="49.5"><tspan id="SvgjsTspan1279" style="text-decoration:;">软件B中查看</tspan></tspan></text></g></g><g id="SvgjsG1280" transform="translate(71.5,675)"><path id="SvgjsPath1281" d="M 12.666666666666666 0L 152.33333333333334 0C 169.22222222222223 0 169.22222222222223 38 152.33333333333334 38L 12.666666666666666 38C -4.222222222222222 38 -4.222222222222222 0 12.666666666666666 0Z" stroke="rgba(50,50,50,1)" stroke-width="2" fill-opacity="1" fill="#ffffff"></path><g id="SvgjsG1282"><text id="SvgjsText1283" font-family="微软雅黑" text-anchor="middle" font-size="13px" width="145px" fill="#323232" font-weight="400" align="middle" lineHeight="125%" anchor="middle" family="微软雅黑" size="13px" weight="400" font-style="" opacity="1" y="9.375" transform="rotate(0)"><tspan id="SvgjsTspan1284" dy="16" x="82.5"><tspan id="SvgjsTspan1285" style="text-decoration:;">人能看的懂，非乱码</tspan></tspan></text></g></g><g id="SvgjsG1286"><path id="SvgjsPath1287" d="M153 620L153 647.5L154 647.5L154 675" stroke="#323232" stroke-width="2" fill="none" marker-end="url(#SvgjsMarker1288)"></path></g><g id="SvgjsG1290" transform="translate(70.5,193)"><path id="SvgjsPath1291" d="M 12.666666666666666 0L 152.33333333333334 0C 169.22222222222223 0 169.22222222222223 38 152.33333333333334 38L 12.666666666666666 38C -4.222222222222222 38 -4.222222222222222 0 12.666666666666666 0Z" stroke="rgba(50,50,50,1)" stroke-width="2" fill-opacity="1" fill="#ffffff"></path><g id="SvgjsG1292"><text id="SvgjsText1293" font-family="微软雅黑" text-anchor="middle" font-size="13px" width="145px" fill="#323232" font-weight="400" align="middle" lineHeight="125%" anchor="middle" family="微软雅黑" size="13px" weight="400" font-style="" opacity="1" y="9.375" transform="rotate(0)"><tspan id="SvgjsTspan1294" dy="16" x="82.5"><tspan id="SvgjsTspan1295" style="text-decoration:;">开始</tspan></tspan></text></g></g><g id="SvgjsG1296"><path id="SvgjsPath1297" d="M153 231L153 257L153 257L153 283" stroke="#323232" stroke-width="2" fill="none" marker-end="url(#SvgjsMarker1298)"></path></g><g id="SvgjsG1300" transform="translate(328.5,189)"><path id="SvgjsPath1301" d="M 12.666666666666666 0L 152.33333333333334 0C 169.22222222222223 0 169.22222222222223 38 152.33333333333334 38L 12.666666666666666 38C -4.222222222222222 38 -4.222222222222222 0 12.666666666666666 0Z" stroke="rgba(50,50,50,1)" stroke-width="2" fill-opacity="1" fill="#ffffff"></path><g id="SvgjsG1302"><text id="SvgjsText1303" font-family="微软雅黑" text-anchor="middle" font-size="13px" width="145px" fill="#323232" font-weight="400" align="middle" lineHeight="125%" anchor="middle" family="微软雅黑" size="13px" weight="400" font-style="" opacity="1" y="9.375" transform="rotate(0)"><tspan id="SvgjsTspan1304" dy="16" x="82.5"><tspan id="SvgjsTspan1305" style="text-decoration:;">开始</tspan></tspan></text></g></g><g id="SvgjsG1306"><path id="SvgjsPath1307" d="M411 227L411 253.5L411 253.5L411 280" stroke="#323232" stroke-width="2" fill="none" marker-end="url(#SvgjsMarker1308)"></path></g><g id="SvgjsG1310" transform="translate(328.5,675)"><path id="SvgjsPath1311" d="M 12.666666666666666 0L 152.33333333333334 0C 169.22222222222223 0 169.22222222222223 38 152.33333333333334 38L 12.666666666666666 38C -4.222222222222222 38 -4.222222222222222 0 12.666666666666666 0Z" stroke="rgba(50,50,50,1)" stroke-width="2" fill-opacity="1" fill="#ffffff"></path><g id="SvgjsG1312"><text id="SvgjsText1313" font-family="微软雅黑" text-anchor="middle" font-size="13px" width="145px" fill="#323232" font-weight="400" align="middle" lineHeight="125%" anchor="middle" family="微软雅黑" size="13px" weight="400" font-style="" opacity="1" y="9.375" transform="rotate(0)"><tspan id="SvgjsTspan1314" dy="16" x="82.5"><tspan id="SvgjsTspan1315" style="text-decoration:;">人能看不懂，乱码</tspan></tspan></text></g></g><g id="SvgjsG1316" transform="translate(289,322)"><path id="SvgjsPath1317" d="M 0 0L 83 0L 99 16L 99 21L 0 21L 0 0Z" stroke="none" fill-opacity="1" fill="#ffffaa"></path><path id="SvgjsPath1318" d="M 83 0L 83 16L 99 16Z" stroke="none" fill-opacity="1" fill="#cdcdcd"></path><path id="SvgjsPath1319" d="M 0 0L 83 0L 99 16L 99 21L 0 21L 0 0Z" stroke="none" fill="none"></path><g id="SvgjsG1320"><text id="SvgjsText1321" font-family="微软雅黑" text-anchor="middle" font-size="13px" width="79px" fill="#323232" font-weight="400" align="middle" lineHeight="125%" anchor="middle" family="微软雅黑" size="13px" weight="400" font-style="" opacity="1" y="0.875" transform="rotate(0)"><tspan id="SvgjsTspan1322" dy="16" x="49.5"><tspan id="SvgjsTspan1323" style="text-decoration:;">软件C中查看</tspan></tspan></text></g></g><g id="SvgjsG1324"><path id="SvgjsPath1325" d="M411 620L411 647.5L411 647.5L411 675" stroke="#323232" stroke-width="2" fill="none" marker-end="url(#SvgjsMarker1326)"></path></g><g id="SvgjsG1328" transform="translate(297,463)"><path id="SvgjsPath1329" d="M 0 0L 83 0L 99 16L 99 21L 0 21L 0 0Z" stroke="none" fill-opacity="1" fill="#ffffaa"></path><path id="SvgjsPath1330" d="M 83 0L 83 16L 99 16Z" stroke="none" fill-opacity="1" fill="#cdcdcd"></path><path id="SvgjsPath1331" d="M 0 0L 83 0L 99 16L 99 21L 0 21L 0 0Z" stroke="none" fill="none"></path><g id="SvgjsG1332"><text id="SvgjsText1333" font-family="微软雅黑" text-anchor="middle" font-size="13px" width="79px" fill="#323232" font-weight="400" align="middle" lineHeight="125%" anchor="middle" family="微软雅黑" size="13px" weight="400" font-style="" opacity="1" y="0.875" transform="rotate(0)"><tspan id="SvgjsTspan1334" dy="16" x="49.5"><tspan id="SvgjsTspan1335" style="text-decoration:;">保存到内存</tspan></tspan></text></g></g></svg>