<svg id="SvgjsSvg1336" width="566" height="850" xmlns="http://www.w3.org/2000/svg" version="1.1" xmlns:xlink="http://www.w3.org/1999/xlink" xmlns:svgjs="http://svgjs.com/svgjs"><defs id="SvgjsDefs1337"><marker id="SvgjsMarker1373" markerWidth="16" markerHeight="12" refX="16" refY="6" viewBox="0 0 16 12" orient="auto" markerUnits="userSpaceOnUse" stroke-dasharray="0,0"><path id="SvgjsPath1374" d="M0,2 L14,6 L0,11 L0,2" fill="#323232" stroke="#323232" stroke-width="2"></path></marker><marker id="SvgjsMarker1387" markerWidth="16" markerHeight="12" refX="16" refY="6" viewBox="0 0 16 12" orient="auto" markerUnits="userSpaceOnUse" stroke-dasharray="0,0"><path id="SvgjsPath1388" d="M0,2 L14,6 L0,11 L0,2" fill="#323232" stroke="#323232" stroke-width="2"></path></marker><marker id="SvgjsMarker1409" markerWidth="16" markerHeight="12" refX="16" refY="6" viewBox="0 0 16 12" orient="auto" markerUnits="userSpaceOnUse" stroke-dasharray="0,0"><path id="SvgjsPath1410" d="M0,2 L14,6 L0,11 L0,2" fill="#323232" stroke="#323232" stroke-width="2"></path></marker><marker id="SvgjsMarker1423" markerWidth="16" markerHeight="12" refX="16" refY="6" viewBox="0 0 16 12" orient="auto" markerUnits="userSpaceOnUse" stroke-dasharray="0,0"><path id="SvgjsPath1424" d="M0,2 L14,6 L0,11 L0,2" fill="#323232" stroke="#323232" stroke-width="2"></path></marker><marker id="SvgjsMarker1453" markerWidth="16" markerHeight="12" refX="16" refY="6" viewBox="0 0 16 12" orient="auto" markerUnits="userSpaceOnUse" stroke-dasharray="0,0"><path id="SvgjsPath1454" d="M0,2 L14,6 L0,11 L0,2" fill="#323232" stroke="#323232" stroke-width="2"></path></marker><marker id="SvgjsMarker1463" markerWidth="16" markerHeight="12" refX="16" refY="6" viewBox="0 0 16 12" orient="auto" markerUnits="userSpaceOnUse" stroke-dasharray="0,0"><path id="SvgjsPath1464" d="M0,2 L14,6 L0,11 L0,2" fill="#323232" stroke="#323232" stroke-width="2"></path></marker><marker id="SvgjsMarker1473" markerWidth="16" markerHeight="12" refX="16" refY="6" viewBox="0 0 16 12" orient="auto" markerUnits="userSpaceOnUse" stroke-dasharray="0,0"><path id="SvgjsPath1474" d="M0,2 L14,6 L0,11 L0,2" fill="#323232" stroke="#323232" stroke-width="2"></path></marker><marker id="SvgjsMarker1491" markerWidth="16" markerHeight="12" refX="16" refY="6" viewBox="0 0 16 12" orient="auto" markerUnits="userSpaceOnUse" stroke-dasharray="0,0"><path id="SvgjsPath1492" d="M0,2 L14,6 L0,11 L0,2" fill="#323232" stroke="#323232" stroke-width="2"></path></marker></defs><g id="SvgjsG1338" transform="translate(25,25)"><path id="SvgjsPath1339" d="M 0 0L 516 0L 516 800L 0 800Z" stroke="rgba(50,50,50,1)" stroke-width="2" fill="none"></path><path id="SvgjsPath1340" d="M 0 0L 516 0L 516 40L 0 40Z" stroke="rgba(50,50,50,1)" stroke-width="2" fill-opacity="1" fill="#e0e0e0"></path><g id="SvgjsG1341"><text id="SvgjsText1342" font-family="微软雅黑" text-anchor="middle" font-size="16px" width="496px" fill="#323232" font-weight="400" align="middle" lineHeight="125%" anchor="middle" family="微软雅黑" size="16px" weight="400" font-style="" opacity="1" y="8" transform="rotate(0)"><tspan id="SvgjsTspan1343" dy="20" x="258"><tspan id="SvgjsTspan1344" style="text-decoration:;">编码的一些说明（源码字符集和执行字符集）</tspan></tspan></text></g></g><g id="SvgjsG1345" transform="translate(25,65)"><path id="SvgjsPath1346" d="M 0 0L 258 0L 258 760L 0 760Z" stroke="rgba(50,50,50,1)" stroke-width="2" fill="none"></path><path id="SvgjsPath1347" d="M 0 0L 258 0L 258 30L 0 30Z" stroke="rgba(50,50,50,1)" stroke-width="2" fill-opacity="1" fill="#ffffff"></path><g id="SvgjsG1348"><text id="SvgjsText1349" font-family="微软雅黑" text-anchor="middle" font-size="13px" width="238px" fill="#323232" font-weight="400" align="middle" lineHeight="125%" anchor="middle" family="微软雅黑" size="13px" weight="400" font-style="" opacity="1" y="5.375" transform="rotate(0)"><tspan id="SvgjsTspan1350" dy="16" x="129"><tspan id="SvgjsTspan1351" style="text-decoration:;">⓵源码字符集</tspan></tspan></text></g></g><g id="SvgjsG1352" transform="translate(283,65)"><path id="SvgjsPath1353" d="M 0 0L 258 0L 258 760L 0 760Z" stroke="rgba(50,50,50,1)" stroke-width="2" fill="none"></path><path id="SvgjsPath1354" d="M 0 0L 258 0L 258 30L 0 30Z" stroke="rgba(50,50,50,1)" stroke-width="2" fill-opacity="1" fill="#ffffff"></path><g id="SvgjsG1355"><text id="SvgjsText1356" font-family="微软雅黑" text-anchor="middle" font-size="13px" width="238px" fill="#323232" font-weight="400" align="middle" lineHeight="125%" anchor="middle" family="微软雅黑" size="13px" weight="400" font-style="" opacity="1" y="5.375" transform="rotate(0)"><tspan id="SvgjsTspan1357" dy="16" x="129"><tspan id="SvgjsTspan1358" style="text-decoration:;">⓶执行字符集</tspan></tspan></text></g></g><g id="SvgjsG1359" transform="translate(58,283)"><path id="SvgjsPath1360" d="M 0 0L 190 0L 190 35L 0 35Z" stroke="rgba(50,50,50,1)" stroke-width="2" fill-opacity="1" fill="#c8e6c9"></path><g id="SvgjsG1361"><text id="SvgjsText1362" font-family="微软雅黑" text-anchor="middle" font-size="13px" width="170px" fill="#323232" font-weight="400" align="middle" lineHeight="125%" anchor="middle" family="微软雅黑" size="13px" weight="400" font-style="" opacity="1" y="7.875" transform="rotate(0)"><tspan id="SvgjsTspan1363" dy="16" x="95"><tspan id="SvgjsTspan1364" style="text-decoration:;">编辑中的代码（含中文）文件</tspan></tspan></text></g></g><g id="SvgjsG1365" transform="translate(78,422)"><path id="SvgjsPath1366" d="M 0 0L 150 0L 150 37L 0 37Z" stroke="rgba(50,50,50,1)" stroke-width="2" fill-opacity="1" fill="#ffffff"></path><g id="SvgjsG1367"><text id="SvgjsText1368" font-family="微软雅黑" text-anchor="middle" font-size="13px" width="130px" fill="#323232" font-weight="400" align="middle" lineHeight="125%" anchor="middle" family="微软雅黑" size="13px" weight="400" font-style="" opacity="1" y="8.875" transform="rotate(0)"><tspan id="SvgjsTspan1369" dy="16" x="75"><tspan id="SvgjsTspan1370" style="text-decoration:;">保存到.cpp文本文件</tspan></tspan></text></g></g><g id="SvgjsG1371"><path id="SvgjsPath1372" d="M153 318L153 370L153 370L153 422" stroke="#323232" stroke-width="2" fill="none" marker-end="url(#SvgjsMarker1373)"></path><rect id="SvgjsRect1375" width="139" height="16" x="83.5" y="362" fill="#ffffff"></rect><text id="SvgjsText1376" font-family="微软雅黑" text-anchor="middle" font-size="13px" width="139px" fill="#323232" font-weight="400" align="top" lineHeight="16px" anchor="middle" family="微软雅黑" size="13px" weight="400" font-style="" opacity="1" y="360.375" transform="rotate(0)"><tspan id="SvgjsTspan1377" dy="16" x="153"><tspan id="SvgjsTspan1378" style="text-decoration:;">软件A：用GBK编码保存</tspan></tspan></text></g><g id="SvgjsG1379" transform="translate(78,583)"><path id="SvgjsPath1380" d="M 0 0L 150 0L 150 37L 0 37Z" stroke="rgba(50,50,50,1)" stroke-width="2" fill-opacity="1" fill="#ffffff"></path><g id="SvgjsG1381"><text id="SvgjsText1382" font-family="微软雅黑" text-anchor="middle" font-size="13px" width="130px" fill="#323232" font-weight="400" align="middle" lineHeight="125%" anchor="middle" family="微软雅黑" size="13px" weight="400" font-style="" opacity="1" y="8.875" transform="rotate(0)"><tspan id="SvgjsTspan1383" dy="16" x="75"><tspan id="SvgjsTspan1384" style="text-decoration:;">保存到.cpp 文本文件</tspan></tspan></text></g></g><g id="SvgjsG1385"><path id="SvgjsPath1386" d="M153 459L153 521L153 521L153 583" stroke="#323232" stroke-width="2" fill="none" marker-end="url(#SvgjsMarker1387)"></path><rect id="SvgjsRect1389" width="138" height="16" x="84" y="513" fill="#ffffff"></rect><text id="SvgjsText1390" font-family="微软雅黑" text-anchor="middle" font-size="13px" width="138px" fill="#323232" font-weight="400" align="top" lineHeight="16px" anchor="middle" family="微软雅黑" size="13px" weight="400" font-style="" opacity="1" y="511.375" transform="rotate(0)"><tspan id="SvgjsTspan1391" dy="16" x="153"><tspan id="SvgjsTspan1392" style="text-decoration:;">软件B：用GBK编码翻译</tspan></tspan></text></g><g id="SvgjsG1393" transform="translate(316,280)"><path id="SvgjsPath1394" d="M 0 0L 190 0L 190 50L 0 50Z" stroke="rgba(50,50,50,1)" stroke-width="2" fill-opacity="1" fill="#fff9c4"></path><g id="SvgjsG1395"><text id="SvgjsText1396" font-family="微软雅黑" text-anchor="middle" font-size="13px" width="170px" fill="#323232" font-weight="400" align="middle" lineHeight="125%" anchor="middle" family="微软雅黑" size="13px" weight="400" font-style="" opacity="1" y="7.375" transform="rotate(0)"><tspan id="SvgjsTspan1397" dy="16" x="95"><tspan id="SvgjsTspan1398" style="text-decoration:;">代码中的某个变量的字符串：</tspan></tspan><tspan id="SvgjsTspan1399" dy="16" x="95"><tspan id="SvgjsTspan1400" style="text-decoration:;">("--Englist--String--中文--")</tspan></tspan></text></g></g><g id="SvgjsG1401" transform="translate(336,422)"><path id="SvgjsPath1402" d="M 0 0L 150 0L 150 37L 0 37Z" stroke="rgba(50,50,50,1)" stroke-width="2" fill-opacity="1" fill="#ffffff"></path><g id="SvgjsG1403"><text id="SvgjsText1404" font-family="微软雅黑" text-anchor="middle" font-size="13px" width="130px" fill="#323232" font-weight="400" align="middle" lineHeight="125%" anchor="middle" family="微软雅黑" size="13px" weight="400" font-style="" opacity="1" y="8.875" transform="rotate(0)"><tspan id="SvgjsTspan1405" dy="16" x="75"><tspan id="SvgjsTspan1406" style="text-decoration:;">字符串保存到内存中</tspan></tspan></text></g></g><g id="SvgjsG1407"><path id="SvgjsPath1408" d="M411 330L411 376L411 376L411 422" stroke="#323232" stroke-width="2" fill="none" marker-end="url(#SvgjsMarker1409)"></path><rect id="SvgjsRect1411" width="206" height="16" x="308" y="368" fill="#ffffff"></rect><text id="SvgjsText1412" font-family="微软雅黑" text-anchor="middle" font-size="13px" width="206px" fill="#323232" font-weight="400" align="top" lineHeight="16px" anchor="middle" family="微软雅黑" size="13px" weight="400" font-style="" opacity="1" y="366.375" transform="rotate(0)"><tspan id="SvgjsTspan1413" dy="16" x="411"><tspan id="SvgjsTspan1414" style="text-decoration:;">编译器等用UTF-8编码保存到内存中</tspan></tspan></text></g><g id="SvgjsG1415" transform="translate(336,583)"><path id="SvgjsPath1416" d="M 0 0L 150 0L 150 37L 0 37Z" stroke="rgba(50,50,50,1)" stroke-width="2" fill-opacity="1" fill="#ffffff"></path><g id="SvgjsG1417"><text id="SvgjsText1418" font-family="微软雅黑" text-anchor="middle" font-size="13px" width="130px" fill="#323232" font-weight="400" align="middle" lineHeight="125%" anchor="middle" family="微软雅黑" size="13px" weight="400" font-style="" opacity="1" y="8.875" transform="rotate(0)"><tspan id="SvgjsTspan1419" dy="16" x="75"><tspan id="SvgjsTspan1420" style="text-decoration:;">显示在屏幕</tspan></tspan></text></g></g><g id="SvgjsG1421"><path id="SvgjsPath1422" d="M411 459L411 521L411 521L411 583" stroke="#323232" stroke-width="2" fill="none" marker-end="url(#SvgjsMarker1423)"></path><rect id="SvgjsRect1425" width="169" height="16" x="326.5" y="513" fill="#ffffff"></rect><text id="SvgjsText1426" font-family="微软雅黑" text-anchor="middle" font-size="13px" width="169px" fill="#323232" font-weight="400" align="top" lineHeight="16px" anchor="middle" family="微软雅黑" size="13px" weight="400" font-style="" opacity="1" y="511.375" transform="rotate(0)"><tspan id="SvgjsTspan1427" dy="16" x="411"><tspan id="SvgjsTspan1428" style="text-decoration:;">终端用GBK编码从内存中读取</tspan></tspan></text></g><g id="SvgjsG1429" transform="translate(40,318)"><path id="SvgjsPath1430" d="M 0 0L 83 0L 99 16L 99 21L 0 21L 0 0Z" stroke="none" fill-opacity="1" fill="#ffffaa"></path><path id="SvgjsPath1431" d="M 83 0L 83 16L 99 16Z" stroke="none" fill-opacity="1" fill="#cdcdcd"></path><path id="SvgjsPath1432" d="M 0 0L 83 0L 99 16L 99 21L 0 21L 0 0Z" stroke="none" fill="none"></path><g id="SvgjsG1433"><text id="SvgjsText1434" font-family="微软雅黑" text-anchor="middle" font-size="13px" width="79px" fill="#323232" font-weight="400" align="middle" lineHeight="125%" anchor="middle" family="微软雅黑" size="13px" weight="400" font-style="" opacity="1" y="0.875" transform="rotate(0)"><tspan id="SvgjsTspan1435" dy="16" x="49.5"><tspan id="SvgjsTspan1436" style="text-decoration:;">软件A中编辑</tspan></tspan></text></g></g><g id="SvgjsG1437" transform="translate(33,620)"><path id="SvgjsPath1438" d="M 0 0L 83 0L 99 16L 99 21L 0 21L 0 0Z" stroke="none" fill-opacity="1" fill="#ffffaa"></path><path id="SvgjsPath1439" d="M 83 0L 83 16L 99 16Z" stroke="none" fill-opacity="1" fill="#cdcdcd"></path><path id="SvgjsPath1440" d="M 0 0L 83 0L 99 16L 99 21L 0 21L 0 0Z" stroke="none" fill="none"></path><g id="SvgjsG1441"><text id="SvgjsText1442" font-family="微软雅黑" text-anchor="middle" font-size="13px" width="79px" fill="#323232" font-weight="400" align="middle" lineHeight="125%" anchor="middle" family="微软雅黑" size="13px" weight="400" font-style="" opacity="1" y="0.875" transform="rotate(0)"><tspan id="SvgjsTspan1443" dy="16" x="49.5"><tspan id="SvgjsTspan1444" style="text-decoration:;">软件B中查看</tspan></tspan></text></g></g><g id="SvgjsG1445" transform="translate(71.5,675)"><path id="SvgjsPath1446" d="M 12.666666666666666 0L 152.33333333333334 0C 169.22222222222223 0 169.22222222222223 38 152.33333333333334 38L 12.666666666666666 38C -4.222222222222222 38 -4.222222222222222 0 12.666666666666666 0Z" stroke="rgba(50,50,50,1)" stroke-width="2" fill-opacity="1" fill="#ffffff"></path><g id="SvgjsG1447"><text id="SvgjsText1448" font-family="微软雅黑" text-anchor="middle" font-size="13px" width="145px" fill="#323232" font-weight="400" align="middle" lineHeight="125%" anchor="middle" family="微软雅黑" size="13px" weight="400" font-style="" opacity="1" y="9.375" transform="rotate(0)"><tspan id="SvgjsTspan1449" dy="16" x="82.5"><tspan id="SvgjsTspan1450" style="text-decoration:;">人能看的懂，非乱码</tspan></tspan></text></g></g><g id="SvgjsG1451"><path id="SvgjsPath1452" d="M153 620L153 647.5L154 647.5L154 675" stroke="#323232" stroke-width="2" fill="none" marker-end="url(#SvgjsMarker1453)"></path></g><g id="SvgjsG1455" transform="translate(70.5,193)"><path id="SvgjsPath1456" d="M 12.666666666666666 0L 152.33333333333334 0C 169.22222222222223 0 169.22222222222223 38 152.33333333333334 38L 12.666666666666666 38C -4.222222222222222 38 -4.222222222222222 0 12.666666666666666 0Z" stroke="rgba(50,50,50,1)" stroke-width="2" fill-opacity="1" fill="#ffffff"></path><g id="SvgjsG1457"><text id="SvgjsText1458" font-family="微软雅黑" text-anchor="middle" font-size="13px" width="145px" fill="#323232" font-weight="400" align="middle" lineHeight="125%" anchor="middle" family="微软雅黑" size="13px" weight="400" font-style="" opacity="1" y="9.375" transform="rotate(0)"><tspan id="SvgjsTspan1459" dy="16" x="82.5"><tspan id="SvgjsTspan1460" style="text-decoration:;">开始</tspan></tspan></text></g></g><g id="SvgjsG1461"><path id="SvgjsPath1462" d="M153 231L153 257L153 257L153 283" stroke="#323232" stroke-width="2" fill="none" marker-end="url(#SvgjsMarker1463)"></path></g><g id="SvgjsG1465" transform="translate(328.5,189)"><path id="SvgjsPath1466" d="M 12.666666666666666 0L 152.33333333333334 0C 169.22222222222223 0 169.22222222222223 38 152.33333333333334 38L 12.666666666666666 38C -4.222222222222222 38 -4.222222222222222 0 12.666666666666666 0Z" stroke="rgba(50,50,50,1)" stroke-width="2" fill-opacity="1" fill="#ffffff"></path><g id="SvgjsG1467"><text id="SvgjsText1468" font-family="微软雅黑" text-anchor="middle" font-size="13px" width="145px" fill="#323232" font-weight="400" align="middle" lineHeight="125%" anchor="middle" family="微软雅黑" size="13px" weight="400" font-style="" opacity="1" y="9.375" transform="rotate(0)"><tspan id="SvgjsTspan1469" dy="16" x="82.5"><tspan id="SvgjsTspan1470" style="text-decoration:;">开始</tspan></tspan></text></g></g><g id="SvgjsG1471"><path id="SvgjsPath1472" d="M411 227L411 253.5L411 253.5L411 280" stroke="#323232" stroke-width="2" fill="none" marker-end="url(#SvgjsMarker1473)"></path></g><g id="SvgjsG1475" transform="translate(328.5,675)"><path id="SvgjsPath1476" d="M 12.666666666666666 0L 152.33333333333334 0C 169.22222222222223 0 169.22222222222223 38 152.33333333333334 38L 12.666666666666666 38C -4.222222222222222 38 -4.222222222222222 0 12.666666666666666 0Z" stroke="rgba(50,50,50,1)" stroke-width="2" fill-opacity="1" fill="#ffffff"></path><g id="SvgjsG1477"><text id="SvgjsText1478" font-family="微软雅黑" text-anchor="middle" font-size="13px" width="145px" fill="#323232" font-weight="400" align="middle" lineHeight="125%" anchor="middle" family="微软雅黑" size="13px" weight="400" font-style="" opacity="1" y="9.375" transform="rotate(0)"><tspan id="SvgjsTspan1479" dy="16" x="82.5"><tspan id="SvgjsTspan1480" style="text-decoration:;">人看不懂，乱码</tspan></tspan></text></g></g><g id="SvgjsG1481" transform="translate(289,322)"><path id="SvgjsPath1482" d="M 0 0L 83 0L 99 16L 99 21L 0 21L 0 0Z" stroke="none" fill-opacity="1" fill="#ffffaa"></path><path id="SvgjsPath1483" d="M 83 0L 83 16L 99 16Z" stroke="none" fill-opacity="1" fill="#cdcdcd"></path><path id="SvgjsPath1484" d="M 0 0L 83 0L 99 16L 99 21L 0 21L 0 0Z" stroke="none" fill="none"></path><g id="SvgjsG1485"><text id="SvgjsText1486" font-family="微软雅黑" text-anchor="middle" font-size="13px" width="79px" fill="#323232" font-weight="400" align="middle" lineHeight="125%" anchor="middle" family="微软雅黑" size="13px" weight="400" font-style="" opacity="1" y="0.875" transform="rotate(0)"><tspan id="SvgjsTspan1487" dy="16" x="49.5"><tspan id="SvgjsTspan1488" style="text-decoration:;">软件C中查看</tspan></tspan></text></g></g><g id="SvgjsG1489"><path id="SvgjsPath1490" d="M411 620L411 647.5L411 647.5L411 675" stroke="#323232" stroke-width="2" fill="none" marker-end="url(#SvgjsMarker1491)"></path></g><g id="SvgjsG1493" transform="translate(297,463)"><path id="SvgjsPath1494" d="M 0 0L 83 0L 99 16L 99 21L 0 21L 0 0Z" stroke="none" fill-opacity="1" fill="#ffffaa"></path><path id="SvgjsPath1495" d="M 83 0L 83 16L 99 16Z" stroke="none" fill-opacity="1" fill="#cdcdcd"></path><path id="SvgjsPath1496" d="M 0 0L 83 0L 99 16L 99 21L 0 21L 0 0Z" stroke="none" fill="none"></path><g id="SvgjsG1497"><text id="SvgjsText1498" font-family="微软雅黑" text-anchor="middle" font-size="13px" width="79px" fill="#323232" font-weight="400" align="middle" lineHeight="125%" anchor="middle" family="微软雅黑" size="13px" weight="400" font-style="" opacity="1" y="0.875" transform="rotate(0)"><tspan id="SvgjsTspan1499" dy="16" x="49.5"><tspan id="SvgjsTspan1500" style="text-decoration:;">保存到内存</tspan></tspan></text></g></g></svg>